<svg width="126" height="126" viewBox="0 0 126 126" fill="none" xmlns="http://www.w3.org/2000/svg">
<path fill-rule="evenodd" clip-rule="evenodd" d="M28.1518 30.2543C32.5277 25.9653 38.1608 22.2098 45.2695 19.3543C52.3801 16.4981 59.0458 15.3133 65.1709 15.3842L65.2008 15.383C71.8858 15.4455 78.4622 17.0819 84.3969 20.1597C94.5147 25.3984 101.478 34.0613 104.534 41.6712C106.6 46.8128 108.742 56.2611 103.011 64.0262C103.435 64.9893 103.847 65.9683 104.247 66.9631L104.285 67.06C105.358 69.7295 107.969 76.2246 105.629 83.8539C103.215 91.7293 95.9668 99.5909 80.0653 105.978C64.1637 112.366 53.4912 111.703 46.3001 107.686C39.3321 103.793 36.7254 97.2982 35.6531 94.6287L35.6142 94.5318C35.2151 93.5383 34.8352 92.5457 34.4744 91.5541C24.9665 89.9127 19.9757 81.6085 17.9097 76.4651C14.8529 68.8552 13.8892 57.7847 17.5724 47.0044C19.7289 40.6765 23.3459 34.9455 28.1302 30.276L28.1518 30.2543ZM41.0402 86.076C37.2972 75.6589 35.7386 62.6443 35.1527 51.9758C34.8579 46.6207 34.8104 41.9407 34.8369 38.6027C34.8488 37.0705 34.8772 35.8216 34.9046 34.9257C38.3708 31.8026 42.7598 29.0163 48.2627 26.8058C53.7638 24.5961 58.8599 23.5702 63.5241 23.4296C64.1636 24.0576 65.0454 24.9387 66.1147 26.0388C68.4403 28.4299 71.6423 31.8448 75.1339 35.9159C82.0871 44.0267 89.9679 54.5061 94.4811 64.616C94.5337 64.775 94.5962 64.9305 94.6682 65.0817C95.4123 66.6578 96.1213 68.2827 96.795 69.9563C97.8127 72.4898 99.4274 76.6873 97.9506 81.4993C96.5218 86.1665 91.7617 92.6283 77.0728 98.5287C62.384 104.429 54.4758 103.054 50.2169 100.675C45.8203 98.2184 44.0842 94.074 43.0657 91.5386C42.3933 89.8645 41.7821 88.2011 41.2322 86.5485C41.177 86.386 41.113 86.2285 41.0402 86.076ZM47.4847 56.0806C46.4966 56.4775 45.7066 57.2507 45.2886 58.2301C44.8705 59.2095 44.8586 60.3148 45.2556 61.303L45.9784 63.1025C46.3753 64.0907 47.1485 64.8806 48.1279 65.2987C49.1073 65.7167 50.2126 65.7286 51.2008 65.3317C52.1889 64.9348 52.9789 64.1616 53.3969 63.1822C53.815 62.2028 53.8269 61.0975 53.4299 60.1093L52.7071 58.3098C52.3102 57.3217 51.537 56.5317 50.5576 56.1136C49.5782 55.6956 48.4729 55.6837 47.4847 56.0806ZM69.0755 47.4079C70.0637 47.0109 71.169 47.0228 72.1484 47.4409C73.1278 47.8589 73.901 48.6489 74.2979 49.637L75.0208 51.4366C75.4177 52.4247 75.4058 53.5301 74.9878 54.5094C74.5697 55.4888 73.7797 56.262 72.7916 56.6589C71.8034 57.0559 70.6981 57.044 69.7187 56.6259C68.7393 56.2079 67.9661 55.4179 67.5692 54.4298L66.8464 52.6302C66.4494 51.6421 66.4613 50.5368 66.8794 49.5574C67.2974 48.578 68.0874 47.8048 69.0755 47.4079ZM73.6217 79.1652C73.5718 79.041 73.5157 78.9193 73.4534 78.8001C73.8616 78.2112 74.2135 77.5852 74.5046 76.9305C75.4729 74.7631 75.8798 72.0598 74.8741 69.5561L74.8562 69.5114C74.8201 69.4315 74.7789 69.3541 74.7328 69.2797C74.6281 69.1127 74.5062 68.9572 74.369 68.8157C73.9187 68.3657 73.3629 68.0356 72.7523 67.8555C71.2418 67.3805 68.8881 67.4454 65.1847 68.9331C61.485 70.4192 59.7389 71.9968 58.9767 73.3847C58.1892 74.8173 58.5352 75.8834 58.616 76.0846C59.6217 78.5883 61.7882 80.2601 63.9875 81.1572C64.6552 81.4299 65.3496 81.6399 66.0399 81.7802C66.0764 81.9068 66.1198 82.0329 66.1702 82.1583L67.8718 86.3945C67.4994 87.2018 66.5644 88.2134 64.8469 88.9034C62.6095 89.8021 60.9526 89.3881 60.3311 88.8372C59.5312 88.1522 58.4942 87.8088 57.4436 87.8812C56.3929 87.9535 55.4127 88.4358 54.7143 89.224C54.0158 90.0122 53.6551 91.0433 53.7097 92.0951C53.7643 93.1468 54.23 94.135 55.0063 94.8466C58.804 98.2149 64.1068 97.8545 67.8401 96.3549C70.1538 95.4255 72.5976 93.7645 74.2226 91.4329C77.0089 91.9926 79.9227 91.5014 82.2364 90.5721C85.9696 89.0725 90.0464 85.6652 90.4607 80.605C90.5132 80.0746 90.4595 79.5391 90.3029 79.0297C90.1463 78.5202 89.8898 78.0471 89.5485 77.6378C89.2071 77.2285 88.7876 76.8913 88.3146 76.6458C87.8415 76.4003 87.3243 76.2514 86.7931 76.2078C86.262 76.1643 85.7274 76.2269 85.2207 76.3921C84.714 76.5573 84.2452 76.8217 83.8417 77.1699C83.4382 77.5182 83.1081 77.9432 82.8706 78.4204C82.6331 78.8975 82.493 79.4171 82.4584 79.949C82.3907 80.7767 81.4805 82.2218 79.2432 83.1205C77.5256 83.8105 76.1507 83.7267 75.3233 83.4014L73.6217 79.1652Z" fill="white"/>
</svg>
