<svg width="117" height="117" viewBox="0 0 117 117" fill="none" xmlns="http://www.w3.org/2000/svg">
<path d="M89.778 25.9354C89.7022 25.9149 85.738 27.4867 85.738 27.4867L80.9582 24.9829C80.9179 24.9825 75.5512 27.7498 75.5512 27.7498L71.1343 26.162L67.5596 28.3167L62.6757 26.7475L58.3705 29.4097L53.7726 28.6192L49.827 30.9595L44.5964 31.1298L40.6196 34.2657L36.1417 34.1378L32.8099 37.0591L28.5219 37.9511L26.1053 41.3887L21.2395 42.6178L19.4722 46.6491C22.3253 46.4697 24.4263 48.2356 25.8685 50.1232L31.1986 48.6457L37.6055 49.4674L44.2592 46.2621L52.4562 47.6579L59.7623 44.1446L65.9116 44.3906L70.8283 40.7706C72.9594 40.2837 75.8161 40.3311 78.4393 40.0402L81.4363 36.1798L86.9531 35.7469C86.9887 35.7253 87.0267 35.7035 87.0622 35.6818L88.5666 32.5514L92.9575 30.8759C92.9721 30.8567 92.9866 30.8376 93.0008 30.8185L90.5148 28.9584L89.778 25.9354ZM60.5238 49.5288L60.4 49.4932C59.8102 49.6436 59.2195 49.7906 58.628 49.9341C56.9896 50.3291 55.345 50.6975 53.6947 51.0391C55.6701 51.5608 57.6383 52.1092 59.5988 52.6843C70.3658 55.8407 79.8878 59.4841 86.4921 62.7716C89.7943 64.4154 92.3719 65.9831 93.9466 67.2688C94.7341 67.9116 95.2625 68.4905 95.5026 68.8668C95.6064 69.0291 95.6337 69.1035 95.6524 69.1545C95.6091 69.1875 95.546 69.2353 95.371 69.3159C94.9659 69.503 94.2084 69.7049 93.1985 69.8208C91.1789 70.0528 88.1628 69.9807 84.4959 69.5815C77.1618 68.783 67.1796 66.7087 56.4127 63.5524C45.8626 60.4596 36.5151 56.9 29.9292 53.665C29.7279 53.6619 29.5213 53.6615 29.323 53.6567C26.4961 53.5875 23.9903 53.3389 21.8467 52.8809C23.5344 54.0187 25.6126 55.1933 28.0541 56.4087C34.9175 59.825 44.5686 63.5067 55.4877 66.7077C66.4069 69.9087 76.5183 72.0205 84.1399 72.8505C87.9507 73.2652 91.1277 73.3683 93.5738 73.0874C94.797 72.9472 95.8406 72.7205 96.7491 72.3012C97.6574 71.8821 98.5328 71.1727 98.8496 70.092C99.1665 69.0109 98.8127 67.9411 98.2743 67.0978C97.7361 66.2547 96.9799 65.5004 96.0262 64.7217C94.1189 63.1647 91.3892 61.5361 87.9575 59.828C81.0941 56.4115 71.443 52.7298 60.5238 49.5288ZM95.6314 75.2258C92.015 75.9476 87.4099 75.8049 82.1309 75.2689C73.9478 74.4381 64.1974 72.3783 54.6374 69.6485C45.0777 66.9187 35.7221 63.5226 28.3437 59.9766C24.6546 58.2036 21.46 56.3962 18.9559 54.5785C18.2033 54.032 17.5104 53.4885 16.8833 52.9392L11.1023 72.6591C19.6753 78.9524 33.9914 85.1528 48.8072 89.4961C63.623 93.8395 79.0209 96.3499 89.6348 95.6812L95.6314 75.2258ZM8.76339 75.0233C8.66544 75.205 8.58676 75.3963 8.52862 75.5943C8.21176 76.6752 8.5656 77.7448 9.10394 78.5883C9.64216 79.4316 10.3984 80.1857 11.3521 80.9644C13.2593 82.5214 15.9891 84.1501 19.4207 85.8583C26.2842 89.2747 35.9353 92.9564 46.8544 96.1574C57.7736 99.3584 67.8849 101.47 75.5066 102.3C79.3174 102.715 82.4944 102.818 84.9405 102.537C86.1637 102.397 87.2073 102.17 88.1158 101.751C89.0241 101.332 89.8995 100.622 90.2163 99.5416C90.2759 99.3383 90.3116 99.1352 90.327 98.9341C78.9379 99.7798 63.1673 97.1324 47.8822 92.6515C32.5971 88.1706 17.8933 81.8841 8.76339 75.0233Z" fill="white"/>
</svg>
