<svg width="94" height="92" viewBox="0 0 94 92" fill="none" xmlns="http://www.w3.org/2000/svg">
<path d="M60.0465 75.1171C59.655 76.0722 52.9915 92.0788 42.4037 86.3211C29.6827 79.4034 39.3006 54.9567 46.5684 46.8148C53.9215 38.5773 89.8821 54.5646 76.9301 72.7292C74.4948 75.9341 67.4391 77.9748 60.0465 75.1171Z" fill="white"/>
<ellipse cx="8.8113" cy="14.357" rx="8.8113" ry="14.357" transform="matrix(0.944488 0.270808 -0.272037 0.97804 75.1128 13.146)" fill="white"/>
<ellipse cx="8.73567" cy="14.4649" rx="8.73567" ry="14.4649" transform="matrix(0.989681 -0.171688 0.106811 0.990424 43.5117 5.63599)" fill="white"/>
<ellipse cx="9.20886" cy="13.1024" rx="9.20886" ry="13.1024" transform="matrix(0.708475 -0.741897 0.64383 0.731036 14.7817 30.9182)" fill="white"/>
<ellipse cx="9.44645" cy="12.764" rx="9.44645" ry="12.764" transform="matrix(0.440317 -0.921864 0.862001 0.457898 1.8623 62.4541)" fill="white"/>
</svg>
