<svg width="135" height="188" viewBox="0 0 135 188" fill="none" xmlns="http://www.w3.org/2000/svg">
<path d="M42.6439 98.1725C29.365 104.081 17.885 110.663 10.1969 116.404C6.35271 119.275 3.45825 121.957 1.81721 124.069C0.996816 125.126 0.50338 126.037 0.306041 126.641C0.108701 127.245 0.178105 127.43 0.214026 127.511C0.25006 127.592 0.341233 127.767 0.921767 128.025C1.5023 128.282 2.50977 128.526 3.84365 128.624C6.51165 128.819 10.4414 128.465 15.1475 127.531C16.4909 127.265 17.9053 126.947 19.3706 126.59C20.0439 125.146 23.2826 122.661 28.501 119.584C33.7195 116.507 40.5734 113.042 47.8237 109.814C55.0749 106.589 62.2387 103.817 68.0201 101.999C73.8015 100.181 77.819 99.4376 79.3463 99.9028C80.588 99.0562 81.7668 98.2207 82.8609 97.4034C86.7046 94.533 89.5993 91.8513 91.2403 89.7386C92.0607 88.6823 92.5542 87.7709 92.7515 87.1671C92.9488 86.5632 92.8794 86.3779 92.8435 86.2972C92.8075 86.2162 92.7163 86.0406 92.1358 85.7832C91.5552 85.5258 90.5478 85.2818 89.2139 85.1841C86.5459 84.9886 82.6161 85.3433 77.9101 86.2769C68.4982 88.1439 55.9228 92.2643 42.6439 98.1725ZM0.267939 133.069L2.18519 165.063L2.18571 165.09C2.21951 165.972 2.41481 166.306 2.97022 166.757C3.52563 167.209 4.61567 167.682 6.2488 167.928C9.51468 168.42 14.7258 167.994 20.9593 166.701C33.4262 164.115 50.0998 158.221 66.1784 151.067C82.2572 143.914 97.7977 135.474 108.065 127.945C113.199 124.181 117.004 120.595 118.826 117.84C119.736 116.462 120.115 115.336 120.151 114.62C120.187 113.905 120.071 113.537 119.438 112.922L119.418 112.903L96.9364 90.0584C96.4827 90.9801 95.89 91.8811 95.1783 92.7972C93.0734 95.507 89.9075 98.3642 85.8444 101.398C77.7185 107.467 65.9983 114.159 52.4405 120.191C38.8827 126.223 26.0651 130.449 16.1172 132.422C11.1431 133.409 6.90094 133.848 3.47912 133.597C2.32236 133.512 1.25619 133.349 0.267939 133.069Z" fill="white"/>
</svg>
