<svg width="150" height="150" viewBox="0 0 150 150" fill="none" xmlns="http://www.w3.org/2000/svg">
<g clip-path="url(#clip0_203_1541)">
<path d="M91.0357 33.7982C96.4369 35.9243 101.371 39.0839 105.562 43.0998C109.736 47.1093 113.081 51.9165 115.437 57.2434C117.761 62.5396 119 68.2637 119.116 74.0728C119.232 79.8818 118.223 85.6508 116.112 91.0357C113.971 96.4524 110.82 101.389 106.811 105.562C98.6997 114.004 87.55 118.914 75.8376 119.116C70.037 119.24 64.269 118.217 58.865 116.105C53.461 113.993 48.5275 110.835 44.3479 106.811C40.1677 102.783 36.8136 97.979 34.4734 92.667C32.1545 87.353 30.9043 81.6345 30.7941 75.8376C30.67 70.037 31.6933 64.269 33.8051 58.865C35.9169 53.461 39.0756 48.5275 43.0998 44.3479C51.2107 35.9062 62.3604 30.9969 74.0727 30.7941C79.8818 30.678 85.6508 31.6875 91.0357 33.7982ZM39.8536 78.9059C40.7627 87.1053 44.5185 94.7261 50.4672 100.442C56.4159 106.157 64.1807 109.606 72.4098 110.187C73.4196 100.395 77.6803 91.2242 84.5118 84.1374C91.6127 76.7469 100.649 72.3797 110.057 71.0044C109.154 62.8035 105.396 55.1811 99.441 49.4709C93.4522 43.7167 85.6981 40.3098 77.5005 39.7238C76.4808 49.5125 72.2216 58.6804 65.3986 65.773C58.2977 73.1635 49.2311 77.5625 39.8536 78.9059ZM39.9556 69.9369C46.9901 68.6091 53.7018 65.1944 59.0275 59.6516C64.3531 54.1087 67.497 47.266 68.5122 40.2158C61.2496 41.56 54.5906 45.1458 49.4709 50.4694C44.3288 55.8211 41.0282 62.6357 39.9556 69.9369ZM109.924 80.0053C102.659 81.3409 95.9971 84.928 90.8829 90.2588C85.5572 95.8017 82.4133 102.644 81.3676 109.726C88.643 108.374 95.3123 104.777 100.439 99.441C105.582 94.0893 108.882 87.2747 109.924 80.0053Z" fill="#FFB0C5"/>
</g>
<defs>
<clipPath id="clip0_203_1541">
<rect width="106.024" height="106.024" fill="white" transform="translate(73.4575) rotate(43.8553)"/>
</clipPath>
</defs>
</svg>
