<svg width="144" height="144" viewBox="0 0 144 144" fill="none" xmlns="http://www.w3.org/2000/svg">
<path d="M49.2588 109.046C69.812 121.435 96.6561 114.782 109.045 94.2288C121.435 73.6756 114.782 46.8315 94.2286 34.4423C73.6754 22.0531 46.8312 28.7058 34.442 49.259L11.9571 86.5606L19.4174 91.0576L28.4789 76.025C29.8187 89.2414 37.0611 101.693 49.2588 109.046ZM72.4326 100.13C53.9309 88.977 47.945 64.8232 59.0975 46.3216C61.1436 42.9272 63.667 39.9221 66.6304 37.284L67.2804 37.2181C55.1021 60.5429 62.2586 89.4198 83.9195 104.358L83.314 104.604C79.4989 103.677 75.827 102.176 72.4326 100.13ZM95.7203 46.4787C88.9316 53.2696 79.9226 57.2473 70.2112 57.7503C70.7623 51.2679 72.6802 44.7957 76.2554 38.8648C76.5701 38.3426 76.9595 37.8653 77.3116 37.3656C81.5753 38.054 85.7777 39.5192 89.6943 41.8801C91.8951 43.2067 93.9012 44.772 95.683 46.4562L95.7203 46.4787ZM92.6837 99.5211C92.1615 99.2063 91.5943 98.9662 91.0721 98.6514C86.5959 95.9532 82.8008 92.5468 79.709 88.6488C90.2064 85.9304 99.5868 79.988 106.529 71.6582C106.554 78.0032 104.839 84.2336 101.57 89.6721C99.2093 93.5887 96.155 96.884 92.7062 99.4838L92.6837 99.5211ZM104.351 59.6652C104.171 59.9636 104.028 60.2845 103.848 60.5829C97.4175 71.2512 86.8407 78.5048 74.6233 80.8029C72.3618 76.2866 70.9302 71.4061 70.3652 66.4377C82.0337 65.8939 92.9114 61.2627 101.219 53.3022C102.485 55.3365 103.548 57.4526 104.351 59.6652ZM50.2278 44.3315C39.0021 65.7386 45.5582 92.3212 65.5038 105.971C61.4195 105.239 57.4486 103.811 53.6811 101.54C37.2311 91.6244 31.9119 70.161 41.8278 53.711C44.0763 49.9808 46.9436 46.8271 50.213 44.2717L50.2278 44.3315Z" fill="#FFB0C5"/>
</svg>
