<svg width="162" height="162" viewBox="0 0 162 162" fill="none" xmlns="http://www.w3.org/2000/svg">
<path fill-rule="evenodd" clip-rule="evenodd" d="M55.8457 50.7845C55.3426 52.08 54.9299 53.3365 54.6079 54.5541C54.3555 55.4826 53.8561 56.3252 53.1628 56.9924C52.4696 57.6596 51.6084 58.1263 50.671 58.343L39.5962 60.8409C39.2262 60.9074 38.8757 61.0553 38.5699 61.2741C38.2642 61.4928 38.0109 61.7768 37.8285 62.1055C31.6559 74.0679 30.2472 84.9073 33.1911 94.4072C36.1297 103.933 43.767 113.078 57.5923 121.011C71.4176 128.944 83.1634 130.912 92.8736 128.653C102.561 126.401 111.208 119.715 118.421 108.35C118.613 108.027 118.73 107.665 118.765 107.29C118.799 106.916 118.75 106.539 118.621 106.186L115.185 95.3711C114.899 94.4496 114.869 93.4677 115.098 92.5304C115.327 91.5931 115.806 90.7357 116.485 90.0499C117.305 89.209 118.128 88.285 118.952 87.2778C118.55 86.0268 118.05 84.8089 117.459 83.6354C116.11 80.981 114.587 78.4187 112.9 75.9651C109.81 71.3914 106.364 67.0691 102.592 63.0386C102.18 62.7724 101.809 62.4478 101.49 62.0748C101.557 62.1392 101.549 62.135 101.468 62.0622C101.077 61.6917 98.8561 59.5702 94.3356 56.9763C89.8224 54.3866 86.8589 53.5431 86.3416 53.3924C86.2396 53.3664 86.2323 53.3622 86.3196 53.3798C85.7267 53.2764 85.1569 53.0681 84.637 52.7649C80.3745 51.741 74.2459 50.7954 68.3207 50.3951C65.0637 50.1818 61.9897 50.1417 59.3983 50.3299C58.2033 50.3996 57.0189 50.5467 55.8457 50.7845ZM143.533 63.6536C145.887 57.7004 143.462 50.8941 138.154 47.907C136.183 46.7466 133.923 46.1659 131.636 46.2315C121.145 46.4055 113.325 49.2906 106.288 52.3039C104.17 50.6442 101.933 49.1424 99.5949 47.8107C96.591 46.0871 94.0345 44.9415 92.0986 44.191C91.1346 36.587 89.6878 28.3649 84.5305 19.1922C83.4583 17.2402 81.8743 15.6175 79.9488 14.4986C74.706 11.5 67.6775 12.8526 63.75 17.8642C59.5821 23.1761 54.9531 29.6648 51.1704 36.308C49.6233 39.0042 48.2333 41.7321 47.0624 44.4007L47.0056 44.5336C46.3926 45.9414 45.8446 47.3377 45.3616 48.7227L37.2772 50.5407C35.4041 50.9469 33.6432 51.7594 32.1185 52.9207C30.5939 54.0821 29.3429 55.564 28.4537 57.2618C21.3843 70.9399 19.1207 84.6779 23.1021 97.5292C27.0846 110.362 36.9807 121.357 52.3373 130.169C67.6938 138.981 82.1765 141.983 95.265 138.946C108.373 135.892 119.092 127.005 127.329 114.007C128.341 112.38 128.986 110.553 129.219 108.651C129.452 106.75 129.268 104.821 128.68 102.998L126.174 95.0932C133.396 86.6646 139.5 73.8544 143.537 63.6462M73.3803 70.838C74.0771 69.6236 74.263 68.182 73.897 66.8305C73.531 65.479 72.6431 64.3283 71.4287 63.6314C70.2142 62.9345 68.7727 62.7487 67.4212 63.1146C66.0696 63.4806 64.9189 64.3685 64.222 65.583L62.162 69.173C61.4652 70.3875 61.2793 71.829 61.6453 73.1805C62.0113 74.5321 62.8992 75.6828 64.1136 76.3797C65.3281 77.0765 66.7696 77.2624 68.1212 76.8964C69.4727 76.5304 70.6234 75.6425 71.3203 74.4281L73.3803 70.838ZM100.149 80.1112C102.677 81.5616 103.551 84.7902 102.101 87.3179L100.041 90.9079C99.3437 92.1224 98.193 93.0103 96.8414 93.3763C95.4899 93.7423 94.0484 93.5564 92.8339 92.8595C91.6195 92.1627 90.7316 91.0119 90.3656 89.6604C89.9996 88.3089 90.1855 86.8673 90.8823 85.6529L92.9423 82.0628C94.3927 79.5352 97.6213 78.6608 100.149 80.1112ZM65.8721 96.0582C64.9954 93.6604 64.6465 91.1017 64.8494 88.5567C64.9521 87.6479 65.2735 86.7775 65.7861 86.0201C66.2988 85.2626 66.9873 84.6407 67.7929 84.2076C69.0412 83.5481 70.4842 83.3571 71.8611 83.669C73.2656 83.9879 75.3975 84.6853 77.6834 85.997C79.9693 87.3087 81.6546 88.8016 82.6313 89.8489C83.4009 90.6801 84.1592 91.9723 84.2191 93.6331C84.283 95.4227 83.4992 97.2129 81.9497 98.3689C79.8574 99.8288 77.4748 100.82 74.9645 101.275C74.8979 101.578 74.914 102.551 75.7473 103.526C76.108 103.956 76.5806 104.278 77.1129 104.456C77.8517 104.665 78.636 104.651 79.3667 104.415C80.7183 104.049 82.1601 104.235 83.3747 104.932C84.5893 105.629 85.4773 106.78 85.8434 108.131C86.2094 109.483 86.0235 110.925 85.3266 112.139C84.6296 113.354 83.4787 114.242 82.127 114.608C76.1311 116.232 70.9255 114.102 67.7575 110.424C66.8858 109.404 66.1613 108.267 65.6052 107.046C64.2576 107.189 62.8946 107.137 61.6031 106.892C56.8292 106.013 52.3636 102.594 50.7398 96.5979C50.5586 95.9287 50.5109 95.2302 50.5996 94.5425C50.6883 93.8548 50.9115 93.1913 51.2566 92.5899C51.6017 91.9885 52.0619 91.4609 52.6109 91.0373C53.1599 90.6138 53.7869 90.3025 54.4562 90.1212C55.1255 89.94 55.8239 89.8923 56.5116 89.981C57.1993 90.0697 57.8628 90.2929 58.4642 90.638C59.0657 90.9831 59.5932 91.4433 60.0168 91.9923C60.4404 92.5413 60.7517 93.1683 60.9329 93.8376C61.0978 94.5876 61.4812 95.2718 62.0348 95.8041C62.4476 96.1708 62.9448 96.4074 63.5265 96.514C64.7917 96.753 65.6444 96.2684 65.8721 96.0582Z" fill="#FFB0C5"/>
</svg>
