<svg width="134" height="134" viewBox="0 0 134 134" fill="none" xmlns="http://www.w3.org/2000/svg">
<path d="M103.536 29.9098C103.449 29.8861 98.877 31.6988 98.877 31.6988L93.3647 28.8113C93.3183 28.8109 87.1291 32.0023 87.1291 32.0023L82.0353 30.1711L77.9129 32.6561L72.2805 30.8464L67.3156 33.9166L62.0131 33.0049L57.4628 35.7038L51.4307 35.9002L46.8443 39.5167L41.6803 39.3692L37.8378 42.7382L32.8927 43.7668L30.1058 47.7312L24.4944 49.1487L22.4562 53.7978C25.7466 53.5909 28.1695 55.6274 29.8327 57.8043L35.9796 56.1004L43.3684 57.048L51.0417 53.3515L60.4949 54.9612L68.9206 50.9095L76.0123 51.1932L81.6825 47.0185C84.1402 46.4569 87.4347 46.5116 90.4598 46.1761L93.9161 41.7241L100.278 41.2248C100.319 41.2 100.363 41.1749 100.404 41.1498L102.139 37.5397L107.203 35.6074C107.22 35.5852 107.236 35.5632 107.253 35.5412L104.386 33.3961L103.536 29.9098ZM69.7989 57.1188L69.6561 57.0778C68.9759 57.2512 68.2947 57.4207 67.6125 57.5862C65.7231 58.0418 63.8264 58.4666 61.9232 58.8605C64.2013 59.4622 66.4711 60.0947 68.7321 60.7578C81.1491 64.3979 92.1303 68.5998 99.7466 72.391C103.555 74.2868 106.528 76.0947 108.344 77.5774C109.252 78.3188 109.861 78.9863 110.138 79.4203C110.258 79.6075 110.289 79.6933 110.311 79.7521C110.261 79.7901 110.188 79.8452 109.986 79.9382C109.519 80.154 108.646 80.3868 107.481 80.5205C105.152 80.788 101.673 80.7049 97.4446 80.2445C88.9866 79.3237 77.4746 76.9315 65.0578 73.2915C52.8908 69.7247 42.1108 65.6196 34.5157 61.8888C34.2835 61.8853 34.0453 61.8848 33.8166 61.8793C30.5565 61.7995 27.6667 61.5128 25.1946 60.9846C27.141 62.2967 29.5376 63.6513 32.3532 65.053C40.2684 68.9929 51.3985 73.2388 63.991 76.9303C76.5835 80.6219 88.2444 83.0573 97.034 84.0145C101.429 84.4928 105.093 84.6117 107.914 84.2876C109.324 84.126 110.528 83.8646 111.576 83.381C112.623 82.8977 113.633 82.0795 113.998 80.8332C114.363 79.5865 113.955 78.3528 113.335 77.3802C112.714 76.4079 111.842 75.538 110.742 74.64C108.542 72.8444 105.394 70.9661 101.437 68.9963C93.5215 65.0562 82.3914 60.8103 69.7989 57.1188ZM110.287 86.7538C106.116 87.5862 100.805 87.4216 94.7172 86.8035C85.28 85.8454 74.0353 83.47 63.0104 80.3218C51.9857 77.1737 41.1963 73.2571 32.6872 69.1677C28.4328 67.1229 24.7486 65.0386 21.8607 62.9424C20.9928 62.3121 20.1937 61.6853 19.4706 61.0518L12.8037 83.7937C22.6904 91.0515 39.2004 98.2021 56.2867 103.211C73.373 108.22 91.1305 111.115 103.371 110.344L110.287 86.7538ZM10.1063 86.5203C9.99334 86.7298 9.90259 86.9505 9.83555 87.1788C9.47013 88.4253 9.87819 89.6588 10.499 90.6316C11.1197 91.6041 11.9919 92.4738 13.0917 93.3718C15.2912 95.1674 18.4393 97.0457 22.3969 99.0157C30.3121 102.956 41.4422 107.202 54.0347 110.893C66.6272 114.585 78.2881 117.02 87.0776 117.977C91.4725 118.456 95.1364 118.574 97.9573 118.25C99.368 118.089 100.571 117.827 101.619 117.344C102.667 116.86 103.676 116.042 104.042 114.796C104.11 114.561 104.152 114.327 104.169 114.095C91.0348 115.071 72.8474 112.017 55.22 106.85C37.5925 101.682 20.6354 94.4325 10.1063 86.5203Z" fill="#FFB0C5"/>
</svg>
