<svg width="148" height="148" viewBox="0 0 148 148" fill="none" xmlns="http://www.w3.org/2000/svg">
<path d="M133.934 35.202C130.481 31.0438 125.539 28.4005 120.163 27.8367C119.822 24.7311 118.786 21.7421 117.132 19.0915C115.478 16.441 113.248 14.1968 110.608 12.5256C107.968 10.8543 104.986 9.79876 101.883 9.4373C98.7796 9.07584 95.6347 9.41772 92.6815 10.4376C89.7283 11.4574 87.0426 13.1291 84.8236 15.3285C82.6046 17.528 80.9093 20.1988 79.8634 23.1428C78.8175 26.0869 78.4479 29.2287 78.7819 32.3351C79.1159 35.4415 80.145 38.4329 81.7929 41.0873C81.795 41.1027 81.795 41.1182 81.7929 41.1336L41.1449 81.8104H41.0871C38.4327 80.1626 35.4414 79.1334 32.3349 78.7994C29.2285 78.4654 26.0867 78.835 23.1427 79.8809C20.1986 80.9268 17.5278 82.6222 15.3283 84.8411C13.1289 87.0601 11.4572 89.7458 10.4374 92.699C9.41753 95.6522 9.07566 98.7971 9.43712 101.9C9.79858 105.004 10.8541 107.986 12.5254 110.626C14.1966 113.265 16.4408 115.495 19.0914 117.149C21.7419 118.803 24.7309 119.839 27.8365 120.181C28.1778 123.286 29.2139 126.275 30.868 128.926C32.522 131.576 34.7516 133.82 37.3914 135.492C40.0311 137.163 43.0133 138.219 46.1166 138.58C49.22 138.941 52.3649 138.6 55.3181 137.58C58.2713 136.56 60.957 134.888 63.176 132.689C65.3949 130.489 67.0903 127.819 68.1362 124.874C69.1821 121.93 69.5517 118.789 69.2177 115.682C68.8837 112.576 67.8545 109.584 66.2067 106.93V106.884L106.878 66.2068H106.936C111.136 68.8523 116.143 69.9095 121.054 69.1877C125.965 68.466 130.456 66.0127 133.718 62.2707C136.979 58.5286 138.795 53.7442 138.839 48.7806C138.883 43.817 137.152 39.0012 133.957 35.202H133.934ZM126.667 56.1706C124.858 58.2414 122.371 59.6 119.651 60.0026C116.932 60.4052 114.157 59.8255 111.826 58.3675C110.052 57.2414 107.947 56.7533 105.858 56.9834C103.769 57.2136 101.82 58.1483 100.333 59.6336L59.6334 100.334C58.1517 101.823 57.2213 103.773 56.9954 105.862C56.7695 107.951 57.2615 110.055 58.3904 111.827C59.3748 113.41 59.9616 115.208 60.1009 117.067C60.2402 118.927 59.9278 120.792 59.1904 122.505C58.4529 124.217 57.3123 125.726 55.8657 126.902C54.4192 128.078 52.7096 128.887 50.8828 129.26C49.056 129.633 47.1661 129.559 45.3742 129.043C43.5824 128.528 41.9418 127.587 40.5924 126.3C39.2429 125.013 38.2245 123.42 37.6241 121.655C37.0237 119.889 36.8591 118.005 37.1443 116.163C37.2479 115.502 37.2072 114.828 37.0249 114.185C36.8427 113.542 36.5233 112.946 36.0887 112.438C35.654 111.93 35.1146 111.523 34.5074 111.244C33.9002 110.964 33.2397 110.82 32.5714 110.821C32.3332 110.823 32.0956 110.842 31.8603 110.879C30.0196 111.162 28.1378 110.996 26.375 110.395C24.6122 109.795 23.0205 108.778 21.7353 107.43C20.4501 106.082 19.5094 104.444 18.9934 102.655C18.4773 100.865 18.401 98.9777 18.7711 97.1526C19.1412 95.3274 19.9467 93.6187 21.119 92.1717C22.2913 90.7247 23.7958 89.5823 25.5044 88.8417C27.2131 88.101 29.0754 87.784 30.9329 87.9177C32.7903 88.0514 34.5881 88.6317 36.1731 89.6093C37.9476 90.7354 40.0528 91.2235 42.1418 90.9934C44.2309 90.7632 46.1793 89.8286 47.6662 88.3433L88.3662 47.6433C89.8423 46.1551 90.7692 44.2097 90.995 42.1258C91.2208 40.0419 90.7322 37.9431 89.6092 36.1733C88.6248 34.5898 88.0379 32.7918 87.8986 30.9325C87.7593 29.0732 88.0717 27.2079 88.8092 25.4954C89.5466 23.783 90.6873 22.2743 92.1338 21.0979C93.5804 19.9216 95.29 19.1125 97.1168 18.7397C98.9436 18.3669 100.834 18.4414 102.625 18.9568C104.417 19.4723 106.058 20.4134 107.407 21.6999C108.757 22.9864 109.775 24.5802 110.375 26.3454C110.976 28.1106 111.14 29.9948 110.855 31.8373C110.743 32.5569 110.802 33.2929 111.027 33.9854C111.253 34.6779 111.639 35.3073 112.154 35.8223C112.669 36.3373 113.299 36.7234 113.991 36.9492C114.684 37.1749 115.42 37.2339 116.139 37.1214C118.494 36.7404 120.908 37.0968 123.052 38.1418C125.196 39.1868 126.965 40.8692 128.115 42.9585C129.265 45.0478 129.741 47.4417 129.478 49.8122C129.215 52.1826 128.225 54.4137 126.644 56.1995L126.667 56.1706Z" fill="#FFB0C5"/>
</svg>
