<svg width="107" height="106" viewBox="0 0 107 106" fill="none" xmlns="http://www.w3.org/2000/svg">
<path d="M44.2999 78.3546C43.5124 78.6433 30.2524 83.4142 27.0911 73.094C23.2927 60.6945 43.203 53.0373 52.3167 53.1804C61.5373 53.3252 74.3233 86.3292 55.9834 88.1717C52.6558 88.3973 47.1746 84.8932 44.2999 78.3546Z" fill="#FFB0C5"/>
<ellipse cx="7.82158" cy="11.793" rx="7.82158" ry="11.793" transform="matrix(0.474739 0.880126 -0.88589 0.463895 89.0817 52.7717)" fill="#FFB0C5"/>
<ellipse cx="7.83705" cy="11.7689" rx="7.83705" ry="11.7689" transform="matrix(0.783686 0.621157 -0.618709 0.785621 74.0915 27.5217)" fill="#FFB0C5"/>
<ellipse cx="7.91771" cy="11.0923" rx="7.91771" ry="11.0923" transform="matrix(0.998709 0.0507945 -0.0312528 0.999511 42.028 22.9941)" fill="#FFB0C5"/>
<ellipse cx="7.86647" cy="11.1641" rx="7.86647" ry="11.1641" transform="matrix(0.958538 -0.284966 0.301396 0.953499 16.0309 32.5322)" fill="#FFB0C5"/>
</svg>
