<svg width="178" height="216" viewBox="0 0 178 216" fill="none" xmlns="http://www.w3.org/2000/svg">
<path d="M72.3009 113.217C56.987 120.031 43.7478 127.622 34.8815 134.243C30.4482 137.554 27.1102 140.646 25.2176 143.083C24.2715 144.301 23.7025 145.352 23.4749 146.048C23.2473 146.745 23.3274 146.958 23.3688 147.051C23.4103 147.145 23.5155 147.347 24.185 147.644C24.8545 147.941 26.0163 148.222 27.5546 148.335C30.6315 148.56 35.1635 148.151 40.5907 147.075C42.1401 146.768 43.7712 146.401 45.4611 145.99C46.2376 144.324 49.9725 141.458 55.9907 137.91C62.0089 134.361 69.9132 130.365 78.2745 126.643C86.6369 122.924 94.8985 119.727 101.566 117.63C108.233 115.534 112.867 114.676 114.628 115.213C116.06 114.236 117.419 113.273 118.681 112.33C123.114 109.02 126.452 105.927 128.345 103.491C129.291 102.273 129.86 101.222 130.087 100.525C130.315 99.8288 130.235 99.6151 130.193 99.522C130.152 99.4286 130.047 99.2261 129.377 98.9292C128.708 98.6324 127.546 98.3511 126.008 98.2383C122.931 98.0129 118.399 98.4219 112.972 99.4986C102.117 101.652 87.6148 106.404 72.3009 113.217ZM23.431 153.461L25.642 190.359L25.6426 190.39C25.6816 191.407 25.9068 191.792 26.5473 192.313C27.1879 192.833 28.445 193.379 30.3284 193.662C34.0947 194.23 40.1044 193.739 47.2932 192.247C61.6707 189.265 80.8994 182.468 99.442 174.218C117.985 165.968 135.907 156.235 147.748 147.552C153.669 143.211 158.057 139.075 160.157 135.898C161.207 134.309 161.644 133.011 161.686 132.186C161.728 131.361 161.593 130.936 160.863 130.227L160.841 130.205L134.914 103.86C134.39 104.923 133.707 105.962 132.886 107.018C130.459 110.143 126.808 113.438 122.122 116.937C112.751 123.936 99.2344 131.653 83.5989 138.61C67.9633 145.567 53.1815 150.44 41.7091 152.715C35.9727 153.853 31.0804 154.359 27.1342 154.07C25.8002 153.972 24.5707 153.784 23.431 153.461Z" fill="#FFB0C5"/>
</svg>
