<svg width="1966" height="328" viewBox="0 0 1966 328" fill="none" xmlns="http://www.w3.org/2000/svg">
<path fill-rule="evenodd" clip-rule="evenodd" d="M0 0L65.5333 13.6667C131.067 27.3333 262.133 54.6667 393.2 102.5C524.267 150.333 655.333 218.667 786.4 232.333C917.467 246 1048.53 205 1179.6 177.667C1310.67 150.333 1441.73 136.667 1572.8 157.167C1703.87 177.667 1834.93 232.333 1900.47 259.667L1966 287V328H1900.47C1834.93 328 1703.87 328 1572.8 328C1441.73 328 1310.67 328 1179.6 328C1048.53 328 917.467 328 786.4 328C655.333 328 524.267 328 393.2 328C262.133 328 131.067 328 65.5333 328H0V0Z" fill="#59C9DE"/>
</svg>
