<svg width="1920" height="2684" viewBox="0 0 1920 2684" fill="none" xmlns="http://www.w3.org/2000/svg">
<g clip-path="url(#clip0_407_1217)">
<rect width="1920" height="2684" fill="#9CDFEB"/>
<path d="M184.538 219.807C185.174 217.49 184.864 215.014 183.675 212.925C182.486 210.836 180.516 209.305 178.198 208.669L160.72 203.87L163.119 195.131L154.38 192.732L151.981 201.471L117.024 191.874L119.423 183.135L110.684 180.736L108.285 189.475L90.8066 184.676C88.4889 184.04 86.0133 184.35 83.9244 185.539C81.8355 186.728 80.3045 188.698 79.6682 191.016L55.6753 278.407C55.039 280.725 55.3494 283.201 56.5384 285.289C57.7273 287.378 59.6974 288.909 62.0151 289.546L79.4934 294.344L81.8927 285.605L64.4144 280.807L88.4073 193.415L105.886 198.214L103.486 206.953L112.225 209.352L114.625 200.613L149.581 210.21L147.182 218.949L155.921 221.349L158.32 212.61L175.799 217.408L168.601 243.626L177.34 246.025L184.538 219.807Z" fill="#59C9DE" fill-opacity="0.6"/>
<path d="M143.156 250.736L148.37 275.371L171.239 285.366L149.15 297.364L147.009 322.278L128.235 305.085L103.313 310.281L114.193 287.767L101.326 266.172L126.745 269.434L143.156 250.736Z" fill="#59C9DE" fill-opacity="0.6"/>
<path d="M1821.54 223.807C1822.17 221.49 1821.86 219.014 1820.67 216.925C1819.49 214.836 1817.52 213.305 1815.2 212.669L1797.72 207.87L1800.12 199.131L1791.38 196.732L1788.98 205.471L1754.02 195.874L1756.42 187.135L1747.68 184.736L1745.28 193.475L1727.81 188.676C1725.49 188.04 1723.01 188.35 1720.92 189.539C1718.84 190.728 1717.3 192.698 1716.67 195.016L1692.68 282.407C1692.04 284.725 1692.35 287.201 1693.54 289.289C1694.73 291.378 1696.7 292.909 1699.02 293.546L1716.49 298.344L1718.89 289.605L1701.41 284.807L1725.41 197.415L1742.89 202.214L1740.49 210.953L1749.23 213.352L1751.62 204.613L1786.58 214.21L1784.18 222.949L1792.92 225.349L1795.32 216.61L1812.8 221.408L1805.6 247.626L1814.34 250.025L1821.54 223.807Z" fill="#59C9DE" fill-opacity="0.6"/>
<path d="M1780.16 254.736L1785.37 279.371L1808.24 289.366L1786.15 301.364L1784.01 326.278L1765.23 309.085L1740.31 314.281L1751.19 291.767L1738.33 270.172L1763.74 273.434L1780.16 254.736Z" fill="#59C9DE" fill-opacity="0.6"/>
<path fill-rule="evenodd" clip-rule="evenodd" d="M50.7325 451.699C56.9085 445.646 64.8586 440.345 74.8914 436.315C84.9269 432.284 94.3345 430.612 102.979 430.712L103.021 430.711C112.456 430.799 121.737 433.108 130.113 437.452C144.393 444.846 154.22 457.072 158.534 467.812C161.449 475.068 164.473 488.403 156.383 499.362C156.982 500.722 157.564 502.103 158.128 503.507L158.183 503.644C159.696 507.412 163.381 516.578 160.079 527.346C156.672 538.461 146.442 549.556 124 558.571C101.557 567.586 86.4949 566.65 76.3459 560.98C66.5118 555.487 62.8329 546.32 61.3195 542.553L61.2646 542.416C60.7013 541.014 60.1651 539.613 59.6558 538.213C46.237 535.897 39.1934 524.177 36.2775 516.918C31.9634 506.178 30.6032 490.553 35.8014 475.339C38.8451 466.408 43.9498 458.32 50.7021 451.729L50.7325 451.699ZM68.9225 530.482C63.6398 515.78 61.4401 497.412 60.6132 482.355C60.1971 474.797 60.1302 468.192 60.1675 463.481C60.1844 461.319 60.2244 459.556 60.2631 458.292C65.155 453.884 71.3493 449.952 79.1158 446.832C86.8797 443.713 94.072 442.265 100.655 442.067C101.557 442.953 102.802 444.197 104.311 445.749C107.593 449.124 112.112 453.944 117.04 459.689C126.853 471.136 137.976 485.926 144.346 500.195C144.42 500.419 144.508 500.639 144.61 500.852C145.66 503.076 146.66 505.37 147.611 507.732C149.047 511.307 151.326 517.231 149.242 524.023C147.226 530.61 140.507 539.73 119.777 548.057C99.0457 556.384 87.8846 554.443 81.8739 551.087C75.6688 547.619 73.2185 541.77 71.7812 538.192C70.8321 535.829 69.9695 533.481 69.1934 531.149C69.1155 530.92 69.0252 530.697 68.9225 530.482ZM78.0179 488.148C76.6233 488.709 75.5083 489.8 74.9183 491.182C74.3283 492.564 74.3116 494.124 74.8718 495.519L75.8919 498.059C76.4521 499.453 77.5434 500.568 78.9256 501.158C80.3078 501.748 81.8678 501.765 83.2624 501.205C84.657 500.645 85.772 499.553 86.362 498.171C86.952 496.789 86.9687 495.229 86.4085 493.834L85.3884 491.295C84.8282 489.9 83.7369 488.785 82.3547 488.195C80.9725 487.605 79.4125 487.588 78.0179 488.148ZM108.49 475.908C109.884 475.348 111.444 475.365 112.827 475.955C114.209 476.545 115.3 477.66 115.86 479.054L116.88 481.594C117.441 482.989 117.424 484.549 116.834 485.931C116.244 487.313 115.129 488.404 113.734 488.965C112.34 489.525 110.78 489.508 109.397 488.918C108.015 488.328 106.924 487.213 106.364 485.819L105.344 483.279C104.783 481.884 104.8 480.324 105.39 478.942C105.98 477.56 107.095 476.468 108.49 475.908ZM114.906 520.729C114.835 520.553 114.756 520.381 114.668 520.213C115.244 519.382 115.741 518.499 116.152 517.575C117.519 514.516 118.093 510.7 116.673 507.167L116.648 507.104C116.597 506.991 116.539 506.882 116.474 506.777C116.326 506.541 116.154 506.322 115.961 506.122C115.325 505.487 114.541 505.021 113.679 504.767C111.547 504.096 108.225 504.188 102.998 506.288C97.7769 508.385 95.3126 510.611 94.2368 512.57C93.1254 514.592 93.6137 516.097 93.7278 516.381C95.1472 519.914 98.2049 522.274 101.309 523.54C102.251 523.925 103.231 524.221 104.205 524.419C104.257 524.598 104.318 524.776 104.389 524.953L106.791 530.932C106.265 532.071 104.946 533.499 102.522 534.472C99.364 535.741 97.0256 535.156 96.1484 534.379C95.0195 533.412 93.5559 532.928 92.0731 533.03C90.5903 533.132 89.2069 533.812 88.2212 534.925C87.2354 536.037 86.7262 537.493 86.8033 538.977C86.8804 540.461 87.5376 541.856 88.6333 542.86C93.9931 547.614 101.477 547.105 106.746 544.989C110.011 543.677 113.461 541.333 115.754 538.042C119.686 538.832 123.799 538.139 127.064 536.827C132.333 534.711 138.087 529.902 138.671 522.761C138.745 522.012 138.67 521.256 138.449 520.537C138.228 519.818 137.866 519.151 137.384 518.573C136.902 517.995 136.31 517.519 135.642 517.173C134.975 516.826 134.245 516.616 133.495 516.555C132.746 516.493 131.991 516.582 131.276 516.815C130.561 517.048 129.899 517.421 129.33 517.913C128.76 518.404 128.294 519.004 127.959 519.677C127.624 520.351 127.426 521.084 127.377 521.835C127.282 523.003 125.997 525.042 122.84 526.311C120.416 527.285 118.475 527.166 117.307 526.707L114.906 520.729Z" fill="#59C9DE" fill-opacity="0.6"/>
<path fill-rule="evenodd" clip-rule="evenodd" d="M1710.8 788.017C1710.12 789.752 1709.57 791.435 1709.14 793.065C1708.8 794.309 1708.13 795.437 1707.2 796.331C1706.27 797.225 1705.12 797.85 1703.86 798.14L1689.03 801.485C1688.54 801.574 1688.07 801.773 1687.66 802.066C1687.25 802.359 1686.91 802.739 1686.66 803.179C1678.4 819.201 1676.51 833.718 1680.45 846.441C1684.39 859.2 1694.62 871.447 1713.13 882.072C1731.65 892.697 1747.38 895.333 1760.39 892.308C1773.36 889.292 1784.94 880.337 1794.6 865.115C1794.86 864.682 1795.02 864.198 1795.06 863.696C1795.11 863.195 1795.04 862.689 1794.87 862.217L1790.27 847.733C1789.89 846.498 1789.85 845.183 1790.15 843.928C1790.46 842.672 1791.1 841.524 1792.01 840.606C1793.11 839.479 1794.21 838.242 1795.32 836.893C1794.78 835.217 1794.11 833.586 1793.31 832.015C1791.51 828.459 1789.47 825.028 1787.21 821.742C1783.07 815.616 1778.45 809.827 1773.4 804.429C1772.85 804.072 1772.35 803.638 1771.93 803.138C1772.02 803.224 1772.01 803.219 1771.9 803.121C1771.37 802.625 1768.4 799.784 1762.35 796.31C1756.3 792.841 1752.33 791.711 1751.64 791.51C1751.5 791.475 1751.49 791.469 1751.61 791.493C1750.82 791.354 1750.05 791.075 1749.36 790.669C1743.65 789.298 1735.44 788.031 1727.5 787.495C1723.14 787.209 1719.02 787.156 1715.55 787.408C1713.95 787.501 1712.37 787.698 1710.8 788.017ZM1828.24 805.253C1831.39 797.279 1828.14 788.164 1821.03 784.163C1818.39 782.609 1815.37 781.831 1812.3 781.919C1798.25 782.152 1787.78 786.016 1778.35 790.052C1775.52 787.829 1772.52 785.817 1769.39 784.034C1765.37 781.725 1761.94 780.191 1759.35 779.186C1758.06 769.002 1756.12 757.99 1749.21 745.704C1747.78 743.09 1745.66 740.917 1743.08 739.418C1736.06 735.402 1726.64 737.214 1721.38 743.926C1715.8 751.04 1709.6 759.731 1704.53 768.628C1702.46 772.239 1700.6 775.893 1699.03 779.467L1698.96 779.645C1698.13 781.53 1697.4 783.4 1696.75 785.255L1685.93 787.69C1683.42 788.234 1681.06 789.322 1679.02 790.878C1676.98 792.433 1675.3 794.418 1674.11 796.692C1664.64 815.011 1661.61 833.411 1666.94 850.623C1672.28 867.81 1685.53 882.537 1706.1 894.338C1726.66 906.14 1746.06 910.161 1763.59 906.094C1781.15 902.002 1795.5 890.1 1806.53 872.692C1807.89 870.513 1808.75 868.065 1809.07 865.519C1809.38 862.972 1809.13 860.388 1808.34 857.947L1804.99 847.36C1814.66 836.072 1822.84 818.915 1828.24 805.243M1734.28 814.875C1735.21 813.248 1735.46 811.318 1734.97 809.508C1734.48 807.697 1733.29 806.156 1731.67 805.223C1730.04 804.29 1728.11 804.041 1726.3 804.531C1724.49 805.021 1722.95 806.21 1722.01 807.837L1719.25 812.645C1718.32 814.271 1718.07 816.202 1718.56 818.012C1719.05 819.822 1720.24 821.364 1721.87 822.297C1723.5 823.23 1725.43 823.479 1727.24 822.989C1729.05 822.499 1730.59 821.31 1731.52 819.683L1734.28 814.875ZM1770.13 827.295C1773.52 829.237 1774.69 833.561 1772.75 836.947L1769.99 841.755C1769.05 843.381 1767.51 844.571 1765.7 845.061C1763.89 845.551 1761.96 845.302 1760.33 844.369C1758.71 843.435 1757.52 841.894 1757.03 840.084C1756.54 838.274 1756.79 836.343 1757.72 834.717L1760.48 829.908C1762.42 826.523 1766.75 825.352 1770.13 827.295ZM1724.22 848.653C1723.05 845.441 1722.58 842.014 1722.85 838.606C1722.99 837.389 1723.42 836.223 1724.11 835.208C1724.8 834.194 1725.72 833.361 1726.8 832.781C1728.47 831.898 1730.4 831.642 1732.25 832.06C1734.13 832.487 1736.98 833.421 1740.04 835.178C1743.1 836.934 1745.36 838.934 1746.67 840.337C1747.7 841.45 1748.72 843.18 1748.8 845.405C1748.88 847.802 1747.83 850.199 1745.76 851.748C1742.95 853.703 1739.76 855.031 1736.4 855.64C1736.31 856.046 1736.33 857.349 1737.45 858.655C1737.93 859.231 1738.57 859.662 1739.28 859.9C1740.27 860.18 1741.32 860.161 1742.3 859.845C1744.11 859.355 1746.04 859.604 1747.67 860.537C1749.29 861.471 1750.48 863.012 1750.97 864.823C1751.46 866.633 1751.21 868.564 1750.28 870.191C1749.35 871.817 1747.8 873.007 1745.99 873.497C1737.96 875.672 1730.99 872.819 1726.75 867.893C1725.58 866.527 1724.61 865.005 1723.87 863.369C1722.06 863.56 1720.24 863.491 1718.51 863.163C1712.11 861.986 1706.13 857.406 1703.96 849.376C1703.71 848.479 1703.65 847.544 1703.77 846.623C1703.89 845.702 1704.19 844.813 1704.65 844.008C1705.11 843.202 1705.73 842.496 1706.46 841.928C1707.2 841.361 1708.04 840.944 1708.93 840.701C1709.83 840.458 1710.77 840.395 1711.69 840.513C1712.61 840.632 1713.5 840.931 1714.3 841.393C1715.11 841.856 1715.81 842.472 1716.38 843.207C1716.95 843.942 1717.37 844.782 1717.61 845.679C1717.83 846.683 1718.34 847.6 1719.08 848.312C1719.64 848.804 1720.3 849.12 1721.08 849.263C1722.78 849.583 1723.92 848.934 1724.22 848.653Z" fill="#59C9DE" fill-opacity="0.6"/>
<path d="M2.97214 847.047C30.4995 863.64 66.4525 854.73 83.0456 827.203C99.6387 799.675 90.7286 763.722 63.2013 747.129C35.6739 730.536 -0.279074 739.446 -16.8722 766.974L-46.9868 816.932L-36.995 822.955L-24.8588 802.822C-23.0643 820.523 -13.3644 837.2 2.97214 847.047ZM34.0093 835.106C9.2297 820.169 1.21258 787.819 16.1494 763.039C18.8898 758.493 22.2694 754.468 26.2383 750.935L27.1088 750.847C10.7982 782.086 20.3831 820.762 49.394 840.769L48.583 841.098C43.4735 839.857 38.5556 837.846 34.0093 835.106ZM65.1991 763.25C56.1068 772.345 44.0409 777.673 31.0342 778.346C31.7723 769.664 34.341 760.996 39.1293 753.052C39.5509 752.353 40.0724 751.714 40.544 751.044C46.2544 751.967 51.8827 753.929 57.1284 757.091C60.076 758.868 62.7628 760.964 65.1491 763.22L65.1991 763.25ZM61.1321 834.291C60.4327 833.869 59.673 833.547 58.9736 833.126C52.9785 829.512 47.8958 824.95 43.7548 819.729C57.8142 816.088 70.3776 808.13 79.6761 796.973C79.7086 805.471 77.4114 813.816 73.034 821.1C69.8719 826.345 65.7812 830.759 61.1622 834.241L61.1321 834.291ZM76.7577 780.911C76.5168 781.31 76.3258 781.74 76.0849 782.14C67.4722 796.428 53.3065 806.143 36.9435 809.221C33.9146 803.172 31.9972 796.636 31.2405 789.981C46.8684 789.253 61.4371 783.05 72.5634 772.389C74.2585 775.113 75.6833 777.947 76.7577 780.911ZM4.26998 760.374C-10.7648 789.045 -1.98407 824.648 24.7295 842.93C19.2593 841.948 13.941 840.037 8.89514 836.995C-13.1367 823.714 -20.2609 794.968 -6.98034 772.936C-3.96888 767.94 -0.12866 763.716 4.25014 760.294L4.26998 760.374Z" fill="#59C9DE" fill-opacity="0.79"/>
<path d="M1627.12 239.928C1637.57 209.533 1621.32 176.247 1590.93 165.795C1560.53 155.344 1527.25 171.595 1516.79 201.989C1506.34 232.384 1522.59 265.669 1552.99 276.121L1608.15 295.09L1611.95 284.058L1589.71 276.413C1606.65 270.947 1620.92 257.966 1627.12 239.928ZM1608.94 212.084C1599.53 239.445 1569.58 254.068 1542.22 244.659C1537.2 242.933 1532.55 240.472 1528.27 237.332L1528 236.5C1561.96 245.897 1597.77 228.415 1611.25 195.854L1611.74 196.578C1611.6 201.834 1610.66 207.065 1608.94 212.084ZM1532.14 196.656C1542.94 203.639 1550.68 214.319 1554.06 226.895C1545.42 227.994 1536.4 227.3 1527.63 224.284C1526.86 224.019 1526.13 223.643 1525.37 223.322C1525.08 217.545 1525.82 211.63 1527.81 205.838C1528.93 202.584 1530.41 199.517 1532.12 196.711L1532.14 196.656ZM1602.45 185.735C1602.19 186.508 1602.03 187.318 1601.77 188.09C1599.49 194.71 1596.09 200.636 1591.86 205.78C1585.35 192.797 1574.93 182.181 1562.08 175.429C1570.38 173.615 1579.02 174.112 1587.06 176.864C1592.85 178.856 1598.02 181.93 1602.4 185.717L1602.45 185.735ZM1546.98 181.651C1547.42 181.802 1547.88 181.899 1548.33 182.051C1564.1 187.476 1576.57 199.289 1583.01 214.643C1577.73 218.873 1571.74 222.119 1565.4 224.254C1561.41 209.126 1552.29 196.182 1539.53 187.539C1541.84 185.31 1544.31 183.322 1546.98 181.651ZM1542.1 256.833C1573.29 265.522 1606.26 249.47 1618.53 219.517C1618.72 225.072 1617.97 230.673 1616.05 236.244C1607.68 260.571 1581.07 273.565 1556.74 265.199C1551.23 263.302 1546.29 260.433 1542.03 256.869L1542.1 256.833Z" fill="#59C9DE" fill-opacity="0.79"/>
<path d="M88.4928 995.677C87.9825 996.678 79.3066 1013.44 66.8029 1006.18C51.78 997.468 64.3576 971.815 73.4375 963.655C82.6239 955.399 125.238 976.164 108.907 994.676C105.845 997.928 97.2709 999.48 88.4928 995.677Z" fill="#59C9DE" fill-opacity="0.79"/>
<ellipse cx="10.4756" cy="15.7947" rx="10.4756" ry="15.7947" transform="matrix(0.946579 0.322472 -0.334072 0.942547 109.168 929.769)" fill="#59C9DE" fill-opacity="0.79"/>
<ellipse cx="10.4963" cy="15.7624" rx="10.4963" ry="15.7624" transform="matrix(0.996993 -0.0774918 0.0806028 0.996746 71.4512 918.627)" fill="#59C9DE" fill-opacity="0.79"/>
<ellipse cx="10.6044" cy="14.8562" rx="10.6044" ry="14.8562" transform="matrix(0.766789 -0.641899 0.656772 0.754089 35.8418 943.383)" fill="#59C9DE" fill-opacity="0.79"/>
<ellipse cx="10.5357" cy="14.9523" rx="10.5357" ry="14.9523" transform="matrix(0.509013 -0.860759 0.869379 0.494146 19 976.426)" fill="#59C9DE" fill-opacity="0.79"/>
<path d="M741.035 228.587C739.92 228.722 721.171 230.888 720.205 216.464C719.045 199.134 747.348 195.239 759.188 198.213C771.167 201.222 777.745 248.168 753.267 244.961C748.859 244.237 742.784 237.992 741.035 228.587Z" fill="#59C9DE" fill-opacity="0.79"/>
<ellipse cx="10.4756" cy="15.7947" rx="10.4756" ry="15.7947" transform="matrix(0.26121 0.965282 -0.968417 0.249337 807.252 208.925)" fill="#59C9DE" fill-opacity="0.79"/>
<ellipse cx="10.4963" cy="15.7624" rx="10.4963" ry="15.7624" transform="matrix(0.621132 0.783706 -0.781764 0.623574 795.43 171.416)" fill="#59C9DE" fill-opacity="0.79"/>
<ellipse cx="10.6044" cy="14.8562" rx="10.6044" ry="14.8562" transform="matrix(0.960721 0.277517 -0.258675 0.965964 755.004 155.706)" fill="#59C9DE" fill-opacity="0.79"/>
<ellipse cx="10.5357" cy="14.9523" rx="10.5357" ry="14.9523" transform="matrix(0.998285 -0.0585449 0.075692 0.997131 718.189 160.192)" fill="#59C9DE" fill-opacity="0.79"/>
<path d="M188.333 686.942C187.279 687.329 169.519 693.718 165.285 679.896C160.198 663.289 186.864 653.034 199.07 653.226C211.42 653.42 228.544 697.623 203.981 700.09C199.525 700.392 192.183 695.699 188.333 686.942Z" fill="#59C9DE" fill-opacity="0.79"/>
<ellipse cx="10.4756" cy="15.7947" rx="10.4756" ry="15.7947" transform="matrix(0.474739 0.880126 -0.88589 0.463895 248.311 652.678)" fill="#59C9DE" fill-opacity="0.79"/>
<ellipse cx="10.4963" cy="15.7624" rx="10.4963" ry="15.7624" transform="matrix(0.783686 0.621157 -0.618709 0.785621 228.234 618.86)" fill="#59C9DE" fill-opacity="0.79"/>
<ellipse cx="10.6044" cy="14.8562" rx="10.6044" ry="14.8562" transform="matrix(0.998709 0.0507944 -0.0312528 0.999511 185.289 612.797)" fill="#59C9DE" fill-opacity="0.79"/>
<ellipse cx="10.5357" cy="14.9523" rx="10.5357" ry="14.9523" transform="matrix(0.958538 -0.284966 0.301396 0.953499 150.473 625.571)" fill="#59C9DE" fill-opacity="0.79"/>
<path d="M184.538 1151.81C185.174 1149.49 184.864 1147.01 183.675 1144.93C182.486 1142.84 180.516 1141.31 178.198 1140.67L160.72 1135.87L163.119 1127.13L154.38 1124.73L151.981 1133.47L117.024 1123.87L119.423 1115.13L110.684 1112.74L108.285 1121.47L90.8066 1116.68C88.4889 1116.04 86.0133 1116.35 83.9244 1117.54C81.8355 1118.73 80.3045 1120.7 79.6682 1123.02L55.6753 1210.41C55.039 1212.72 55.3494 1215.2 56.5384 1217.29C57.7273 1219.38 59.6974 1220.91 62.0151 1221.55L79.4934 1226.34L81.8927 1217.61L64.4144 1212.81L88.4073 1125.42L105.886 1130.21L103.486 1138.95L112.225 1141.35L114.625 1132.61L149.581 1142.21L147.182 1150.95L155.921 1153.35L158.32 1144.61L175.799 1149.41L168.601 1175.63L177.34 1178.02L184.538 1151.81Z" fill="#59C9DE" fill-opacity="0.6"/>
<path d="M143.156 1182.74L148.37 1207.37L171.239 1217.37L149.15 1229.36L147.009 1254.28L128.235 1237.08L103.313 1242.28L114.193 1219.77L101.326 1198.17L126.745 1201.43L143.156 1182.74Z" fill="#59C9DE" fill-opacity="0.6"/>
<path fill-rule="evenodd" clip-rule="evenodd" d="M50.7325 1383.7C56.9085 1377.65 64.8586 1372.35 74.8914 1368.32C84.9269 1364.28 94.3345 1362.61 102.979 1362.71L103.021 1362.71C112.456 1362.8 121.737 1365.11 130.113 1369.45C144.393 1376.85 154.22 1389.07 158.534 1399.81C161.449 1407.07 164.473 1420.4 156.383 1431.36C156.982 1432.72 157.564 1434.1 158.128 1435.51L158.183 1435.64C159.696 1439.41 163.381 1448.58 160.079 1459.35C156.672 1470.46 146.442 1481.56 124 1490.57C101.557 1499.59 86.4949 1498.65 76.3459 1492.98C66.5118 1487.49 62.8329 1478.32 61.3195 1474.55L61.2646 1474.42C60.7013 1473.01 60.1651 1471.61 59.6558 1470.21C46.237 1467.9 39.1934 1456.18 36.2775 1448.92C31.9634 1438.18 30.6032 1422.55 35.8014 1407.34C38.8451 1398.41 43.9498 1390.32 50.7021 1383.73L50.7325 1383.7ZM68.9225 1462.48C63.6398 1447.78 61.4401 1429.41 60.6132 1414.36C60.1971 1406.8 60.1302 1400.19 60.1675 1395.48C60.1844 1393.32 60.2244 1391.56 60.2631 1390.29C65.155 1385.88 71.3493 1381.95 79.1158 1378.83C86.8797 1375.71 94.072 1374.27 100.655 1374.07C101.557 1374.95 102.802 1376.2 104.311 1377.75C107.593 1381.12 112.112 1385.94 117.04 1391.69C126.853 1403.14 137.976 1417.93 144.346 1432.19C144.42 1432.42 144.508 1432.64 144.61 1432.85C145.66 1435.08 146.66 1437.37 147.611 1439.73C149.047 1443.31 151.326 1449.23 149.242 1456.02C147.226 1462.61 140.507 1471.73 119.777 1480.06C99.0457 1488.38 87.8846 1486.44 81.8739 1483.09C75.6688 1479.62 73.2185 1473.77 71.7812 1470.19C70.8321 1467.83 69.9695 1465.48 69.1934 1463.15C69.1155 1462.92 69.0252 1462.7 68.9225 1462.48ZM78.0179 1420.15C76.6233 1420.71 75.5083 1421.8 74.9183 1423.18C74.3283 1424.56 74.3116 1426.12 74.8718 1427.52L75.8919 1430.06C76.4521 1431.45 77.5434 1432.57 78.9256 1433.16C80.3078 1433.75 81.8678 1433.76 83.2624 1433.2C84.657 1432.64 85.772 1431.55 86.362 1430.17C86.952 1428.79 86.9687 1427.23 86.4085 1425.83L85.3884 1423.29C84.8282 1421.9 83.7369 1420.78 82.3547 1420.19C80.9725 1419.6 79.4125 1419.59 78.0179 1420.15ZM108.49 1407.91C109.884 1407.35 111.444 1407.36 112.827 1407.95C114.209 1408.54 115.3 1409.66 115.86 1411.05L116.88 1413.59C117.441 1414.99 117.424 1416.55 116.834 1417.93C116.244 1419.31 115.129 1420.4 113.734 1420.96C112.34 1421.52 110.78 1421.51 109.397 1420.92C108.015 1420.33 106.924 1419.21 106.364 1417.82L105.344 1415.28C104.783 1413.88 104.8 1412.32 105.39 1410.94C105.98 1409.56 107.095 1408.47 108.49 1407.91ZM114.906 1452.73C114.835 1452.55 114.756 1452.38 114.668 1452.21C115.244 1451.38 115.741 1450.5 116.152 1449.57C117.519 1446.52 118.093 1442.7 116.673 1439.17L116.648 1439.1C116.597 1438.99 116.539 1438.88 116.474 1438.78C116.326 1438.54 116.154 1438.32 115.961 1438.12C115.325 1437.49 114.541 1437.02 113.679 1436.77C111.547 1436.1 108.225 1436.19 102.998 1438.29C97.7769 1440.38 95.3126 1442.61 94.2368 1444.57C93.1254 1446.59 93.6137 1448.1 93.7278 1448.38C95.1472 1451.91 98.2049 1454.27 101.309 1455.54C102.251 1455.92 103.231 1456.22 104.205 1456.42C104.257 1456.6 104.318 1456.78 104.389 1456.95L106.791 1462.93C106.265 1464.07 104.946 1465.5 102.522 1466.47C99.364 1467.74 97.0256 1467.16 96.1484 1466.38C95.0195 1465.41 93.5559 1464.93 92.0731 1465.03C90.5903 1465.13 89.2069 1465.81 88.2212 1466.92C87.2354 1468.04 86.7262 1469.49 86.8033 1470.98C86.8804 1472.46 87.5376 1473.86 88.6333 1474.86C93.9931 1479.61 101.477 1479.11 106.746 1476.99C110.011 1475.68 113.461 1473.33 115.754 1470.04C119.686 1470.83 123.799 1470.14 127.064 1468.83C132.333 1466.71 138.087 1461.9 138.671 1454.76C138.745 1454.01 138.67 1453.26 138.449 1452.54C138.228 1451.82 137.866 1451.15 137.384 1450.57C136.902 1450 136.31 1449.52 135.642 1449.17C134.975 1448.83 134.245 1448.62 133.495 1448.55C132.746 1448.49 131.991 1448.58 131.276 1448.81C130.561 1449.05 129.899 1449.42 129.33 1449.91C128.76 1450.4 128.294 1451 127.959 1451.68C127.624 1452.35 127.426 1453.08 127.377 1453.83C127.282 1455 125.997 1457.04 122.84 1458.31C120.416 1459.28 118.475 1459.17 117.307 1458.71L114.906 1452.73Z" fill="#59C9DE" fill-opacity="0.6"/>
<path d="M2.97214 1779.05C30.4995 1795.64 66.4525 1786.73 83.0456 1759.2C99.6387 1731.68 90.7286 1695.72 63.2013 1679.13C35.6739 1662.54 -0.279074 1671.45 -16.8722 1698.97L-46.9868 1748.93L-36.995 1754.96L-24.8588 1734.82C-23.0643 1752.52 -13.3644 1769.2 2.97214 1779.05ZM34.0093 1767.11C9.2297 1752.17 1.21258 1719.82 16.1494 1695.04C18.8898 1690.49 22.2694 1686.47 26.2383 1682.94L27.1088 1682.85C10.7982 1714.09 20.3831 1752.76 49.394 1772.77L48.583 1773.1C43.4735 1771.86 38.5556 1769.85 34.0093 1767.11ZM65.1991 1695.25C56.1068 1704.34 44.0409 1709.67 31.0342 1710.35C31.7723 1701.66 34.341 1693 39.1293 1685.05C39.5509 1684.35 40.0724 1683.71 40.544 1683.04C46.2544 1683.97 51.8827 1685.93 57.1284 1689.09C60.076 1690.87 62.7628 1692.96 65.1491 1695.22L65.1991 1695.25ZM61.1321 1766.29C60.4327 1765.87 59.673 1765.55 58.9736 1765.13C52.9785 1761.51 47.8958 1756.95 43.7548 1751.73C57.8142 1748.09 70.3776 1740.13 79.6761 1728.97C79.7086 1737.47 77.4114 1745.82 73.034 1753.1C69.8719 1758.35 65.7812 1762.76 61.1622 1766.24L61.1321 1766.29ZM76.7577 1712.91C76.5168 1713.31 76.3258 1713.74 76.0849 1714.14C67.4722 1728.43 53.3065 1738.14 36.9435 1741.22C33.9146 1735.17 31.9972 1728.64 31.2405 1721.98C46.8684 1721.25 61.4371 1715.05 72.5634 1704.39C74.2585 1707.11 75.6833 1709.95 76.7577 1712.91ZM4.26998 1692.37C-10.7648 1721.04 -1.98407 1756.65 24.7295 1774.93C19.2593 1773.95 13.941 1772.04 8.89514 1768.99C-13.1367 1755.71 -20.2609 1726.97 -6.98034 1704.94C-3.96888 1699.94 -0.12866 1695.72 4.25014 1692.29L4.26998 1692.37Z" fill="#59C9DE" fill-opacity="0.79"/>
<path d="M88.4928 1927.68C87.9825 1928.68 79.3066 1945.44 66.8029 1938.18C51.78 1929.47 64.3576 1903.81 73.4375 1895.65C82.6239 1887.4 125.238 1908.16 108.907 1926.68C105.845 1929.93 97.2709 1931.48 88.4928 1927.68Z" fill="#59C9DE" fill-opacity="0.79"/>
<ellipse cx="10.4756" cy="15.7947" rx="10.4756" ry="15.7947" transform="matrix(0.946579 0.322472 -0.334072 0.942547 109.168 1861.77)" fill="#59C9DE" fill-opacity="0.79"/>
<ellipse cx="10.4963" cy="15.7624" rx="10.4963" ry="15.7624" transform="matrix(0.996993 -0.0774918 0.0806028 0.996746 71.4512 1850.63)" fill="#59C9DE" fill-opacity="0.79"/>
<ellipse cx="10.6044" cy="14.8562" rx="10.6044" ry="14.8562" transform="matrix(0.766789 -0.641899 0.656772 0.754089 35.8418 1875.38)" fill="#59C9DE" fill-opacity="0.79"/>
<ellipse cx="10.5357" cy="14.9523" rx="10.5357" ry="14.9523" transform="matrix(0.509013 -0.860759 0.869379 0.494146 19 1908.43)" fill="#59C9DE" fill-opacity="0.79"/>
<path d="M188.333 1618.94C187.279 1619.33 169.519 1625.72 165.285 1611.9C160.198 1595.29 186.864 1585.03 199.07 1585.23C211.42 1585.42 228.544 1629.62 203.981 1632.09C199.525 1632.39 192.183 1627.7 188.333 1618.94Z" fill="#59C9DE" fill-opacity="0.79"/>
<ellipse cx="10.4756" cy="15.7947" rx="10.4756" ry="15.7947" transform="matrix(0.474739 0.880126 -0.88589 0.463895 248.311 1584.68)" fill="#59C9DE" fill-opacity="0.79"/>
<ellipse cx="10.4963" cy="15.7624" rx="10.4963" ry="15.7624" transform="matrix(0.783686 0.621157 -0.618709 0.785621 228.234 1550.86)" fill="#59C9DE" fill-opacity="0.79"/>
<ellipse cx="10.6044" cy="14.8562" rx="10.6044" ry="14.8562" transform="matrix(0.998709 0.0507944 -0.0312528 0.999511 185.289 1544.8)" fill="#59C9DE" fill-opacity="0.79"/>
<ellipse cx="10.5357" cy="14.9523" rx="10.5357" ry="14.9523" transform="matrix(0.958538 -0.284966 0.301396 0.953499 150.473 1557.57)" fill="#59C9DE" fill-opacity="0.79"/>
<path fill-rule="evenodd" clip-rule="evenodd" d="M1768.73 1910.7C1774.91 1904.65 1782.86 1899.35 1792.89 1895.32C1802.93 1891.28 1812.33 1889.61 1820.98 1889.71L1821.02 1889.71C1830.46 1889.8 1839.74 1892.11 1848.11 1896.45C1862.39 1903.85 1872.22 1916.07 1876.53 1926.81C1879.45 1934.07 1882.47 1947.4 1874.38 1958.36C1874.98 1959.72 1875.56 1961.1 1876.13 1962.51L1876.18 1962.64C1877.7 1966.41 1881.38 1975.58 1878.08 1986.35C1874.67 1997.46 1864.44 2008.56 1842 2017.57C1819.56 2026.59 1804.49 2025.65 1794.35 2019.98C1784.51 2014.49 1780.83 2005.32 1779.32 2001.55L1779.26 2001.42C1778.7 2000.01 1778.17 1998.61 1777.66 1997.21C1764.24 1994.9 1757.19 1983.18 1754.28 1975.92C1749.96 1965.18 1748.6 1949.55 1753.8 1934.34C1756.85 1925.41 1761.95 1917.32 1768.7 1910.73L1768.73 1910.7ZM1786.92 1989.48C1781.64 1974.78 1779.44 1956.41 1778.61 1941.36C1778.2 1933.8 1778.13 1927.19 1778.17 1922.48C1778.18 1920.32 1778.22 1918.56 1778.26 1917.29C1783.16 1912.88 1789.35 1908.95 1797.12 1905.83C1804.88 1902.71 1812.07 1901.27 1818.65 1901.07C1819.56 1901.95 1820.8 1903.2 1822.31 1904.75C1825.59 1908.12 1830.11 1912.94 1835.04 1918.69C1844.85 1930.14 1855.98 1944.93 1862.35 1959.2C1862.42 1959.42 1862.51 1959.64 1862.61 1959.85C1863.66 1962.08 1864.66 1964.37 1865.61 1966.73C1867.05 1970.31 1869.33 1976.23 1867.24 1983.02C1865.23 1989.61 1858.51 1998.73 1837.78 2007.06C1817.05 2015.38 1805.88 2013.44 1799.87 2010.09C1793.67 2006.62 1791.22 2000.77 1789.78 1997.19C1788.83 1994.83 1787.97 1992.48 1787.19 1990.15C1787.12 1989.92 1787.03 1989.7 1786.92 1989.48ZM1796.02 1947.15C1794.62 1947.71 1793.51 1948.8 1792.92 1950.18C1792.33 1951.56 1792.31 1953.12 1792.87 1954.52L1793.89 1957.06C1794.45 1958.45 1795.54 1959.57 1796.93 1960.16C1798.31 1960.75 1799.87 1960.77 1801.26 1960.21C1802.66 1959.64 1803.77 1958.55 1804.36 1957.17C1804.95 1955.79 1804.97 1954.23 1804.41 1952.83L1803.39 1950.29C1802.83 1948.9 1801.74 1947.79 1800.35 1947.2C1798.97 1946.61 1797.41 1946.59 1796.02 1947.15ZM1826.49 1934.91C1827.88 1934.35 1829.44 1934.37 1830.83 1934.96C1832.21 1935.55 1833.3 1936.66 1833.86 1938.05L1834.88 1940.59C1835.44 1941.99 1835.42 1943.55 1834.83 1944.93C1834.24 1946.31 1833.13 1947.4 1831.73 1947.96C1830.34 1948.53 1828.78 1948.51 1827.4 1947.92C1826.02 1947.33 1824.92 1946.21 1824.36 1944.82L1823.34 1942.28C1822.78 1940.88 1822.8 1939.32 1823.39 1937.94C1823.98 1936.56 1825.1 1935.47 1826.49 1934.91ZM1832.91 1979.73C1832.84 1979.55 1832.76 1979.38 1832.67 1979.21C1833.24 1978.38 1833.74 1977.5 1834.15 1976.57C1835.52 1973.52 1836.09 1969.7 1834.67 1966.17L1834.65 1966.1C1834.6 1965.99 1834.54 1965.88 1834.47 1965.78C1834.33 1965.54 1834.15 1965.32 1833.96 1965.12C1833.33 1964.49 1832.54 1964.02 1831.68 1963.77C1829.55 1963.1 1826.23 1963.19 1821 1965.29C1815.78 1967.39 1813.31 1969.61 1812.24 1971.57C1811.13 1973.59 1811.61 1975.1 1811.73 1975.38C1813.15 1978.91 1816.2 1981.27 1819.31 1982.54C1820.25 1982.93 1821.23 1983.22 1822.21 1983.42C1822.26 1983.6 1822.32 1983.78 1822.39 1983.95L1824.79 1989.93C1824.27 1991.07 1822.95 1992.5 1820.52 1993.47C1817.36 1994.74 1815.03 1994.16 1814.15 1993.38C1813.02 1992.41 1811.56 1991.93 1810.07 1992.03C1808.59 1992.13 1807.21 1992.81 1806.22 1993.93C1805.24 1995.04 1804.73 1996.49 1804.8 1997.98C1804.88 1999.46 1805.54 2000.86 1806.63 2001.86C1811.99 2006.61 1819.48 2006.11 1824.75 2003.99C1828.01 2002.68 1831.46 2000.33 1833.75 1997.04C1837.69 1997.83 1841.8 1997.14 1845.06 1995.83C1850.33 1993.71 1856.09 1988.9 1856.67 1981.76C1856.75 1981.01 1856.67 1980.26 1856.45 1979.54C1856.23 1978.82 1855.87 1978.15 1855.38 1977.57C1854.9 1977 1854.31 1976.52 1853.64 1976.17C1852.97 1975.83 1852.24 1975.62 1851.5 1975.56C1850.75 1975.49 1849.99 1975.58 1849.28 1975.82C1848.56 1976.05 1847.9 1976.42 1847.33 1976.91C1846.76 1977.4 1846.29 1978 1845.96 1978.68C1845.62 1979.35 1845.43 1980.08 1845.38 1980.84C1845.28 1982 1844 1984.04 1840.84 1985.31C1838.42 1986.28 1836.48 1986.17 1835.31 1985.71L1832.91 1979.73Z" fill="#59C9DE" fill-opacity="0.6"/>
<path d="M1720.97 2306.05C1748.5 2322.64 1784.45 2313.73 1801.05 2286.2C1817.64 2258.68 1808.73 2222.72 1781.2 2206.13C1753.67 2189.54 1717.72 2198.45 1701.13 2225.97L1671.01 2275.93L1681.01 2281.96L1693.14 2261.82C1694.94 2279.52 1704.64 2296.2 1720.97 2306.05ZM1752.01 2294.11C1727.23 2279.17 1719.21 2246.82 1734.15 2222.04C1736.89 2217.49 1740.27 2213.47 1744.24 2209.94L1745.11 2209.85C1728.8 2241.09 1738.38 2279.76 1767.39 2299.77L1766.58 2300.1C1761.47 2298.86 1756.56 2296.85 1752.01 2294.11ZM1783.2 2222.25C1774.11 2231.35 1762.04 2236.67 1749.03 2237.35C1749.77 2228.66 1752.34 2220 1757.13 2212.05C1757.55 2211.35 1758.07 2210.71 1758.54 2210.04C1764.25 2210.97 1769.88 2212.93 1775.13 2216.09C1778.08 2217.87 1780.76 2219.96 1783.15 2222.22L1783.2 2222.25ZM1779.13 2293.29C1778.43 2292.87 1777.67 2292.55 1776.97 2292.13C1770.98 2288.51 1765.9 2283.95 1761.75 2278.73C1775.81 2275.09 1788.38 2267.13 1797.68 2255.97C1797.71 2264.47 1795.41 2272.82 1791.03 2280.1C1787.87 2285.35 1783.78 2289.76 1779.16 2293.24L1779.13 2293.29ZM1794.76 2239.91C1794.52 2240.31 1794.33 2240.74 1794.08 2241.14C1785.47 2255.43 1771.31 2265.14 1754.94 2268.22C1751.91 2262.17 1750 2255.64 1749.24 2248.98C1764.87 2248.25 1779.44 2242.05 1790.56 2231.39C1792.26 2234.11 1793.68 2236.95 1794.76 2239.91ZM1722.27 2219.37C1707.24 2248.05 1716.02 2283.65 1742.73 2301.93C1737.26 2300.95 1731.94 2299.04 1726.9 2296C1704.86 2282.71 1697.74 2253.97 1711.02 2231.94C1714.03 2226.94 1717.87 2222.72 1722.25 2219.29L1722.27 2219.37Z" fill="#59C9DE" fill-opacity="0.79"/>
<path d="M1806.49 2454.68C1805.98 2455.68 1797.31 2472.44 1784.8 2465.18C1769.78 2456.47 1782.36 2430.82 1791.44 2422.66C1800.62 2414.4 1843.24 2435.16 1826.91 2453.68C1823.84 2456.93 1815.27 2458.48 1806.49 2454.68Z" fill="#59C9DE" fill-opacity="0.79"/>
<ellipse cx="10.4756" cy="15.7947" rx="10.4756" ry="15.7947" transform="matrix(0.946579 0.322472 -0.334072 0.942547 1827.17 2388.77)" fill="#59C9DE" fill-opacity="0.79"/>
<ellipse cx="10.4963" cy="15.7624" rx="10.4963" ry="15.7624" transform="matrix(0.996993 -0.0774918 0.0806028 0.996746 1789.45 2377.63)" fill="#59C9DE" fill-opacity="0.79"/>
<ellipse cx="10.6044" cy="14.8562" rx="10.6044" ry="14.8562" transform="matrix(0.766789 -0.641899 0.656772 0.754089 1753.84 2402.38)" fill="#59C9DE" fill-opacity="0.79"/>
<ellipse cx="10.5357" cy="14.9523" rx="10.5357" ry="14.9523" transform="matrix(0.509013 -0.860759 0.869379 0.494146 1737 2435.43)" fill="#59C9DE" fill-opacity="0.79"/>
<path d="M1906.33 2145.94C1905.28 2146.33 1887.52 2152.72 1883.29 2138.9C1878.2 2122.29 1904.86 2112.03 1917.07 2112.23C1929.42 2112.42 1946.54 2156.62 1921.98 2159.09C1917.52 2159.39 1910.18 2154.7 1906.33 2145.94Z" fill="#59C9DE" fill-opacity="0.79"/>
<ellipse cx="10.6044" cy="14.8562" rx="10.6044" ry="14.8562" transform="matrix(0.998709 0.0507944 -0.0312528 0.999511 1903.29 2071.8)" fill="#59C9DE" fill-opacity="0.79"/>
<ellipse cx="10.5357" cy="14.9523" rx="10.5357" ry="14.9523" transform="matrix(0.958538 -0.284966 0.301396 0.953499 1868.47 2084.57)" fill="#59C9DE" fill-opacity="0.79"/>
<path d="M1768.64 553.802C1767.53 553.922 1748.75 555.819 1747.99 541.383C1747.08 524.038 1775.43 520.548 1787.23 523.692C1799.16 526.872 1805.07 573.907 1780.64 570.35C1776.24 569.563 1770.26 563.231 1768.64 553.802Z" fill="#59C9DE" fill-opacity="0.79"/>
<ellipse cx="10.4756" cy="15.7947" rx="10.4756" ry="15.7947" transform="matrix(0.247364 0.968922 -0.971887 0.235447 1835.14 535.09)" fill="#59C9DE" fill-opacity="0.79"/>
<ellipse cx="10.4963" cy="15.7624" rx="10.4963" ry="15.7624" transform="matrix(0.609848 0.792518 -0.790611 0.612318 1823.85 497.416)" fill="#59C9DE" fill-opacity="0.79"/>
<ellipse cx="10.6044" cy="14.8562" rx="10.6044" ry="14.8562" transform="matrix(0.956649 0.291242 -0.272477 0.962162 1783.66 481.129)" fill="#59C9DE" fill-opacity="0.79"/>
<ellipse cx="10.5357" cy="14.9523" rx="10.5357" ry="14.9523" transform="matrix(0.999021 -0.0442472 0.061409 0.998113 1746.78 485.087)" fill="#59C9DE" fill-opacity="0.79"/>
<path d="M1821.54 1102.81C1822.17 1100.49 1821.86 1098.01 1820.67 1095.93C1819.49 1093.84 1817.52 1092.31 1815.2 1091.67L1797.72 1086.87L1800.12 1078.13L1791.38 1075.73L1788.98 1084.47L1754.02 1074.87L1756.42 1066.13L1747.68 1063.74L1745.28 1072.47L1727.81 1067.68C1725.49 1067.04 1723.01 1067.35 1720.92 1068.54C1718.84 1069.73 1717.3 1071.7 1716.67 1074.02L1692.68 1161.41C1692.04 1163.72 1692.35 1166.2 1693.54 1168.29C1694.73 1170.38 1696.7 1171.91 1699.02 1172.55L1716.49 1177.34L1718.89 1168.61L1701.41 1163.81L1725.41 1076.42L1742.89 1081.21L1740.49 1089.95L1749.23 1092.35L1751.62 1083.61L1786.58 1093.21L1784.18 1101.95L1792.92 1104.35L1795.32 1095.61L1812.8 1100.41L1805.6 1126.63L1814.34 1129.02L1821.54 1102.81Z" fill="#59C9DE" fill-opacity="0.6"/>
<path d="M1780.16 1133.74L1785.37 1158.37L1808.24 1168.37L1786.15 1180.36L1784.01 1205.28L1765.23 1188.08L1740.31 1193.28L1751.19 1170.77L1738.33 1149.17L1763.74 1152.43L1780.16 1133.74Z" fill="#59C9DE" fill-opacity="0.6"/>
<path fill-rule="evenodd" clip-rule="evenodd" d="M1710.8 1667.02C1710.12 1668.75 1709.57 1670.43 1709.14 1672.07C1708.8 1673.31 1708.13 1674.44 1707.2 1675.33C1706.27 1676.22 1705.12 1676.85 1703.86 1677.14L1689.03 1680.49C1688.54 1680.57 1688.07 1680.77 1687.66 1681.07C1687.25 1681.36 1686.91 1681.74 1686.66 1682.18C1678.4 1698.2 1676.51 1712.72 1680.45 1725.44C1684.39 1738.2 1694.62 1750.45 1713.13 1761.07C1731.65 1771.7 1747.38 1774.33 1760.39 1771.31C1773.36 1768.29 1784.94 1759.34 1794.6 1744.12C1794.86 1743.68 1795.02 1743.2 1795.06 1742.7C1795.11 1742.19 1795.04 1741.69 1794.87 1741.22L1790.27 1726.73C1789.89 1725.5 1789.85 1724.18 1790.15 1722.93C1790.46 1721.67 1791.1 1720.52 1792.01 1719.61C1793.11 1718.48 1794.21 1717.24 1795.32 1715.89C1794.78 1714.22 1794.11 1712.59 1793.31 1711.01C1791.51 1707.46 1789.47 1704.03 1787.21 1700.74C1783.07 1694.62 1778.45 1688.83 1773.4 1683.43C1772.85 1683.07 1772.35 1682.64 1771.93 1682.14C1772.02 1682.22 1772.01 1682.22 1771.9 1682.12C1771.37 1681.63 1768.4 1678.78 1762.35 1675.31C1756.3 1671.84 1752.33 1670.71 1751.64 1670.51C1751.5 1670.47 1751.49 1670.47 1751.61 1670.49C1750.82 1670.35 1750.05 1670.08 1749.36 1669.67C1743.65 1668.3 1735.44 1667.03 1727.5 1666.5C1723.14 1666.21 1719.02 1666.16 1715.55 1666.41C1713.95 1666.5 1712.37 1666.7 1710.8 1667.02ZM1828.24 1684.25C1831.39 1676.28 1828.14 1667.16 1821.03 1663.16C1818.39 1661.61 1815.37 1660.83 1812.3 1660.92C1798.25 1661.15 1787.78 1665.02 1778.35 1669.05C1775.52 1666.83 1772.52 1664.82 1769.39 1663.03C1765.37 1660.73 1761.94 1659.19 1759.35 1658.19C1758.06 1648 1756.12 1636.99 1749.21 1624.7C1747.78 1622.09 1745.66 1619.92 1743.08 1618.42C1736.06 1614.4 1726.64 1616.21 1721.38 1622.93C1715.8 1630.04 1709.6 1638.73 1704.53 1647.63C1702.46 1651.24 1700.6 1654.89 1699.03 1658.47L1698.96 1658.64C1698.13 1660.53 1697.4 1662.4 1696.75 1664.26L1685.93 1666.69C1683.42 1667.23 1681.06 1668.32 1679.02 1669.88C1676.98 1671.43 1675.3 1673.42 1674.11 1675.69C1664.64 1694.01 1661.61 1712.41 1666.94 1729.62C1672.28 1746.81 1685.53 1761.54 1706.1 1773.34C1726.66 1785.14 1746.06 1789.16 1763.59 1785.09C1781.15 1781 1795.5 1769.1 1806.53 1751.69C1807.89 1749.51 1808.75 1747.07 1809.07 1744.52C1809.38 1741.97 1809.13 1739.39 1808.34 1736.95L1804.99 1726.36C1814.66 1715.07 1822.84 1697.91 1828.24 1684.24M1734.28 1693.87C1735.21 1692.25 1735.46 1690.32 1734.97 1688.51C1734.48 1686.7 1733.29 1685.16 1731.67 1684.22C1730.04 1683.29 1728.11 1683.04 1726.3 1683.53C1724.49 1684.02 1722.95 1685.21 1722.01 1686.84L1719.25 1691.64C1718.32 1693.27 1718.07 1695.2 1718.56 1697.01C1719.05 1698.82 1720.24 1700.36 1721.87 1701.3C1723.5 1702.23 1725.43 1702.48 1727.24 1701.99C1729.05 1701.5 1730.59 1700.31 1731.52 1698.68L1734.28 1693.87ZM1770.13 1706.29C1773.52 1708.24 1774.69 1712.56 1772.75 1715.95L1769.99 1720.75C1769.05 1722.38 1767.51 1723.57 1765.7 1724.06C1763.89 1724.55 1761.96 1724.3 1760.33 1723.37C1758.71 1722.44 1757.52 1720.89 1757.03 1719.08C1756.54 1717.27 1756.79 1715.34 1757.72 1713.72L1760.48 1708.91C1762.42 1705.52 1766.75 1704.35 1770.13 1706.29ZM1724.22 1727.65C1723.05 1724.44 1722.58 1721.01 1722.85 1717.61C1722.99 1716.39 1723.42 1715.22 1724.11 1714.21C1724.8 1713.19 1725.72 1712.36 1726.8 1711.78C1728.47 1710.9 1730.4 1710.64 1732.25 1711.06C1734.13 1711.49 1736.98 1712.42 1740.04 1714.18C1743.1 1715.93 1745.36 1717.93 1746.67 1719.34C1747.7 1720.45 1748.72 1722.18 1748.8 1724.4C1748.88 1726.8 1747.83 1729.2 1745.76 1730.75C1742.95 1732.7 1739.76 1734.03 1736.4 1734.64C1736.31 1735.05 1736.33 1736.35 1737.45 1737.66C1737.93 1738.23 1738.57 1738.66 1739.28 1738.9C1740.27 1739.18 1741.32 1739.16 1742.3 1738.85C1744.11 1738.36 1746.04 1738.6 1747.67 1739.54C1749.29 1740.47 1750.48 1742.01 1750.97 1743.82C1751.46 1745.63 1751.21 1747.56 1750.28 1749.19C1749.35 1750.82 1747.8 1752.01 1745.99 1752.5C1737.96 1754.67 1730.99 1751.82 1726.75 1746.89C1725.58 1745.53 1724.61 1744 1723.87 1742.37C1722.06 1742.56 1720.24 1742.49 1718.51 1742.16C1712.11 1740.99 1706.13 1736.41 1703.96 1728.38C1703.71 1727.48 1703.65 1726.54 1703.77 1725.62C1703.89 1724.7 1704.19 1723.81 1704.65 1723.01C1705.11 1722.2 1705.73 1721.5 1706.46 1720.93C1707.2 1720.36 1708.04 1719.94 1708.93 1719.7C1709.83 1719.46 1710.77 1719.39 1711.69 1719.51C1712.61 1719.63 1713.5 1719.93 1714.3 1720.39C1715.11 1720.86 1715.81 1721.47 1716.38 1722.21C1716.95 1722.94 1717.37 1723.78 1717.61 1724.68C1717.83 1725.68 1718.34 1726.6 1719.08 1727.31C1719.64 1727.8 1720.3 1728.12 1721.08 1728.26C1722.78 1728.58 1723.92 1727.93 1724.22 1727.65Z" fill="#59C9DE" fill-opacity="0.6"/>
<path d="M1768.64 1432.8C1767.53 1432.92 1748.75 1434.82 1747.99 1420.38C1747.08 1403.04 1775.43 1399.55 1787.23 1402.69C1799.16 1405.87 1805.07 1452.91 1780.64 1449.35C1776.24 1448.56 1770.26 1442.23 1768.64 1432.8Z" fill="#59C9DE" fill-opacity="0.79"/>
<ellipse cx="10.4756" cy="15.7947" rx="10.4756" ry="15.7947" transform="matrix(0.247364 0.968922 -0.971887 0.235447 1835.14 1414.09)" fill="#59C9DE" fill-opacity="0.79"/>
<ellipse cx="10.4963" cy="15.7624" rx="10.4963" ry="15.7624" transform="matrix(0.609848 0.792518 -0.790611 0.612318 1823.85 1376.42)" fill="#59C9DE" fill-opacity="0.79"/>
<ellipse cx="10.6044" cy="14.8562" rx="10.6044" ry="14.8562" transform="matrix(0.956649 0.291242 -0.272477 0.962162 1783.66 1360.13)" fill="#59C9DE" fill-opacity="0.79"/>
<ellipse cx="10.5357" cy="14.9523" rx="10.5357" ry="14.9523" transform="matrix(0.999021 -0.0442472 0.061409 0.998113 1746.78 1364.09)" fill="#59C9DE" fill-opacity="0.79"/>
<path d="M165.538 2096.81C166.174 2094.49 165.864 2092.01 164.675 2089.93C163.486 2087.84 161.516 2086.31 159.198 2085.67L141.72 2080.87L144.119 2072.13L135.38 2069.73L132.981 2078.47L98.024 2068.87L100.423 2060.13L91.6842 2057.74L89.2849 2066.47L71.8066 2061.68C69.4889 2061.04 67.0133 2061.35 64.9244 2062.54C62.8355 2063.73 61.3045 2065.7 60.6682 2068.02L36.6753 2155.41C36.039 2157.72 36.3494 2160.2 37.5384 2162.29C38.7273 2164.38 40.6974 2165.91 43.0151 2166.55L60.4934 2171.34L62.8927 2162.6L45.4144 2157.81L69.4073 2070.42L86.8856 2075.21L84.4863 2083.95L93.2254 2086.35L95.6247 2077.61L130.581 2087.21L128.182 2095.95L136.921 2098.35L139.32 2089.61L156.799 2094.41L149.601 2120.63L158.34 2123.02L165.538 2096.81Z" fill="#59C9DE" fill-opacity="0.6"/>
<path d="M124.156 2127.74L129.37 2152.37L152.239 2162.37L130.15 2174.36L128.009 2199.28L109.235 2182.08L84.3132 2187.28L95.1933 2164.77L82.3264 2143.17L107.745 2146.43L124.156 2127.74Z" fill="#59C9DE" fill-opacity="0.6"/>
<path fill-rule="evenodd" clip-rule="evenodd" d="M54.7953 2661.02C54.1214 2662.75 53.5688 2664.43 53.1374 2666.07C52.7994 2667.31 52.1306 2668.44 51.2021 2669.33C50.2736 2670.22 49.1203 2670.85 47.8648 2671.14L33.032 2674.49C32.5365 2674.57 32.067 2674.77 31.6575 2675.07C31.248 2675.36 30.9088 2675.74 30.6645 2676.18C22.3974 2692.2 20.5107 2706.72 24.4535 2719.44C28.3892 2732.2 38.6181 2744.45 57.1346 2755.07C75.6511 2765.7 91.3824 2768.33 104.388 2765.31C117.362 2762.29 128.943 2753.34 138.604 2738.12C138.861 2737.68 139.018 2737.2 139.064 2736.7C139.111 2736.19 139.045 2735.69 138.872 2735.22L134.27 2720.73C133.887 2719.5 133.846 2718.18 134.153 2716.93C134.46 2715.67 135.102 2714.52 136.011 2713.61C137.11 2712.48 138.211 2711.24 139.315 2709.89C138.776 2708.22 138.107 2706.59 137.315 2705.01C135.508 2701.46 133.469 2698.03 131.209 2694.74C127.071 2688.62 122.455 2682.83 117.404 2677.43C116.852 2677.07 116.355 2676.64 115.928 2676.14C116.017 2676.22 116.007 2676.22 115.898 2676.12C115.374 2675.63 112.4 2672.78 106.346 2669.31C100.301 2665.84 96.3319 2664.71 95.6391 2664.51C95.5026 2664.47 95.4927 2664.47 95.6096 2664.49C94.8155 2664.35 94.0524 2664.08 93.3561 2663.67C87.6473 2662.3 79.4392 2661.03 71.5033 2660.5C67.1411 2660.21 63.0241 2660.16 59.5534 2660.41C57.9529 2660.5 56.3666 2660.7 54.7953 2661.02ZM172.236 2678.25C175.39 2670.28 172.142 2661.16 165.033 2657.16C162.392 2655.61 159.366 2654.83 156.303 2654.92C142.252 2655.15 131.778 2659.02 122.354 2663.05C119.517 2660.83 116.521 2658.82 113.39 2657.03C109.366 2654.73 105.942 2653.19 103.35 2652.19C102.059 2642 100.121 2630.99 93.2134 2618.7C91.7775 2616.09 89.656 2613.92 87.0771 2612.42C80.0554 2608.4 70.6419 2610.21 65.3818 2616.93C59.7995 2624.04 53.5998 2632.73 48.5336 2641.63C46.4616 2645.24 44.5999 2648.89 43.0317 2652.47L42.9556 2652.64C42.1346 2654.53 41.4007 2656.4 40.7537 2658.26L29.9261 2660.69C27.4175 2661.23 25.059 2662.32 23.017 2663.88C20.9751 2665.43 19.2995 2667.42 18.1086 2669.69C8.64039 2688.01 5.60871 2706.41 10.9411 2723.62C16.275 2740.81 29.529 2755.54 50.0964 2767.34C70.6638 2779.14 90.0607 2783.16 107.59 2779.09C125.147 2775 139.502 2763.1 150.535 2745.69C151.89 2743.51 152.754 2741.07 153.066 2738.52C153.378 2735.97 153.132 2733.39 152.343 2730.95L148.988 2720.36C158.661 2709.07 166.836 2691.91 172.242 2678.24M78.2797 2687.87C79.2131 2686.25 79.462 2684.32 78.9718 2682.51C78.4816 2680.7 77.2925 2679.16 75.6659 2678.22C74.0394 2677.29 72.1087 2677.04 70.2986 2677.53C68.4885 2678.02 66.9472 2679.21 66.0139 2680.84L63.2549 2685.64C62.3216 2687.27 62.0726 2689.2 62.5628 2691.01C63.053 2692.82 64.2422 2694.36 65.8687 2695.3C67.4953 2696.23 69.426 2696.48 71.2361 2695.99C73.0462 2695.5 74.5874 2694.31 75.5208 2692.68L78.2797 2687.87ZM114.132 2700.29C117.517 2702.24 118.688 2706.56 116.745 2709.95L113.986 2714.75C113.053 2716.38 111.512 2717.57 109.702 2718.06C107.892 2718.55 105.961 2718.3 104.334 2717.37C102.708 2716.44 101.519 2714.89 101.029 2713.08C100.538 2711.27 100.787 2709.34 101.721 2707.72L104.48 2702.91C106.422 2699.52 110.746 2698.35 114.132 2700.29ZM68.2239 2721.65C67.0497 2718.44 66.5824 2715.01 66.8541 2711.61C66.9917 2710.39 67.4222 2709.22 68.1088 2708.21C68.7954 2707.19 69.7176 2706.36 70.7964 2705.78C72.4683 2704.9 74.401 2704.64 76.2452 2705.06C78.1261 2705.49 80.9815 2706.42 84.043 2708.18C87.1046 2709.93 89.3617 2711.93 90.6698 2713.34C91.7006 2714.45 92.7163 2716.18 92.7965 2718.4C92.882 2720.8 91.8323 2723.2 89.7569 2724.75C86.9546 2726.7 83.7636 2728.03 80.4015 2728.64C80.3123 2729.05 80.3339 2730.35 81.4499 2731.66C81.933 2732.23 82.5661 2732.66 83.2789 2732.9C84.2684 2733.18 85.3188 2733.16 86.2974 2732.85C88.1078 2732.36 90.0387 2732.6 91.6655 2733.54C93.2923 2734.47 94.4816 2736.01 94.9718 2737.82C95.4621 2739.63 95.2131 2741.56 94.2797 2743.19C93.3462 2744.82 91.8048 2746.01 89.9944 2746.5C81.9639 2748.67 74.9921 2745.82 70.749 2740.89C69.5816 2739.53 68.6113 2738 67.8664 2736.37C66.0615 2736.56 64.236 2736.49 62.5064 2736.16C56.1125 2734.99 50.1316 2730.41 47.9569 2722.38C47.7142 2721.48 47.6503 2720.54 47.7691 2719.62C47.8879 2718.7 48.1869 2717.81 48.6491 2717.01C49.1113 2716.2 49.7276 2715.5 50.4629 2714.93C51.1981 2714.36 52.0379 2713.94 52.9343 2713.7C53.8307 2713.46 54.7661 2713.39 55.6872 2713.51C56.6082 2713.63 57.4969 2713.93 58.3024 2714.39C59.1079 2714.86 59.8144 2715.47 60.3818 2716.21C60.9491 2716.94 61.366 2717.78 61.6087 2718.68C61.8296 2719.68 62.3431 2720.6 63.0845 2721.31C63.6374 2721.8 64.3034 2722.12 65.0824 2722.26C66.7769 2722.58 67.9189 2721.93 68.2239 2721.65Z" fill="#59C9DE" fill-opacity="0.6"/>
<path d="M112.642 2426.8C111.525 2426.92 92.7468 2428.82 91.9876 2414.38C91.0754 2397.04 119.432 2393.55 131.228 2396.69C143.162 2399.87 149.067 2446.91 124.638 2443.35C120.241 2442.56 114.256 2436.23 112.642 2426.8Z" fill="#59C9DE" fill-opacity="0.79"/>
<ellipse cx="10.4756" cy="15.7947" rx="10.4756" ry="15.7947" transform="matrix(0.247364 0.968922 -0.971887 0.235447 179.135 2408.09)" fill="#59C9DE" fill-opacity="0.79"/>
<ellipse cx="10.4963" cy="15.7624" rx="10.4963" ry="15.7624" transform="matrix(0.609848 0.792518 -0.790611 0.612318 167.848 2370.42)" fill="#59C9DE" fill-opacity="0.79"/>
<ellipse cx="10.6044" cy="14.8562" rx="10.6044" ry="14.8562" transform="matrix(0.956649 0.291242 -0.272477 0.962162 127.654 2354.13)" fill="#59C9DE" fill-opacity="0.79"/>
<ellipse cx="10.5357" cy="14.9523" rx="10.5357" ry="14.9523" transform="matrix(0.999021 -0.0442472 0.061409 0.998113 90.7773 2358.09)" fill="#59C9DE" fill-opacity="0.79"/>
<path d="M2.97214 1779.05C30.4995 1795.64 66.4525 1786.73 83.0456 1759.2C99.6387 1731.68 90.7286 1695.72 63.2013 1679.13C35.6739 1662.54 -0.279074 1671.45 -16.8722 1698.97L-46.9868 1748.93L-36.995 1754.96L-24.8588 1734.82C-23.0643 1752.52 -13.3644 1769.2 2.97214 1779.05ZM34.0093 1767.11C9.2297 1752.17 1.21258 1719.82 16.1494 1695.04C18.8898 1690.49 22.2694 1686.47 26.2383 1682.94L27.1088 1682.85C10.7982 1714.09 20.3831 1752.76 49.394 1772.77L48.583 1773.1C43.4735 1771.86 38.5556 1769.85 34.0093 1767.11ZM65.1991 1695.25C56.1068 1704.34 44.0409 1709.67 31.0342 1710.35C31.7723 1701.66 34.341 1693 39.1293 1685.05C39.5509 1684.35 40.0724 1683.71 40.544 1683.04C46.2544 1683.97 51.8827 1685.93 57.1284 1689.09C60.076 1690.87 62.7628 1692.96 65.1491 1695.22L65.1991 1695.25ZM61.1321 1766.29C60.4327 1765.87 59.673 1765.55 58.9736 1765.13C52.9785 1761.51 47.8958 1756.95 43.7548 1751.73C57.8142 1748.09 70.3776 1740.13 79.6761 1728.97C79.7086 1737.47 77.4114 1745.82 73.034 1753.1C69.8719 1758.35 65.7812 1762.76 61.1622 1766.24L61.1321 1766.29ZM76.7577 1712.91C76.5168 1713.31 76.3258 1713.74 76.0849 1714.14C67.4722 1728.43 53.3065 1738.14 36.9435 1741.22C33.9146 1735.17 31.9972 1728.64 31.2405 1721.98C46.8684 1721.25 61.4371 1715.05 72.5634 1704.39C74.2585 1707.11 75.6833 1709.95 76.7577 1712.91ZM4.26998 1692.37C-10.7648 1721.04 -1.98407 1756.65 24.7295 1774.93C19.2593 1773.95 13.941 1772.04 8.89514 1768.99C-13.1367 1755.71 -20.2609 1726.97 -6.98034 1704.94C-3.96888 1699.94 -0.12866 1695.72 4.25014 1692.29L4.26998 1692.37Z" fill="#59C9DE" fill-opacity="0.79"/>
<path d="M88.4928 1927.68C87.9825 1928.68 79.3066 1945.44 66.8029 1938.18C51.78 1929.47 64.3576 1903.81 73.4375 1895.65C82.6239 1887.4 125.238 1908.16 108.907 1926.68C105.845 1929.93 97.2709 1931.48 88.4928 1927.68Z" fill="#59C9DE" fill-opacity="0.79"/>
<ellipse cx="10.4756" cy="15.7947" rx="10.4756" ry="15.7947" transform="matrix(0.946579 0.322472 -0.334072 0.942547 109.168 1861.77)" fill="#59C9DE" fill-opacity="0.79"/>
<ellipse cx="10.4963" cy="15.7624" rx="10.4963" ry="15.7624" transform="matrix(0.996993 -0.0774918 0.0806028 0.996746 71.4512 1850.63)" fill="#59C9DE" fill-opacity="0.79"/>
<ellipse cx="10.6044" cy="14.8562" rx="10.6044" ry="14.8562" transform="matrix(0.766789 -0.641899 0.656772 0.754089 35.8418 1875.38)" fill="#59C9DE" fill-opacity="0.79"/>
<ellipse cx="10.5357" cy="14.9523" rx="10.5357" ry="14.9523" transform="matrix(0.509013 -0.860759 0.869379 0.494146 19 1908.43)" fill="#59C9DE" fill-opacity="0.79"/>
<path d="M165.538 2096.81C166.174 2094.49 165.864 2092.01 164.675 2089.93C163.486 2087.84 161.516 2086.31 159.198 2085.67L141.72 2080.87L144.119 2072.13L135.38 2069.73L132.981 2078.47L98.024 2068.87L100.423 2060.13L91.6842 2057.74L89.2849 2066.47L71.8066 2061.68C69.4889 2061.04 67.0133 2061.35 64.9244 2062.54C62.8355 2063.73 61.3045 2065.7 60.6682 2068.02L36.6753 2155.41C36.039 2157.72 36.3494 2160.2 37.5384 2162.29C38.7273 2164.38 40.6974 2165.91 43.0151 2166.55L60.4934 2171.34L62.8927 2162.6L45.4144 2157.81L69.4073 2070.42L86.8856 2075.21L84.4863 2083.95L93.2254 2086.35L95.6247 2077.61L130.581 2087.21L128.182 2095.95L136.921 2098.35L139.32 2089.61L156.799 2094.41L149.601 2120.63L158.34 2123.02L165.538 2096.81Z" fill="#59C9DE" fill-opacity="0.6"/>
<path d="M124.156 2127.74L129.37 2152.37L152.239 2162.37L130.15 2174.36L128.009 2199.28L109.235 2182.08L84.3132 2187.28L95.1933 2164.77L82.3264 2143.17L107.745 2146.43L124.156 2127.74Z" fill="#59C9DE" fill-opacity="0.6"/>
<path d="M112.642 2426.8C111.525 2426.92 92.7468 2428.82 91.9876 2414.38C91.0754 2397.04 119.432 2393.55 131.228 2396.69C143.162 2399.87 149.067 2446.91 124.638 2443.35C120.241 2442.56 114.256 2436.23 112.642 2426.8Z" fill="#59C9DE" fill-opacity="0.79"/>
<ellipse cx="10.4756" cy="15.7947" rx="10.4756" ry="15.7947" transform="matrix(0.247364 0.968922 -0.971887 0.235447 179.135 2408.09)" fill="#59C9DE" fill-opacity="0.79"/>
<ellipse cx="10.4963" cy="15.7624" rx="10.4963" ry="15.7624" transform="matrix(0.609848 0.792518 -0.790611 0.612318 167.848 2370.42)" fill="#59C9DE" fill-opacity="0.79"/>
<ellipse cx="10.6044" cy="14.8562" rx="10.6044" ry="14.8562" transform="matrix(0.956649 0.291242 -0.272477 0.962162 127.654 2354.13)" fill="#59C9DE" fill-opacity="0.79"/>
<ellipse cx="10.5357" cy="14.9523" rx="10.5357" ry="14.9523" transform="matrix(0.999021 -0.0442472 0.061409 0.998113 90.7773 2358.09)" fill="#59C9DE" fill-opacity="0.79"/>
<g clip-path="url(#clip1_407_1217)">
<path d="M1076.37 260.252C1080.02 254.74 1081.37 248.02 1080.13 241.527C1083.64 240.031 1086.78 237.762 1089.3 234.889C1091.82 232.017 1093.66 228.614 1094.68 224.933C1095.71 221.252 1095.89 217.387 1095.22 213.626C1094.54 209.865 1093.03 206.303 1090.8 203.205C1088.56 200.108 1085.65 197.553 1082.3 195.732C1078.94 193.91 1075.21 192.868 1071.39 192.683C1067.58 192.498 1063.77 193.175 1060.25 194.663C1056.73 196.151 1053.59 198.412 1051.06 201.279C1051.05 201.287 1051.03 201.292 1051.01 201.295L989.029 168.065L989.009 167.997C990.001 164.307 990.15 160.442 989.444 156.686C988.738 152.931 987.196 149.383 984.932 146.305C982.667 143.227 979.739 140.699 976.364 138.907C972.99 137.115 969.255 136.106 965.437 135.955C961.619 135.804 957.816 136.514 954.31 138.033C950.804 139.552 947.684 141.841 945.184 144.73C942.683 147.619 940.865 151.034 939.864 154.722C938.863 158.409 938.706 162.275 939.403 166.032C935.887 167.528 932.753 169.796 930.234 172.669C927.714 175.542 925.874 178.945 924.849 182.626C923.825 186.307 923.642 190.171 924.314 193.933C924.987 197.694 926.498 201.256 928.735 204.353C930.972 207.451 933.877 210.005 937.236 211.827C940.595 213.648 944.321 214.69 948.137 214.875C951.954 215.06 955.763 214.384 959.282 212.896C962.802 211.408 965.941 209.146 968.467 206.28L968.521 206.263L1030.51 239.521L1030.53 239.588C1028.92 245.44 1029.45 251.677 1032.03 257.172C1034.61 262.667 1039.06 267.06 1044.6 269.557C1050.13 272.054 1056.37 272.492 1062.2 270.79C1068.03 269.089 1073.06 265.361 1076.38 260.279L1076.37 260.252ZM1049.25 259.148C1046.19 257.761 1043.72 255.329 1042.29 252.286C1040.85 249.244 1040.55 245.791 1041.44 242.547C1042.13 240.071 1041.96 237.434 1040.95 235.069C1039.94 232.705 1038.16 230.753 1035.9 229.537L973.869 196.254C971.602 195.045 968.99 194.644 966.465 195.117C963.939 195.59 961.65 196.909 959.973 198.857C958.467 200.569 956.569 201.891 954.441 202.71C952.313 203.53 950.019 203.823 947.753 203.564C945.488 203.305 943.319 202.502 941.43 201.224C939.542 199.946 937.991 198.23 936.91 196.222C935.828 194.215 935.248 191.976 935.219 189.696C935.19 187.416 935.712 185.163 936.742 183.128C937.772 181.094 939.278 179.339 941.133 178.012C942.988 176.686 945.136 175.828 947.394 175.511C948.204 175.399 948.98 175.113 949.668 174.673C950.357 174.232 950.941 173.648 951.382 172.96C951.823 172.272 952.11 171.496 952.223 170.687C952.335 169.877 952.271 169.053 952.034 168.27C951.948 167.992 951.841 167.721 951.715 167.458C950.734 165.403 950.264 163.141 950.344 160.865C950.425 158.589 951.054 156.366 952.178 154.385C953.302 152.405 954.888 150.725 956.801 149.489C958.714 148.252 960.897 147.497 963.165 147.286C965.432 147.074 967.718 147.414 969.826 148.276C971.934 149.137 973.803 150.496 975.274 152.235C976.744 153.974 977.773 156.042 978.272 158.264C978.772 160.487 978.727 162.796 978.142 164.998C977.45 167.473 977.622 170.11 978.629 172.475C979.636 174.84 981.419 176.791 983.683 178.008L1045.71 211.291C1047.97 212.493 1050.58 212.892 1053.1 212.42C1055.62 211.949 1057.9 210.636 1059.58 208.696C1061.09 206.984 1062.98 205.662 1065.11 204.842C1067.24 204.023 1069.53 203.73 1071.8 203.988C1074.06 204.247 1076.23 205.05 1078.12 206.328C1080.01 207.607 1081.56 209.323 1082.64 211.33C1083.72 213.337 1084.3 215.577 1084.33 217.857C1084.36 220.137 1083.84 222.39 1082.81 224.424C1081.78 226.459 1080.27 228.214 1078.42 229.54C1076.56 230.867 1074.42 231.725 1072.16 232.041C1071.28 232.164 1070.43 232.493 1069.7 233.001C1068.97 233.51 1068.37 234.185 1067.95 234.97C1067.53 235.754 1067.3 236.628 1067.28 237.518C1067.26 238.409 1067.45 239.291 1067.84 240.094C1069.11 242.716 1069.55 245.67 1069.08 248.549C1068.62 251.428 1067.27 254.093 1065.23 256.178C1063.19 258.262 1060.56 259.665 1057.69 260.194C1054.82 260.722 1051.86 260.351 1049.21 259.131L1049.25 259.148Z" fill="#59C9DE" fill-opacity="0.79"/>
</g>
<g clip-path="url(#clip2_407_1217)">
<path d="M416.745 484.583C422.526 481.379 426.826 476.041 428.725 469.709C432.535 470.005 436.362 469.439 439.923 468.054C443.484 466.669 446.688 464.5 449.296 461.708C451.904 458.915 453.851 455.572 454.99 451.925C456.13 448.278 456.434 444.421 455.88 440.64C455.326 436.86 453.927 433.253 451.789 430.086C449.65 426.92 446.826 424.275 443.526 422.349C440.226 420.423 436.535 419.265 432.726 418.96C428.917 418.656 425.088 419.212 421.524 420.589C421.505 420.588 421.487 420.585 421.469 420.579L381.828 362.488L381.841 362.418C384.425 359.603 386.341 356.242 387.449 352.585C388.556 348.928 388.826 345.069 388.239 341.294C387.651 337.518 386.221 333.923 384.054 330.776C381.888 327.628 379.04 325.009 375.723 323.112C372.407 321.216 368.705 320.09 364.894 319.819C361.082 319.548 357.259 320.138 353.707 321.547C350.155 322.955 346.966 325.145 344.376 327.954C341.785 330.763 339.861 334.119 338.745 337.774C334.935 337.478 331.108 338.044 327.547 339.429C323.986 340.814 320.783 342.983 318.174 345.775C315.566 348.568 313.62 351.911 312.48 355.558C311.34 359.205 311.036 363.062 311.59 366.843C312.145 370.623 313.543 374.23 315.682 377.397C317.82 380.563 320.644 383.208 323.944 385.134C327.244 387.06 330.936 388.218 334.745 388.523C338.553 388.827 342.382 388.271 345.946 386.894L346.002 386.904L385.637 445.023L385.624 445.093C381.49 449.538 379.082 455.315 378.833 461.381C378.584 467.446 380.511 473.401 384.266 478.17C388.022 482.94 393.358 486.21 399.313 487.391C405.267 488.572 411.448 487.586 416.739 484.611L416.745 484.583ZM393.199 471.084C391.122 468.44 390.055 465.143 390.189 461.783C390.323 458.423 391.651 455.221 393.933 452.752C395.689 450.875 396.754 448.457 396.952 445.894C397.151 443.331 396.47 440.777 395.024 438.653L355.367 380.494C353.914 378.375 351.782 376.814 349.323 376.068C346.864 375.321 344.225 375.434 341.839 376.388C339.712 377.211 337.418 377.508 335.152 377.252C332.886 376.997 330.716 376.198 328.826 374.922C326.935 373.647 325.382 371.933 324.297 369.928C323.212 367.922 322.629 365.684 322.596 363.404C322.563 361.124 323.082 358.87 324.109 356.834C325.135 354.798 326.639 353.04 328.492 351.711C330.345 350.382 332.491 349.52 334.749 349.2C337.007 348.88 339.308 349.11 341.458 349.872C342.227 350.146 343.048 350.251 343.862 350.178C344.676 350.105 345.464 349.857 346.173 349.45C346.882 349.043 347.494 348.487 347.968 347.821C348.441 347.155 348.765 346.394 348.916 345.591C348.968 345.304 348.999 345.014 349.008 344.723C349.087 342.447 349.713 340.224 350.836 338.242C351.958 336.26 353.542 334.578 355.454 333.34C357.366 332.102 359.548 331.344 361.815 331.131C364.083 330.918 366.368 331.255 368.477 332.115C370.587 332.974 372.457 334.33 373.929 336.068C375.401 337.806 376.432 339.873 376.934 342.095C377.436 344.316 377.393 346.626 376.81 348.828C376.228 351.03 375.122 353.058 373.586 354.74C371.83 356.617 370.765 359.036 370.567 361.598C370.368 364.161 371.049 366.715 372.495 368.839L412.152 426.998C413.605 429.11 415.732 430.666 418.185 431.411C420.637 432.156 423.271 432.046 425.653 431.099C427.779 430.276 430.073 429.979 432.339 430.235C434.605 430.49 436.775 431.289 438.666 432.565C440.556 433.84 442.109 435.554 443.194 437.559C444.279 439.565 444.863 441.803 444.895 444.083C444.928 446.363 444.409 448.617 443.382 450.653C442.356 452.689 440.852 454.447 438.999 455.776C437.146 457.105 435 457.967 432.742 458.287C430.485 458.607 428.183 458.377 426.034 457.615C425.195 457.316 424.297 457.22 423.413 457.334C422.53 457.448 421.686 457.768 420.95 458.27C420.214 458.772 419.607 459.441 419.178 460.221C418.749 461.002 418.511 461.873 418.483 462.764C418.406 465.679 417.428 468.5 415.685 470.839C413.942 473.178 411.519 474.92 408.747 475.828C405.974 476.735 402.99 476.763 400.201 475.908C397.412 475.052 394.956 473.356 393.17 471.05L393.199 471.084Z" fill="#59C9DE" fill-opacity="0.79"/>
</g>
<path fill-rule="evenodd" clip-rule="evenodd" d="M1306.68 149.422C1315.25 148.28 1324.79 148.804 1335.24 151.594C1345.69 154.384 1354.22 158.686 1361.08 163.949L1361.11 163.972C1368.61 169.699 1374.65 177.112 1378.75 185.61C1385.75 200.089 1386.28 215.766 1383.3 226.948C1381.28 234.503 1375.71 246.989 1362.66 250.91C1362.33 252.357 1361.96 253.812 1361.57 255.274L1361.53 255.416C1360.49 259.339 1357.94 268.885 1348.84 275.523C1339.45 282.376 1324.61 285.123 1301.25 278.884C1277.88 272.644 1266.38 262.865 1261.66 252.243C1257.08 241.95 1259.64 232.408 1260.68 228.485L1260.72 228.343C1261.11 226.883 1261.52 225.44 1261.95 224.015C1252.6 214.116 1253.99 200.513 1256.01 192.955C1258.99 181.772 1267.27 168.452 1280.56 159.391C1288.35 154.068 1297.28 150.655 1306.64 149.429L1306.68 149.422ZM1274 223.382C1278.59 208.448 1287.84 192.429 1296.21 179.882C1300.41 173.584 1304.31 168.257 1307.17 164.509C1308.48 162.788 1309.56 161.402 1310.35 160.413C1316.91 159.818 1324.23 160.384 1332.31 162.544C1340.4 164.702 1347.02 167.855 1352.41 171.643C1352.6 172.893 1352.85 174.635 1353.13 176.782C1353.73 181.451 1354.46 188.018 1354.96 195.57C1355.95 210.616 1355.98 229.121 1352.53 244.36C1352.45 244.584 1352.39 244.812 1352.34 245.044C1351.85 247.454 1351.28 249.889 1350.62 252.35C1349.63 256.073 1347.9 262.18 1342.16 266.366C1336.6 270.429 1325.75 273.701 1304.17 267.937C1282.58 262.173 1274.82 253.928 1272.02 247.638C1269.13 241.143 1270.68 234.992 1271.67 231.267C1272.33 228.807 1273.04 226.411 1273.82 224.078C1273.9 223.848 1273.96 223.616 1274 223.382ZM1306.66 194.953C1305.21 194.566 1303.67 194.771 1302.36 195.523C1301.06 196.276 1300.11 197.514 1299.73 198.966L1299.02 201.611C1298.63 203.063 1298.84 204.609 1299.59 205.91C1300.34 207.211 1301.58 208.16 1303.03 208.547C1304.49 208.935 1306.03 208.73 1307.33 207.978C1308.63 207.225 1309.58 205.986 1309.97 204.534L1310.68 201.89C1311.06 200.438 1310.86 198.892 1310.11 197.591C1309.35 196.29 1308.12 195.341 1306.66 194.953ZM1338.39 203.425C1339.84 203.813 1341.08 204.762 1341.83 206.063C1342.59 207.364 1342.79 208.91 1342.4 210.362L1341.7 213.007C1341.31 214.459 1340.36 215.697 1339.06 216.45C1337.76 217.202 1336.21 217.407 1334.76 217.019C1333.31 216.632 1332.07 215.683 1331.32 214.382C1330.56 213.081 1330.36 211.535 1330.75 210.083L1331.45 207.438C1331.84 205.986 1332.79 204.748 1334.09 203.995C1335.39 203.243 1336.94 203.038 1338.39 203.425ZM1316.65 243.144C1316.7 242.962 1316.74 242.777 1316.77 242.589C1317.73 242.27 1318.66 241.86 1319.54 241.367C1322.47 239.738 1325.22 237.029 1326.2 233.35L1326.22 233.284C1326.24 233.163 1326.26 233.041 1326.27 232.918C1326.3 232.641 1326.29 232.362 1326.26 232.086C1326.13 231.197 1325.78 230.354 1325.24 229.633C1323.94 227.819 1321.22 225.901 1315.78 224.447C1310.35 222.996 1307.04 223.3 1305 224.223C1302.9 225.175 1302.39 226.672 1302.31 226.968C1301.33 230.647 1302.36 234.368 1304.09 237.243C1304.61 238.116 1305.22 238.94 1305.88 239.683C1305.81 239.857 1305.75 240.036 1305.71 240.22L1304.04 246.445C1302.94 247.042 1301.03 247.394 1298.5 246.72C1295.22 245.842 1293.69 243.972 1293.46 242.824C1293.13 241.373 1292.25 240.108 1291.01 239.301C1289.76 238.494 1288.24 238.209 1286.79 238.508C1285.33 238.808 1284.05 239.667 1283.22 240.901C1282.39 242.136 1282.08 243.646 1282.36 245.106C1283.8 252.125 1290.09 256.204 1295.58 257.669C1298.98 258.577 1303.15 258.769 1306.95 257.51C1309.63 260.5 1313.33 262.41 1316.73 263.318C1322.22 264.783 1329.71 264.384 1334.46 259.019C1334.97 258.464 1335.36 257.814 1335.61 257.106C1335.87 256.398 1335.98 255.646 1335.94 254.895C1335.9 254.144 1335.71 253.408 1335.38 252.73C1335.06 252.053 1334.6 251.447 1334.04 250.948C1333.47 250.45 1332.82 250.068 1332.1 249.826C1331.39 249.584 1330.64 249.486 1329.89 249.538C1329.14 249.59 1328.4 249.791 1327.73 250.129C1327.06 250.467 1326.46 250.935 1325.97 251.507C1325.2 252.384 1322.95 253.247 1319.66 252.369C1317.13 251.695 1315.65 250.437 1314.99 249.369L1316.65 243.144Z" fill="#59C9DE" fill-opacity="0.6"/>
<path fill-rule="evenodd" clip-rule="evenodd" d="M477.576 234.856C478.839 235.98 480.095 236.983 481.345 237.867C482.296 238.549 483.044 239.476 483.509 240.549C483.975 241.622 484.141 242.802 483.99 243.962L482.132 257.639C482.051 258.089 482.07 258.551 482.19 258.992C482.309 259.434 482.525 259.843 482.822 260.19C493.829 272.303 505.579 278.511 517.652 279.192C529.752 279.889 543.414 275.072 558.323 262.691C573.232 250.31 580.462 237.764 582.013 225.743C583.561 213.751 579.617 201.06 569.732 188.016C569.446 187.66 569.083 187.373 568.671 187.174C568.259 186.976 567.809 186.872 567.352 186.869L553.572 186.191C552.401 186.125 551.269 185.742 550.299 185.083C549.328 184.424 548.555 183.514 548.062 182.449C547.453 181.158 546.749 179.829 545.952 178.461C544.356 178.389 542.756 178.441 541.168 178.616C537.571 179.026 534.005 179.672 530.494 180.552C523.971 182.13 517.583 184.221 511.39 186.805C510.911 187.162 510.384 187.447 509.824 187.652C509.925 187.603 509.917 187.609 509.8 187.671C509.212 187.96 505.852 189.589 500.977 193.637C496.11 197.679 493.89 200.697 493.499 201.222C493.426 201.327 493.418 201.334 493.475 201.242C493.106 201.873 492.626 202.434 492.06 202.897C489.083 207.318 485.403 213.899 482.431 220.479C480.805 224.099 479.453 227.584 478.567 230.616C478.139 232.007 477.804 233.419 477.576 234.856ZM529.477 140.426C523.695 135.215 514.911 135.087 509.254 139.865C507.095 141.619 505.474 143.946 504.577 146.579C500.32 158.605 500.286 168.74 500.73 178.036C497.94 179.744 495.279 181.655 492.769 183.753C489.529 186.443 487.138 188.869 485.461 190.756C476.389 188.624 466.408 186.781 453.768 188.761C451.089 189.153 448.567 190.268 446.475 191.987C440.832 196.686 439.388 205.268 443.429 211.87C447.711 218.875 453.137 226.904 459.099 234.035C461.513 236.942 464.031 239.684 466.574 242.151L466.701 242.273C468.044 243.569 469.402 244.786 470.775 245.925L469.413 255.907C469.08 258.213 469.258 260.564 469.933 262.794C470.609 265.025 471.766 267.079 473.322 268.813C485.903 282.676 500.592 291.089 516.924 292.011C533.234 292.924 549.964 286.32 566.524 272.567C583.085 258.815 592.656 243.591 594.755 227.39C596.842 211.159 591.27 195.174 579.96 180.27C578.537 178.426 576.729 176.915 574.662 175.842C572.595 174.769 570.318 174.159 567.992 174.056L557.923 173.553C551.388 161.746 539.386 149.352 529.471 140.418M507.869 223.397C506.781 222.087 505.218 221.263 503.523 221.106C501.828 220.949 500.14 221.472 498.83 222.56C497.52 223.647 496.696 225.211 496.539 226.906C496.382 228.601 496.905 230.289 497.993 231.599L501.208 235.47C502.295 236.78 503.859 237.604 505.554 237.761C507.249 237.918 508.937 237.395 510.247 236.307C511.556 235.22 512.38 233.656 512.537 231.961C512.694 230.266 512.172 228.578 511.084 227.268L507.869 223.397ZM529.802 196.839C532.528 194.576 536.577 194.951 538.841 197.677L542.056 201.548C543.143 202.858 543.666 204.546 543.509 206.241C543.352 207.936 542.528 209.499 541.218 210.587C539.909 211.675 538.221 212.197 536.526 212.04C534.831 211.883 533.267 211.059 532.18 209.75L528.965 205.878C526.701 203.152 527.076 199.103 529.802 196.839ZM533.412 242.661C530.308 242.642 527.245 241.953 524.432 240.641C523.44 240.138 522.585 239.402 521.94 238.496C521.295 237.59 520.878 236.542 520.727 235.44C520.506 233.738 520.901 232.013 521.841 230.577C522.801 229.112 524.501 226.98 526.966 224.933C529.431 222.885 531.848 221.6 533.456 220.932C534.73 220.408 536.524 220.093 538.441 220.73C540.507 221.417 542.214 223.07 542.873 225.327C543.647 228.33 543.765 231.466 543.217 234.519C543.534 234.723 544.649 235.118 546.114 234.583C546.757 234.355 547.324 233.953 547.753 233.422C548.305 232.669 548.622 231.77 548.663 230.837C548.82 229.142 549.645 227.578 550.954 226.49C552.264 225.403 553.952 224.88 555.648 225.037C557.343 225.194 558.907 226.018 559.994 227.328C561.082 228.638 561.605 230.326 561.448 232.021C560.751 239.542 556.114 244.567 550.579 246.614C549.047 247.174 547.444 247.517 545.817 247.632C545.406 249.228 544.769 250.758 543.942 252.126C540.913 257.191 535.121 260.826 527.6 260.13C526.761 260.052 525.945 259.81 525.199 259.417C524.453 259.024 523.792 258.487 523.254 257.839C522.715 257.19 522.31 256.442 522.06 255.637C521.811 254.831 521.722 253.985 521.8 253.145C521.878 252.306 522.12 251.49 522.513 250.744C522.906 249.998 523.443 249.337 524.091 248.799C524.74 248.26 525.488 247.855 526.293 247.605C527.099 247.356 527.945 247.267 528.785 247.345C529.709 247.476 530.651 247.33 531.493 246.925C532.086 246.61 532.567 246.144 532.935 245.527C533.745 244.187 533.555 243.01 533.412 242.661Z" fill="#59C9DE" fill-opacity="0.6"/>
</g>
<defs>
<clipPath id="clip0_407_1217">
<rect width="1920" height="2684" fill="white"/>
</clipPath>
<clipPath id="clip1_407_1217">
<rect width="181" height="181" fill="white" transform="translate(1070.29 91) rotate(73.2176)"/>
</clipPath>
<clipPath id="clip2_407_1217">
<rect width="181" height="181" fill="white" transform="translate(489.488 331.641) rotate(100.711)"/>
</clipPath>
</defs>
</svg>
