<svg width="126" height="128" viewBox="0 0 126 128" fill="none" xmlns="http://www.w3.org/2000/svg">
<path d="M113.835 30.4451C110.848 26.8488 106.574 24.5628 101.925 24.0751C101.63 21.3892 100.734 18.8041 99.3031 16.5117C97.8725 14.2194 95.9442 12.2785 93.6612 10.833C91.3782 9.38762 88.799 8.47474 86.115 8.16213C83.431 7.84952 80.7111 8.14519 78.157 9.02722C75.6029 9.90925 73.2801 11.355 71.361 13.2572C69.4419 15.1595 67.9757 17.4694 67.0711 20.0156C66.1665 22.5618 65.8468 25.279 66.1357 27.9656C66.4246 30.6523 67.3147 33.2394 68.7399 35.5351C68.7416 35.5484 68.7416 35.5618 68.7399 35.5751L33.5849 70.7551H33.5349C31.2392 69.3299 28.652 68.4399 25.9654 68.151C23.2788 67.8621 20.5616 68.1818 18.0153 69.0864C15.4691 69.9909 13.1592 71.4571 11.257 73.3763C9.35476 75.2954 7.90901 77.6181 7.02698 80.1722C6.14495 82.7263 5.84927 85.4463 6.16188 88.1303C6.4745 90.8142 7.38737 93.3934 8.8328 95.6764C10.2782 97.9594 12.2191 99.8878 14.5115 101.318C16.8039 102.749 19.3889 103.645 22.0749 103.94C22.37 106.626 23.2661 109.211 24.6967 111.503C26.1272 113.796 28.0555 115.737 30.3386 117.182C32.6216 118.628 35.2007 119.54 37.8847 119.853C40.5687 120.166 43.2886 119.87 45.8427 118.988C48.3969 118.106 50.7196 116.66 52.6387 114.758C54.5578 112.856 56.0241 110.546 56.9286 108C57.8332 105.453 58.1529 102.736 57.864 100.05C57.5751 97.3629 56.6851 94.7758 55.2599 92.4801V92.4401L90.4349 57.2601H90.4849C94.1174 59.5481 98.448 60.4624 102.695 59.8382C106.943 59.2139 110.827 57.0922 113.648 53.8559C116.468 50.6195 118.039 46.4816 118.077 42.1888C118.115 37.8959 116.618 33.7309 113.855 30.4451H113.835ZM107.55 48.5801C105.986 50.3711 103.835 51.5461 101.482 51.8943C99.1301 52.2425 96.7308 51.7411 94.7149 50.4801C93.1801 49.5063 91.3594 49.0841 89.5527 49.2831C87.7459 49.4821 86.0608 50.2905 84.7749 51.5751L49.5749 86.7751C48.2934 88.0635 47.4887 89.7498 47.2934 91.5565C47.098 93.3632 47.5235 95.1825 48.4999 96.7151C49.3512 98.0846 49.8588 99.6396 49.9792 101.248C50.0997 102.856 49.8295 104.469 49.1917 105.95C48.5539 107.431 47.5674 108.736 46.3164 109.753C45.0653 110.771 43.5867 111.47 42.0068 111.793C40.4268 112.115 38.7923 112.051 37.2426 111.605C35.693 111.159 34.2741 110.345 33.1069 109.233C31.9398 108.12 31.0591 106.741 30.5398 105.215C30.0206 103.688 29.8782 102.059 30.1249 100.465C30.2145 99.8941 30.1792 99.3104 30.0216 98.7543C29.864 98.1983 29.5877 97.6829 29.2119 97.2438C28.836 96.8048 28.3694 96.4523 27.8443 96.2109C27.3191 95.9694 26.7479 95.8446 26.1699 95.8451C25.9639 95.8469 25.7584 95.8636 25.5549 95.8951C23.963 96.1399 22.3355 95.9965 20.8109 95.4772C19.2863 94.9579 17.9096 94.0781 16.7981 92.9125C15.6866 91.7469 14.8731 90.33 14.4267 88.7825C13.9804 87.2349 13.9145 85.6025 14.2345 84.024C14.5546 82.4455 15.2512 80.9677 16.2651 79.7162C17.279 78.4648 18.5802 77.4767 20.058 76.8362C21.5357 76.1956 23.1463 75.9215 24.7528 76.0371C26.3593 76.1527 27.914 76.6546 29.2849 77.5001C30.8196 78.474 32.6403 78.8961 34.447 78.6971C36.2538 78.4981 37.9389 77.6897 39.2249 76.4051L74.4249 41.2051C75.7015 39.918 76.5031 38.2355 76.6984 36.4332C76.8938 34.631 76.4711 32.8158 75.4999 31.2851C74.6485 29.9156 74.141 28.3606 74.0205 26.7526C73.9 25.1446 74.1702 23.5313 74.808 22.0502C75.4458 20.5692 76.4323 19.2644 77.6834 18.247C78.9344 17.2296 80.413 16.5299 81.9929 16.2075C83.5729 15.885 85.2074 15.9494 86.7571 16.3952C88.3068 16.841 89.7257 17.6549 90.8928 18.7676C92.0599 19.8803 92.9406 21.2587 93.4599 22.7854C93.9791 24.312 94.1215 25.9416 93.8749 27.5351C93.7775 28.1575 93.8286 28.794 94.0238 29.3929C94.2191 29.9918 94.553 30.5361 94.9984 30.9816C95.4438 31.427 95.9882 31.7609 96.5871 31.9562C97.186 32.1514 97.8225 32.2024 98.4449 32.1051C100.481 31.7756 102.569 32.0839 104.424 32.9876C106.278 33.8914 107.807 35.3465 108.802 37.1534C109.797 38.9604 110.209 41.0308 109.981 43.0809C109.753 45.1311 108.897 47.0606 107.53 48.6051L107.55 48.5801Z" fill="white" fill-opacity="0.3"/>
</svg>
