<svg width="149" height="172" viewBox="0 0 149 172" fill="none" xmlns="http://www.w3.org/2000/svg">
<path d="M71.1105 101.225C68.0003 96.2343 66.0302 91.1564 65.2002 85.9915C64.3703 80.8265 64.5647 75.8739 65.7837 71.1337C67.0026 66.3936 69.1743 62.011 72.2986 57.9862C75.4233 53.9533 79.3746 50.6712 84.1525 48.1398C80.4598 53.8134 78.2153 59.4782 77.419 65.1341C76.6223 70.798 76.7085 76.1747 77.6776 81.2643C75.6673 83.8762 74.0109 87.1155 72.7085 90.9823C71.4107 94.8509 70.8748 98.2666 71.1105 101.225ZM63.1515 96.7244C61.3944 95.8071 59.3603 95.0263 57.0493 94.3819C54.7382 93.7376 52.5138 93.395 50.376 93.3541C50.2532 92.5934 50.0274 91.7022 49.6984 90.6806C49.3695 89.6589 48.9924 88.683 48.5672 87.7527C46.1619 82.491 43.0527 77.9082 39.2398 74.0042C35.4315 70.1021 31.1275 66.9021 26.3275 64.4043C32.1947 64.1609 38.0522 65.3249 43.8999 67.8962C49.7476 70.4674 54.9099 74.5951 59.3866 80.2792C59.3627 82.946 59.7203 85.7441 60.4597 88.6735C61.199 91.603 62.0963 94.2866 63.1515 96.7244Z" fill="#59C9DE"/>
<path d="M57.4656 99.8506C66.3175 102.209 72.854 108.009 77.0749 117.251L61.9892 124.147L57.2303 120.403C53.0641 115.209 47.8751 111.454 41.6635 109.14C35.4519 106.826 29.0714 106.27 22.5219 107.473C23.7429 106.492 24.983 105.61 26.2422 104.825C27.5029 104.043 28.866 103.318 30.3316 102.648C39.5689 98.4248 48.6136 97.4925 57.4656 99.8506Z" fill="#59C9DE"/>
<path d="M105.377 69.5906C100.185 73.7553 96.4504 78.9353 94.1722 85.1305C91.8939 91.3257 91.3176 97.7175 92.4432 104.306L81.971 115.013C81.2071 113.341 80.279 111.656 79.1867 109.958C78.0945 108.259 76.8219 106.666 75.3689 105.18C75.6252 98.662 77.4343 92.3814 80.7961 86.338C84.158 80.2947 89.431 75.6309 96.6153 72.3467C98.0776 71.6783 99.519 71.1239 100.94 70.6836C102.357 70.2448 103.836 69.8805 105.377 69.5906Z" fill="#59C9DE"/>
</svg>
