<svg width="220" height="208" viewBox="0 0 220 208" fill="none" xmlns="http://www.w3.org/2000/svg">
<path d="M170.156 173.625H58.4375C42.7797 173.625 28.2047 168.223 17.398 158.409C6.17891 148.222 0 134.093 0 118.625C0 102.907 5.75352 89.3543 16.6375 79.4286C24.4191 72.3258 34.7789 67.2899 46.3633 64.875C47.4311 64.6541 48.431 64.1823 49.2804 63.4987C50.1299 62.8151 50.8046 61.9392 51.2488 60.9434C55.3733 51.6587 61.5513 43.4313 69.3172 36.8809C80.6781 27.3977 94.7461 22.3746 110 22.3746C127.159 22.3 143.671 28.9119 156.037 40.8082C166.663 51.0391 173.869 64.5614 177.169 80.3395C177.434 81.6334 178.066 82.8235 178.989 83.7677C179.913 84.7118 181.089 85.3699 182.377 85.6633C201.953 90.0161 220 104.2 220 128.937C220 143.284 214.741 155.054 204.785 162.981C196.036 169.942 184.065 173.625 170.156 173.625Z" fill="white"/>
</svg>
