<svg width="643" height="444" viewBox="0 0 643 444" fill="none" xmlns="http://www.w3.org/2000/svg">
<path d="M14.7 285V243.6L109.5 108H166.8V240.6H191.4V285H166.8V324H115.5V285H14.7ZM119.1 164.4L68.7 240.6H119.1V164.4ZM216.527 211.5C216.527 177.1 223.127 150 236.327 130.2C249.727 110.4 271.227 100.5 300.827 100.5C330.427 100.5 351.827 110.4 365.027 130.2C378.427 150 385.127 177.1 385.127 211.5C385.127 246.3 378.427 273.6 365.027 293.4C351.827 313.2 330.427 323.1 300.827 323.1C271.227 323.1 249.727 313.2 236.327 293.4C223.127 273.6 216.527 246.3 216.527 211.5ZM334.727 211.5C334.727 191.3 332.527 175.8 328.127 165C323.727 154 314.627 148.5 300.827 148.5C287.027 148.5 277.927 154 273.527 165C269.127 175.8 266.927 191.3 266.927 211.5C266.927 225.1 267.727 236.4 269.327 245.4C270.927 254.2 274.127 261.4 278.927 267C283.927 272.4 291.227 275.1 300.827 275.1C310.427 275.1 317.627 272.4 322.427 267C327.427 261.4 330.727 254.2 332.327 245.4C333.927 236.4 334.727 225.1 334.727 211.5ZM413.43 285V243.6L508.23 108H565.53V240.6H590.13V285H565.53V324H514.23V285H413.43ZM517.83 164.4L467.43 240.6H517.83V164.4Z" fill="#1E1E1E"/>
<path d="M224.769 166.062C203.78 123.106 223.144 63 223.144 63C249.244 63 275.453 90.9488 284.805 102.041L257.994 137.972C257.95 138.03 257.906 138.088 257.864 138.146L224.769 166.062Z" fill="#1E1E1E"/>
<path d="M388.661 68C388.661 68 399.525 119.106 378.536 162.062L353.942 143.146C353.614 142.697 353.249 142.271 352.851 141.873C350.812 139.833 329.884 107.041 327 107.041C336.352 95.9488 362.561 68 388.661 68Z" fill="#1E1E1E"/>
<path d="M232.388 83.3696L262.553 102.178C262.553 102.178 252 102.178 244.5 106.5C237 110.822 230.198 120.271 230.198 120.271L232.388 83.3696Z" fill="white" stroke="white"/>
<path d="M376.724 88.6337L345.839 106.234C345.839 106.234 356.383 106.652 363.707 111.267C371.03 115.882 377.453 125.593 377.453 125.593L376.724 88.6337Z" fill="white" stroke="white"/>
</svg>
