<svg width="1920" height="1080" viewBox="0 0 1920 1080" fill="none" xmlns="http://www.w3.org/2000/svg">
<g clip-path="url(#clip0_290_1125)">
<path d="M1679.97 993.047C1707.5 1009.64 1743.45 1000.73 1760.05 973.203C1776.64 945.675 1767.73 909.722 1740.2 893.129C1712.67 876.536 1676.72 885.446 1660.13 912.974L1630.01 962.932L1640.01 968.955L1652.14 948.822C1653.94 966.523 1663.64 983.2 1679.97 993.047ZM1711.01 981.106C1686.23 966.169 1678.21 933.819 1693.15 909.039C1695.89 904.493 1699.27 900.468 1703.24 896.935L1704.11 896.847C1687.8 928.086 1697.38 966.762 1726.39 986.769L1725.58 987.098C1720.47 985.857 1715.56 983.846 1711.01 981.106ZM1742.2 909.25C1733.11 918.345 1721.04 923.673 1708.03 924.346C1708.77 915.664 1711.34 906.996 1716.13 899.052C1716.55 898.353 1717.07 897.714 1717.54 897.044C1723.25 897.967 1728.88 899.929 1734.13 903.091C1737.08 904.868 1739.76 906.964 1742.15 909.22L1742.2 909.25ZM1738.13 980.291C1737.43 979.869 1736.67 979.547 1735.97 979.126C1729.98 975.512 1724.9 970.95 1720.75 965.729C1734.81 962.088 1747.38 954.13 1756.68 942.973C1756.71 951.471 1754.41 959.816 1750.03 967.1C1746.87 972.345 1742.78 976.759 1738.16 980.241L1738.13 980.291ZM1753.76 926.911C1753.52 927.31 1753.33 927.74 1753.08 928.14C1744.47 942.428 1730.31 952.143 1713.94 955.221C1710.91 949.172 1709 942.636 1708.24 935.981C1723.87 935.253 1738.44 929.05 1749.56 918.389C1751.26 921.113 1752.68 923.947 1753.76 926.911ZM1681.27 906.374C1666.24 935.045 1675.02 970.648 1701.73 988.93C1696.26 987.948 1690.94 986.037 1685.9 982.995C1663.86 969.714 1656.74 940.968 1670.02 918.936C1673.03 913.94 1676.87 909.716 1681.25 906.294L1681.27 906.374Z" fill="#111111" fill-opacity="0.22"/>
<path d="M872.972 697.047C900.499 713.64 936.452 704.73 953.046 677.203C969.639 649.675 960.729 613.722 933.201 597.129C905.674 580.536 869.721 589.446 853.128 616.974L823.013 666.932L833.005 672.955L845.141 652.822C846.936 670.523 856.636 687.2 872.972 697.047ZM904.009 685.106C879.23 670.169 871.213 637.819 886.149 613.039C888.89 608.493 892.269 604.468 896.238 600.935L897.109 600.847C880.798 632.086 890.383 670.762 919.394 690.769L918.583 691.098C913.473 689.857 908.556 687.846 904.009 685.106ZM935.199 613.25C926.107 622.345 914.041 627.673 901.034 628.346C901.772 619.664 904.341 610.996 909.129 603.052C909.551 602.353 910.072 601.714 910.544 601.044C916.254 601.967 921.883 603.929 927.128 607.091C930.076 608.868 932.763 610.964 935.149 613.22L935.199 613.25ZM931.132 684.291C930.433 683.869 929.673 683.547 928.974 683.126C922.979 679.512 917.896 674.95 913.755 669.729C927.814 666.088 940.378 658.13 949.676 646.973C949.709 655.471 947.411 663.816 943.034 671.1C939.872 676.345 935.781 680.759 931.162 684.241L931.132 684.291ZM946.758 630.911C946.517 631.31 946.326 631.74 946.085 632.14C937.472 646.428 923.306 656.143 906.943 659.221C903.915 653.172 901.997 646.636 901.24 639.981C916.868 639.253 931.437 633.05 942.563 622.389C944.259 625.113 945.683 627.947 946.758 630.911ZM874.27 610.374C859.235 639.045 868.016 674.648 894.729 692.93C889.259 691.948 883.941 690.037 878.895 686.995C856.863 673.714 849.739 644.968 863.02 622.936C866.031 617.94 869.871 613.716 874.25 610.294L874.27 610.374Z" fill="#111111" fill-opacity="0.22"/>
<path d="M1482.33 389.942C1481.28 390.329 1463.52 396.718 1459.28 382.896C1454.2 366.289 1480.86 356.034 1493.07 356.226C1505.42 356.42 1522.54 400.623 1497.98 403.09C1493.52 403.392 1486.18 398.699 1482.33 389.942Z" fill="#111111" fill-opacity="0.22"/>
<ellipse cx="10.4756" cy="15.7947" rx="10.4756" ry="15.7947" transform="matrix(0.474739 0.880126 -0.88589 0.463895 1542.31 355.678)" fill="#111111" fill-opacity="0.22"/>
<ellipse cx="10.4963" cy="15.7624" rx="10.4963" ry="15.7624" transform="matrix(0.783686 0.621157 -0.618709 0.785621 1522.23 321.86)" fill="#111111" fill-opacity="0.22"/>
<ellipse cx="10.6044" cy="14.8562" rx="10.6044" ry="14.8562" transform="matrix(0.998709 0.0507944 -0.0312528 0.999511 1479.29 315.797)" fill="#111111" fill-opacity="0.22"/>
<ellipse cx="10.5357" cy="14.9523" rx="10.5357" ry="14.9523" transform="matrix(0.958538 -0.284966 0.301396 0.953499 1444.47 328.571)" fill="#111111" fill-opacity="0.22"/>
<path d="M764.331 202.942C763.277 203.329 745.517 209.718 741.283 195.896C736.196 179.289 762.862 169.034 775.068 169.226C787.418 169.42 804.542 213.622 779.979 216.09C775.523 216.392 768.181 211.699 764.331 202.942Z" fill="#111111" fill-opacity="0.22"/>
<ellipse cx="10.4756" cy="15.7947" rx="10.4756" ry="15.7947" transform="matrix(0.474739 0.880126 -0.88589 0.463895 824.309 168.678)" fill="#111111" fill-opacity="0.22"/>
<ellipse cx="10.4963" cy="15.7624" rx="10.4963" ry="15.7624" transform="matrix(0.783686 0.621157 -0.618709 0.785621 804.232 134.86)" fill="#111111" fill-opacity="0.22"/>
<ellipse cx="10.6044" cy="14.8562" rx="10.6044" ry="14.8562" transform="matrix(0.998709 0.0507944 -0.0312528 0.999511 761.287 128.797)" fill="#111111" fill-opacity="0.22"/>
<ellipse cx="10.5357" cy="14.9523" rx="10.5357" ry="14.9523" transform="matrix(0.958538 -0.284966 0.301396 0.953499 726.471 141.571)" fill="#111111" fill-opacity="0.22"/>
<path d="M155.669 510.764C155.214 511.79 147.463 528.999 134.583 522.435C119.108 514.548 130.272 488.249 138.895 479.608C147.618 470.865 191.299 489.281 175.999 508.654C173.118 512.068 164.641 514.083 155.669 510.764Z" fill="#111111" fill-opacity="0.22"/>
<ellipse cx="10.4756" cy="15.7947" rx="10.4756" ry="15.7947" transform="matrix(0.962716 0.270514 -0.282316 0.959321 172.729 443.829)" fill="#111111" fill-opacity="0.22"/>
<ellipse cx="10.4963" cy="15.7624" rx="10.4963" ry="15.7624" transform="matrix(0.991303 -0.1316 0.134693 0.990887 134.462 434.754)" fill="#111111" fill-opacity="0.22"/>
<ellipse cx="10.6044" cy="14.8562" rx="10.6044" ry="14.8562" transform="matrix(0.730744 -0.682652 0.696812 0.717254 100.252 461.411)" fill="#111111" fill-opacity="0.22"/>
<ellipse cx="10.5357" cy="14.9523" rx="10.5357" ry="14.9523" transform="matrix(0.461446 -0.887168 0.894967 0.446132 85.2324 495.321)" fill="#111111" fill-opacity="0.22"/>
<path d="M227.798 130.051C223.575 124.966 217.531 121.733 210.957 121.043C210.539 117.245 209.272 113.59 207.249 110.348C205.227 107.107 202.5 104.362 199.271 102.318C196.043 100.274 192.396 98.9836 188.601 98.5415C184.805 98.0995 180.959 98.5176 177.348 99.7648C173.736 101.012 170.451 103.056 167.738 105.746C165.024 108.436 162.951 111.703 161.671 115.303C160.392 118.904 159.94 122.746 160.349 126.545C160.757 130.344 162.016 134.002 164.031 137.249C164.034 137.267 164.034 137.286 164.031 137.305L114.32 187.052H114.249C111.003 185.037 107.344 183.778 103.545 183.37C99.7463 182.961 95.904 183.413 92.3035 184.692C88.703 185.971 85.4367 188.045 82.7468 190.758C80.0569 193.472 78.0125 196.757 76.7653 200.368C75.5181 203.98 75.1 207.826 75.542 211.621C75.9841 215.417 77.2749 219.064 79.3189 222.292C81.3628 225.521 84.1073 228.247 87.3489 230.27C90.5904 232.293 94.2459 233.56 98.044 233.978C98.4613 237.776 99.7285 241.431 101.751 244.673C103.774 247.914 106.501 250.659 109.729 252.703C112.958 254.747 116.605 256.037 120.4 256.48C124.195 256.922 128.042 256.503 131.653 255.256C135.265 254.009 138.549 251.965 141.263 249.275C143.977 246.585 146.05 243.319 147.329 239.718C148.608 236.118 149.061 232.275 148.652 228.476C148.244 224.677 146.985 221.019 144.97 217.772V217.716L194.709 167.969H194.78C199.917 171.204 206.04 172.497 212.046 171.615C218.052 170.732 223.545 167.732 227.534 163.155C231.522 158.579 233.744 152.728 233.797 146.657C233.851 140.587 231.733 134.697 227.827 130.051H227.798ZM218.911 155.695C216.699 158.228 213.657 159.889 210.331 160.382C207.005 160.874 203.612 160.165 200.761 158.382C198.591 157.005 196.017 156.408 193.462 156.689C190.907 156.971 188.524 158.114 186.706 159.93L136.931 209.705C135.119 211.527 133.981 213.912 133.704 216.466C133.428 219.021 134.03 221.594 135.411 223.761C136.614 225.697 137.332 227.896 137.502 230.17C137.673 232.444 137.291 234.725 136.389 236.82C135.487 238.914 134.092 240.759 132.323 242.198C130.554 243.636 128.463 244.626 126.229 245.082C123.995 245.538 121.683 245.447 119.492 244.816C117.301 244.186 115.294 243.035 113.644 241.461C111.994 239.888 110.748 237.939 110.014 235.78C109.28 233.621 109.078 231.317 109.427 229.064C109.554 228.256 109.504 227.431 109.281 226.645C109.058 225.858 108.668 225.13 108.136 224.509C107.605 223.888 106.945 223.389 106.202 223.048C105.46 222.707 104.652 222.53 103.835 222.531C103.543 222.533 103.253 222.557 102.965 222.601C100.714 222.948 98.4125 222.745 96.2566 222.011C94.1007 221.276 92.1541 220.032 90.5823 218.384C89.0106 216.736 87.8602 214.732 87.229 212.544C86.5979 210.355 86.5047 208.047 86.9573 205.815C87.4099 203.583 88.3949 201.493 89.8286 199.723C91.2623 197.954 93.1023 196.557 95.1919 195.651C97.2816 194.745 99.5591 194.357 101.831 194.521C104.102 194.684 106.301 195.394 108.239 196.59C110.41 197.967 112.984 198.564 115.539 198.282C118.094 198.001 120.477 196.858 122.295 195.041L172.07 145.266C173.875 143.446 175.009 141.067 175.285 138.519C175.561 135.97 174.964 133.403 173.59 131.239C172.386 129.302 171.669 127.103 171.498 124.83C171.328 122.556 171.71 120.274 172.612 118.18C173.514 116.086 174.909 114.241 176.678 112.802C178.447 111.364 180.538 110.374 182.772 109.918C185.006 109.462 187.317 109.553 189.509 110.184C191.7 110.814 193.706 111.965 195.357 113.538C197.007 115.112 198.253 117.061 198.987 119.22C199.721 121.378 199.922 123.683 199.574 125.936C199.436 126.816 199.508 127.716 199.784 128.563C200.06 129.41 200.533 130.18 201.162 130.81C201.792 131.439 202.562 131.912 203.409 132.188C204.256 132.464 205.156 132.536 206.036 132.398C208.915 131.932 211.868 132.368 214.49 133.646C217.112 134.924 219.275 136.982 220.682 139.537C222.089 142.092 222.671 145.02 222.349 147.919C222.027 150.818 220.816 153.546 218.883 155.73L218.911 155.695Z" fill="#111111" fill-opacity="0.22"/>
<path d="M1424.04 646.949C1419.14 641.049 1412.13 637.298 1404.5 636.498C1404.02 632.091 1402.55 627.85 1400.2 624.089C1397.85 620.328 1394.69 617.144 1390.95 614.773C1387.2 612.401 1382.97 610.904 1378.56 610.391C1374.16 609.878 1369.7 610.363 1365.51 611.81C1361.32 613.257 1357.51 615.629 1354.36 618.75C1351.21 621.871 1348.8 625.66 1347.32 629.838C1345.84 634.015 1345.31 638.473 1345.79 642.881C1346.26 647.289 1347.72 651.533 1350.06 655.3C1350.06 655.321 1350.06 655.343 1350.06 655.365L1292.38 713.082H1292.3C1288.53 710.744 1284.29 709.284 1279.88 708.81C1275.47 708.336 1271.02 708.861 1266.84 710.345C1262.66 711.829 1258.87 714.234 1255.75 717.383C1252.63 720.531 1250.26 724.342 1248.81 728.532C1247.36 732.723 1246.88 737.185 1247.39 741.589C1247.9 745.992 1249.4 750.223 1251.77 753.969C1254.15 757.715 1257.33 760.878 1261.09 763.225C1264.85 765.572 1269.09 767.042 1273.5 767.527C1273.98 771.933 1275.45 776.174 1277.8 779.935C1280.15 783.696 1283.31 786.88 1287.06 789.252C1290.8 791.623 1295.03 793.121 1299.44 793.634C1303.84 794.147 1308.3 793.662 1312.49 792.215C1316.68 790.767 1320.49 788.395 1323.64 785.275C1326.79 782.154 1329.2 778.364 1330.68 774.187C1332.16 770.009 1332.69 765.551 1332.22 761.144C1331.74 756.736 1330.28 752.491 1327.94 748.725V748.659L1385.65 690.942H1385.73C1391.69 694.696 1398.8 696.196 1405.77 695.172C1412.74 694.148 1419.11 690.667 1423.74 685.357C1428.36 680.047 1430.94 673.259 1431 666.216C1431.07 659.173 1428.61 652.34 1424.08 646.949H1424.04ZM1413.73 676.702C1411.17 679.64 1407.64 681.568 1403.78 682.139C1399.92 682.71 1395.98 681.888 1392.67 679.819C1390.16 678.221 1387.17 677.528 1384.2 677.855C1381.24 678.181 1378.48 679.508 1376.37 681.615L1318.62 739.365C1316.51 741.479 1315.19 744.246 1314.87 747.21C1314.55 750.174 1315.25 753.159 1316.85 755.673C1318.25 757.92 1319.08 760.471 1319.28 763.109C1319.48 765.747 1319.03 768.394 1317.99 770.824C1316.94 773.254 1315.32 775.395 1313.27 777.064C1311.22 778.733 1308.79 779.881 1306.2 780.41C1303.61 780.939 1300.93 780.833 1298.38 780.102C1295.84 779.37 1293.51 778.035 1291.6 776.21C1289.68 774.384 1288.24 772.123 1287.39 769.618C1286.53 767.113 1286.3 764.44 1286.71 761.825C1286.85 760.889 1286.8 759.931 1286.54 759.019C1286.28 758.106 1285.82 757.261 1285.21 756.54C1284.59 755.82 1283.83 755.242 1282.96 754.846C1282.1 754.45 1281.17 754.245 1280.22 754.246C1279.88 754.249 1279.54 754.276 1279.21 754.328C1276.6 754.729 1273.93 754.494 1271.43 753.642C1268.92 752.79 1266.67 751.347 1264.84 749.434C1263.02 747.522 1261.68 745.198 1260.95 742.659C1260.22 740.12 1260.11 737.441 1260.64 734.852C1261.16 732.262 1262.3 729.837 1263.97 727.784C1265.63 725.731 1267.77 724.11 1270.19 723.059C1272.61 722.008 1275.26 721.558 1277.89 721.748C1280.53 721.938 1283.08 722.761 1285.33 724.148C1287.85 725.746 1290.83 726.439 1293.8 726.112C1296.76 725.786 1299.53 724.459 1301.64 722.352L1359.39 664.602C1361.48 662.49 1362.8 659.73 1363.12 656.773C1363.44 653.816 1362.74 650.838 1361.15 648.327C1359.75 646.08 1358.92 643.529 1358.72 640.891C1358.52 638.253 1358.97 635.606 1360.01 633.176C1361.06 630.746 1362.68 628.605 1364.73 626.936C1366.78 625.267 1369.21 624.119 1371.8 623.59C1374.39 623.061 1377.08 623.167 1379.62 623.898C1382.16 624.63 1384.49 625.965 1386.4 627.79C1388.32 629.616 1389.76 631.877 1390.61 634.382C1391.47 636.887 1391.7 639.56 1391.3 642.175C1391.14 643.196 1391.22 644.24 1391.54 645.223C1391.86 646.205 1392.41 647.098 1393.14 647.829C1393.87 648.56 1394.76 649.108 1395.75 649.428C1396.73 649.748 1397.77 649.832 1398.79 649.672C1402.13 649.132 1405.56 649.637 1408.6 651.12C1411.64 652.603 1414.15 654.99 1415.79 657.955C1417.42 660.919 1418.09 664.316 1417.72 667.679C1417.35 671.043 1415.94 674.209 1413.7 676.743L1413.73 676.702Z" fill="#111111" fill-opacity="0.22"/>
<g clip-path="url(#clip1_290_1125)">
<path d="M1790.93 173.267C1798.16 176.114 1804.77 180.346 1810.38 185.724C1815.97 191.095 1820.45 197.533 1823.61 204.667C1826.72 211.761 1828.38 219.427 1828.53 227.207C1828.69 234.987 1827.34 242.714 1824.51 249.926C1821.64 257.181 1817.42 263.793 1812.05 269.382C1801.19 280.688 1786.26 287.263 1770.57 287.535C1762.8 287.701 1755.08 286.331 1747.84 283.502C1740.6 280.674 1733.99 276.443 1728.4 271.054C1722.8 265.66 1718.3 259.225 1715.17 252.111C1712.06 244.994 1710.39 237.335 1710.24 229.571C1710.08 221.802 1711.45 214.077 1714.28 206.839C1717.1 199.601 1721.33 192.994 1726.72 187.396C1737.59 176.09 1752.52 169.515 1768.21 169.243C1775.99 169.088 1783.71 170.44 1790.93 173.267ZM1722.38 233.68C1723.59 244.662 1728.62 254.869 1736.59 262.524C1744.56 270.179 1754.96 274.797 1765.98 275.575C1767.33 262.461 1773.04 250.178 1782.19 240.687C1791.7 230.789 1803.8 224.94 1816.4 223.098C1815.19 212.114 1810.16 201.905 1802.18 194.257C1794.16 186.551 1783.78 181.988 1772.8 181.203C1771.43 194.313 1765.73 206.592 1756.59 216.091C1747.08 225.989 1734.94 231.881 1722.38 233.68ZM1722.51 221.668C1731.93 219.89 1740.92 215.316 1748.06 207.893C1755.19 200.469 1759.4 191.304 1760.76 181.862C1751.03 183.662 1742.11 188.465 1735.26 195.595C1728.37 202.762 1723.95 211.889 1722.51 221.668ZM1816.22 235.153C1806.49 236.942 1797.57 241.746 1790.72 248.886C1783.59 256.309 1779.38 265.474 1777.98 274.959C1787.72 273.147 1796.65 268.33 1803.52 261.183C1810.41 254.016 1814.83 244.889 1816.22 235.153Z" fill="#111111" fill-opacity="0.22"/>
</g>
<g clip-path="url(#clip2_290_1125)">
<path d="M696.925 358.267C704.159 361.114 710.768 365.346 716.381 370.724C721.971 376.095 726.451 382.533 729.607 389.667C732.719 396.761 734.379 404.427 734.534 412.207C734.69 419.987 733.338 427.714 730.511 434.926C727.643 442.181 723.423 448.793 718.053 454.382C707.19 465.688 692.257 472.263 676.57 472.535C668.801 472.701 661.076 471.331 653.839 468.502C646.601 465.674 639.993 461.443 634.395 456.054C628.797 450.66 624.305 444.225 621.17 437.111C618.065 429.994 616.39 422.335 616.243 414.571C616.076 406.802 617.447 399.077 620.275 391.839C623.104 384.601 627.334 377.994 632.724 372.396C643.587 361.09 658.52 354.515 674.207 354.243C681.987 354.088 689.713 355.44 696.925 358.267ZM628.376 418.68C629.594 429.662 634.624 439.869 642.591 447.524C650.558 455.179 660.958 459.797 671.979 460.575C673.332 447.461 679.038 435.178 688.188 425.687C697.698 415.789 709.8 409.94 722.401 408.098C721.192 397.114 716.159 386.905 708.183 379.257C700.162 371.551 689.777 366.988 678.798 366.203C677.432 379.313 671.727 391.592 662.589 401.091C653.079 410.989 640.936 416.881 628.376 418.68ZM628.513 406.668C637.934 404.89 646.923 400.316 654.056 392.893C661.189 385.469 665.4 376.304 666.759 366.862C657.032 368.662 648.114 373.465 641.257 380.595C634.37 387.762 629.949 396.889 628.513 406.668ZM722.223 420.153C712.492 421.942 703.57 426.746 696.721 433.886C689.588 441.309 685.377 450.474 683.977 459.959C693.721 458.147 702.653 453.33 709.52 446.183C716.407 439.016 720.828 429.889 722.223 420.153Z" fill="#111111" fill-opacity="0.22"/>
</g>
<path d="M337.985 651.554C319.244 659.893 303.042 669.183 292.192 677.286C286.766 681.337 282.681 685.122 280.365 688.103C279.207 689.594 278.511 690.88 278.232 691.733C277.954 692.585 278.052 692.846 278.103 692.96C278.153 693.075 278.282 693.323 279.101 693.686C279.921 694.049 281.343 694.393 283.225 694.531C286.991 694.807 292.537 694.307 299.179 692.989C301.075 692.613 303.071 692.165 305.139 691.661C306.089 689.623 310.66 686.115 318.025 681.773C325.39 677.43 335.063 672.54 345.296 667.985C355.53 663.433 365.64 659.52 373.8 656.955C381.959 654.389 387.629 653.34 389.785 653.996C391.537 652.802 393.201 651.622 394.745 650.469C400.17 646.418 404.255 642.633 406.571 639.651C407.729 638.161 408.425 636.874 408.704 636.022C408.983 635.17 408.885 634.908 408.834 634.794C408.783 634.68 408.654 634.432 407.835 634.069C407.016 633.706 405.594 633.361 403.711 633.223C399.946 632.947 394.4 633.448 387.758 634.766C374.474 637.401 356.726 643.216 337.985 651.554ZM278.179 700.805L280.885 745.96L280.885 745.998C280.933 747.243 281.209 747.713 281.992 748.351C282.776 748.988 284.315 749.656 286.62 750.003C291.229 750.697 298.583 750.096 307.381 748.271C324.976 744.621 348.508 736.303 371.2 726.207C393.893 716.11 415.826 704.199 430.317 693.573C437.563 688.261 442.933 683.2 445.503 679.311C446.788 677.367 447.323 675.777 447.374 674.768C447.425 673.758 447.26 673.239 446.367 672.37L446.34 672.344L414.61 640.103C413.97 641.403 413.134 642.675 412.129 643.968C409.158 647.792 404.69 651.825 398.956 656.107C387.487 664.672 370.946 674.116 351.812 682.63C332.677 691.143 314.587 697.107 300.547 699.892C293.527 701.284 287.54 701.904 282.711 701.55C281.078 701.43 279.573 701.2 278.179 700.805Z" fill="#111111" fill-opacity="0.22"/>
<path d="M1133.99 155.554C1115.24 163.893 1099.04 173.183 1088.19 181.286C1082.77 185.337 1078.68 189.122 1076.37 192.104C1075.21 193.594 1074.51 194.881 1074.23 195.733C1073.95 196.585 1074.05 196.847 1074.1 196.96C1074.15 197.075 1074.28 197.323 1075.1 197.686C1075.92 198.049 1077.34 198.394 1079.23 198.532C1082.99 198.807 1088.54 198.307 1095.18 196.989C1097.07 196.613 1099.07 196.165 1101.14 195.661C1102.09 193.623 1106.66 190.115 1114.03 185.773C1121.39 181.431 1131.06 176.54 1141.3 171.985C1151.53 167.433 1161.64 163.521 1169.8 160.955C1177.96 158.389 1183.63 157.34 1185.78 157.997C1187.54 156.802 1189.2 155.622 1190.75 154.469C1196.17 150.418 1200.26 146.633 1202.57 143.651C1203.73 142.161 1204.43 140.874 1204.7 140.022C1204.98 139.17 1204.88 138.908 1204.83 138.794C1204.78 138.68 1204.65 138.432 1203.84 138.069C1203.02 137.706 1201.59 137.361 1199.71 137.223C1195.95 136.948 1190.4 137.448 1183.76 138.766C1170.47 141.401 1152.73 147.216 1133.99 155.554ZM1074.18 204.805L1076.88 249.96L1076.89 249.998C1076.93 251.243 1077.21 251.713 1077.99 252.351C1078.78 252.988 1080.31 253.656 1082.62 254.003C1087.23 254.697 1094.58 254.097 1103.38 252.271C1120.98 248.621 1144.51 240.303 1167.2 230.207C1189.89 220.11 1211.83 208.2 1226.32 197.574C1233.56 192.261 1238.93 187.2 1241.5 183.311C1242.79 181.367 1243.32 179.777 1243.37 178.768C1243.43 177.759 1243.26 177.239 1242.37 176.37L1242.34 176.344L1210.61 144.103C1209.97 145.404 1209.13 146.675 1208.13 147.968C1205.16 151.793 1200.69 155.825 1194.96 160.107C1183.49 168.672 1166.95 178.116 1147.81 186.63C1128.68 195.143 1110.59 201.107 1096.55 203.892C1089.53 205.285 1083.54 205.904 1078.71 205.55C1077.08 205.43 1075.57 205.2 1074.18 204.805Z" fill="#111111" fill-opacity="0.22"/>
<path fill-rule="evenodd" clip-rule="evenodd" d="M1700.53 556.533C1701.46 558.145 1702.43 559.629 1703.43 560.986C1704.19 562.028 1704.65 563.256 1704.77 564.539C1704.88 565.822 1704.65 567.113 1704.09 568.274L1697.42 581.937C1697.17 582.379 1697.04 582.869 1697.01 583.372C1696.98 583.875 1697.06 584.377 1697.25 584.844C1704.58 601.318 1714.72 611.874 1727.11 616.761C1739.53 621.675 1755.48 621.361 1775.36 613.568C1795.23 605.774 1807.13 595.153 1812.91 583.116C1818.68 571.109 1818.94 556.472 1813.11 539.411C1812.93 538.939 1812.66 538.513 1812.29 538.164C1811.93 537.814 1811.5 537.549 1811.02 537.388L1796.84 531.914C1795.64 531.44 1794.59 530.648 1793.8 529.624C1793.01 528.599 1792.52 527.379 1792.37 526.095C1792.18 524.534 1791.9 522.9 1791.54 521.195C1789.9 520.567 1788.21 520.068 1786.49 519.702C1782.58 518.887 1778.63 518.33 1774.65 518.036C1767.29 517.43 1759.88 517.408 1752.51 517.969C1751.89 518.177 1751.24 518.293 1750.58 518.313C1750.7 518.297 1750.69 518.302 1750.55 518.326C1749.83 518.424 1745.76 518.966 1739.26 521.514C1732.77 524.058 1729.4 526.447 1728.81 526.861C1728.7 526.946 1728.69 526.95 1728.78 526.874C1728.18 527.406 1727.48 527.827 1726.73 528.116C1722.09 531.711 1715.96 537.32 1710.58 543.175C1707.63 546.398 1705.01 549.576 1703.03 552.441C1702.1 553.748 1701.26 555.108 1700.53 556.533ZM1787.47 475.716C1783.22 468.267 1774.08 465.096 1766.51 468.137C1763.64 469.224 1761.14 471.098 1759.3 473.542C1750.68 484.647 1747.14 495.235 1744.39 505.111C1740.88 505.933 1737.44 507.011 1734.09 508.338C1729.77 510.031 1726.43 511.742 1724.03 513.135C1715.27 507.769 1705.47 502.389 1691.57 500.089C1688.63 499.573 1685.61 499.868 1682.82 500.941C1675.3 503.905 1670.82 512.381 1672.76 520.684C1674.82 529.49 1677.72 539.765 1681.49 549.284C1683.01 553.16 1684.69 556.898 1686.5 560.358L1686.59 560.529C1687.55 562.349 1688.55 564.092 1689.59 565.757L1684.71 575.727C1683.57 578.024 1682.94 580.544 1682.87 583.11C1682.81 585.677 1683.31 588.226 1684.34 590.577C1692.7 609.427 1705.16 623.306 1721.92 629.917C1738.66 636.512 1758.44 635.39 1780.52 626.733C1802.59 618.076 1817.87 605.463 1825.67 589.245C1833.46 572.991 1833.16 554.345 1826.49 534.846C1825.64 532.426 1824.27 530.22 1822.48 528.383C1820.69 526.546 1818.52 525.121 1816.12 524.208L1805.76 520.201C1803.01 505.591 1794.74 488.478 1787.46 475.706M1736.17 555.023C1735.49 553.277 1734.14 551.875 1732.42 551.124C1730.7 550.374 1728.76 550.337 1727.01 551.022C1725.26 551.706 1723.86 553.057 1723.11 554.775C1722.36 556.494 1722.32 558.44 1723.01 560.186L1725.03 565.347C1725.72 567.093 1727.07 568.495 1728.79 569.246C1730.5 569.996 1732.45 570.033 1734.2 569.348C1735.94 568.664 1737.35 567.313 1738.1 565.595C1738.85 563.876 1738.88 561.93 1738.2 560.184L1736.17 555.023ZM1768.3 534.831C1771.93 533.406 1776.04 535.199 1777.46 538.833L1779.49 543.993C1780.17 545.739 1780.13 547.686 1779.38 549.404C1778.63 551.123 1777.23 552.473 1775.48 553.158C1773.74 553.842 1771.79 553.805 1770.07 553.055C1768.35 552.305 1767 550.902 1766.32 549.156L1764.3 543.995C1762.87 540.362 1764.66 536.256 1768.3 534.831ZM1756.23 584.004C1752.99 582.911 1750.02 581.131 1747.53 578.786C1746.67 577.917 1746.03 576.851 1745.67 575.681C1745.31 574.511 1745.24 573.27 1745.46 572.066C1745.82 570.209 1746.83 568.541 1748.31 567.364C1749.82 566.164 1752.33 564.522 1755.62 563.233C1758.9 561.944 1761.88 561.435 1763.79 561.293C1765.3 561.185 1767.29 561.476 1769.07 562.805C1771 564.239 1772.21 566.558 1772.12 569.146C1771.89 572.555 1770.93 575.875 1769.3 578.879C1769.56 579.202 1770.59 580.001 1772.31 579.948C1773.06 579.931 1773.79 579.707 1774.42 579.3C1775.26 578.704 1775.9 577.873 1776.27 576.911C1777.02 575.193 1778.42 573.842 1780.17 573.157C1781.91 572.473 1783.86 572.51 1785.58 573.26C1787.3 574.011 1788.65 575.413 1789.33 577.159C1790.02 578.905 1789.98 580.852 1789.23 582.571C1785.9 590.196 1779.31 593.848 1772.82 594.075C1771.02 594.131 1769.22 593.935 1767.48 593.493C1766.5 595.02 1765.31 596.4 1763.97 597.545C1759.05 601.795 1751.73 603.594 1744.11 600.265C1743.26 599.893 1742.49 599.358 1741.84 598.689C1741.2 598.02 1740.69 597.23 1740.36 596.366C1740.02 595.501 1739.85 594.578 1739.87 593.65C1739.89 592.721 1740.09 591.805 1740.46 590.954C1740.83 590.103 1741.37 589.334 1742.03 588.689C1742.7 588.045 1743.49 587.539 1744.36 587.2C1745.22 586.861 1746.14 586.696 1747.07 586.714C1748 586.731 1748.92 586.931 1749.77 587.303C1750.69 587.759 1751.73 587.932 1752.75 587.8C1753.48 587.676 1754.14 587.355 1754.74 586.837C1756.05 585.715 1756.26 584.418 1756.23 584.004Z" fill="#111111" fill-opacity="0.22"/>
<path fill-rule="evenodd" clip-rule="evenodd" d="M541.795 841.017C541.121 842.752 540.569 844.435 540.137 846.065C539.799 847.309 539.131 848.437 538.202 849.331C537.274 850.225 536.12 850.85 534.865 851.14L520.032 854.485C519.536 854.574 519.067 854.773 518.657 855.066C518.248 855.359 517.909 855.739 517.665 856.179C509.397 872.201 507.511 886.718 511.454 899.441C515.389 912.2 525.618 924.447 544.135 935.072C562.651 945.697 578.382 948.333 591.388 945.308C604.362 942.292 615.943 933.337 625.604 918.115C625.861 917.682 626.018 917.198 626.064 916.696C626.111 916.195 626.045 915.689 625.872 915.217L621.27 900.733C620.887 899.498 620.846 898.183 621.153 896.928C621.46 895.673 622.102 894.524 623.011 893.606C624.11 892.479 625.211 891.242 626.315 889.893C625.776 888.217 625.107 886.586 624.315 885.015C622.508 881.459 620.469 878.028 618.209 874.742C614.071 868.616 609.455 862.827 604.404 857.429C603.852 857.072 603.355 856.638 602.928 856.138C603.017 856.224 603.007 856.219 602.898 856.121C602.374 855.625 599.4 852.784 593.346 849.31C587.301 845.841 583.332 844.711 582.639 844.51C582.503 844.475 582.493 844.469 582.61 844.493C581.816 844.354 581.052 844.075 580.356 843.669C574.647 842.298 566.439 841.031 558.503 840.495C554.141 840.209 550.024 840.156 546.553 840.408C544.953 840.501 543.367 840.698 541.795 841.017ZM659.236 858.253C662.39 850.279 659.142 841.164 652.033 837.163C649.392 835.609 646.366 834.831 643.303 834.919C629.252 835.152 618.778 839.016 609.354 843.052C606.517 840.829 603.521 838.817 600.39 837.034C596.366 834.725 592.942 833.191 590.35 832.186C589.059 822.002 587.121 810.99 580.213 798.704C578.778 796.09 576.656 793.917 574.077 792.418C567.055 788.402 557.642 790.214 552.382 796.926C546.8 804.04 540.6 812.731 535.534 821.628C533.462 825.239 531.6 828.893 530.032 832.467L529.956 832.645C529.135 834.53 528.401 836.4 527.754 838.255L516.926 840.69C514.418 841.234 512.059 842.322 510.017 843.878C507.975 845.433 506.3 847.418 505.109 849.692C495.64 868.011 492.609 886.411 497.941 903.623C503.275 920.81 516.529 935.537 537.096 947.338C557.664 959.14 577.061 963.161 594.59 959.094C612.147 955.002 626.502 943.1 637.535 925.692C638.89 923.513 639.754 921.065 640.066 918.519C640.378 915.972 640.132 913.388 639.343 910.947L635.988 900.36C645.661 889.072 653.836 871.915 659.242 858.243M565.28 867.875C566.213 866.248 566.462 864.318 565.972 862.508C565.482 860.697 564.292 859.156 562.666 858.223C561.039 857.29 559.109 857.041 557.299 857.531C555.488 858.021 553.947 859.21 553.014 860.837L550.255 865.645C549.322 867.271 549.073 869.202 549.563 871.012C550.053 872.822 551.242 874.364 552.869 875.297C554.495 876.23 556.426 876.479 558.236 875.989C560.046 875.499 561.587 874.31 562.521 872.683L565.28 867.875ZM601.132 880.295C604.517 882.237 605.688 886.561 603.745 889.947L600.986 894.755C600.053 896.381 598.512 897.571 596.702 898.061C594.892 898.551 592.961 898.302 591.334 897.369C589.708 896.435 588.519 894.894 588.029 893.084C587.538 891.274 587.787 889.343 588.721 887.717L591.48 882.908C593.422 879.523 597.746 878.352 601.132 880.295ZM555.224 901.653C554.05 898.441 553.582 895.014 553.854 891.606C553.992 890.389 554.422 889.223 555.109 888.208C555.795 887.194 556.718 886.361 557.796 885.781C559.468 884.898 561.401 884.642 563.245 885.06C565.126 885.487 567.981 886.421 571.043 888.178C574.105 889.934 576.362 891.934 577.67 893.337C578.701 894.45 579.716 896.18 579.796 898.405C579.882 900.802 578.832 903.199 576.757 904.748C573.955 906.703 570.764 908.031 567.401 908.64C567.312 909.046 567.334 910.349 568.45 911.655C568.933 912.231 569.566 912.662 570.279 912.9C571.268 913.18 572.319 913.161 573.297 912.845C575.108 912.355 577.039 912.604 578.665 913.537C580.292 914.471 581.482 916.012 581.972 917.823C582.462 919.633 582.213 921.564 581.28 923.191C580.346 924.817 578.805 926.007 576.994 926.497C568.964 928.672 561.992 925.819 557.749 920.893C556.582 919.527 555.611 918.005 554.866 916.369C553.062 916.56 551.236 916.491 549.506 916.163C543.112 914.986 537.132 910.406 534.957 902.376C534.714 901.479 534.65 900.544 534.769 899.623C534.888 898.702 535.187 897.813 535.649 897.008C536.111 896.202 536.728 895.496 537.463 894.928C538.198 894.361 539.038 893.944 539.934 893.701C540.831 893.458 541.766 893.395 542.687 893.513C543.608 893.632 544.497 893.931 545.302 894.393C546.108 894.856 546.814 895.472 547.382 896.207C547.949 896.942 548.366 897.782 548.609 898.679C548.83 899.683 549.343 900.6 550.084 901.312C550.637 901.804 551.303 902.121 552.082 902.263C553.777 902.583 554.919 901.934 555.224 901.653Z" fill="#111111" fill-opacity="0.22"/>
<path fill-rule="evenodd" clip-rule="evenodd" d="M277.732 295.699C283.908 289.646 291.858 284.346 301.89 280.316C311.926 276.284 321.333 274.612 329.978 274.712L330.02 274.711C339.455 274.799 348.736 277.108 357.112 281.452C371.392 288.846 381.219 301.072 385.533 311.812C388.448 319.069 391.472 332.403 383.382 343.362C383.981 344.722 384.563 346.103 385.127 347.507L385.182 347.644C386.695 351.412 390.38 360.579 387.078 371.346C383.671 382.461 373.441 393.556 350.999 402.571C328.557 411.586 313.494 410.65 303.345 404.981C293.511 399.487 289.832 390.32 288.319 386.553L288.264 386.416C287.7 385.014 287.164 383.613 286.655 382.214C273.236 379.897 266.192 368.177 263.277 360.918C258.962 350.178 257.602 334.554 262.8 319.339C265.844 310.408 270.949 302.32 277.701 295.73L277.732 295.699ZM295.922 374.482C290.639 359.78 288.439 341.412 287.612 326.355C287.196 318.798 287.129 312.192 287.167 307.481C287.183 305.319 287.223 303.556 287.262 302.292C292.154 297.884 298.348 293.952 306.115 290.832C313.879 287.713 321.071 286.266 327.654 286.067C328.556 286.953 329.801 288.197 331.31 289.75C334.592 293.124 339.111 297.944 344.039 303.689C353.852 315.137 364.975 329.926 371.345 344.195C371.419 344.419 371.507 344.639 371.609 344.852C372.659 347.077 373.659 349.37 374.61 351.732C376.046 355.307 378.325 361.232 376.241 368.023C374.225 374.61 367.506 383.73 346.776 392.057C326.045 400.384 314.884 398.443 308.873 395.087C302.668 391.619 300.218 385.77 298.78 382.192C297.831 379.829 296.969 377.481 296.192 375.149C296.115 374.92 296.024 374.697 295.922 374.482ZM305.017 332.149C303.622 332.709 302.507 333.8 301.917 335.182C301.327 336.565 301.311 338.125 301.871 339.519L302.891 342.059C303.451 343.453 304.542 344.568 305.925 345.158C307.307 345.748 308.867 345.765 310.261 345.205C311.656 344.645 312.771 343.554 313.361 342.171C313.951 340.789 313.968 339.229 313.408 337.835L312.387 335.295C311.827 333.9 310.736 332.785 309.354 332.195C307.971 331.605 306.411 331.588 305.017 332.149ZM335.489 319.908C336.883 319.348 338.443 319.365 339.826 319.955C341.208 320.545 342.299 321.66 342.859 323.055L343.879 325.594C344.44 326.989 344.423 328.549 343.833 329.931C343.243 331.313 342.128 332.405 340.733 332.965C339.339 333.525 337.779 333.508 336.396 332.918C335.014 332.328 333.923 331.213 333.363 329.819L332.343 327.279C331.782 325.884 331.799 324.324 332.389 322.942C332.979 321.56 334.094 320.469 335.489 319.908ZM341.905 364.729C341.835 364.553 341.755 364.382 341.667 364.213C342.243 363.382 342.74 362.499 343.151 361.575C344.518 358.516 345.092 354.701 343.672 351.167L343.647 351.104C343.596 350.991 343.538 350.882 343.473 350.777C343.325 350.541 343.153 350.322 342.96 350.122C342.324 349.487 341.54 349.021 340.678 348.767C338.546 348.097 335.224 348.188 329.997 350.288C324.776 352.385 322.312 354.612 321.236 356.57C320.124 358.592 320.613 360.097 320.727 360.381C322.146 363.915 325.204 366.274 328.308 367.54C329.25 367.925 330.23 368.221 331.204 368.419C331.256 368.598 331.317 368.776 331.388 368.953L333.79 374.932C333.264 376.071 331.945 377.499 329.521 378.473C326.363 379.741 324.025 379.157 323.147 378.379C322.019 377.412 320.555 376.928 319.072 377.03C317.589 377.132 316.206 377.813 315.22 378.925C314.234 380.038 313.725 381.493 313.802 382.977C313.879 384.461 314.537 385.856 315.632 386.86C320.992 391.614 328.476 391.106 333.745 388.989C337.01 387.677 340.46 385.333 342.753 382.043C346.685 382.832 350.798 382.139 354.063 380.828C359.332 378.711 365.086 373.902 365.67 366.761C365.744 366.012 365.669 365.256 365.448 364.537C365.227 363.818 364.865 363.151 364.383 362.573C363.901 361.995 363.309 361.519 362.642 361.173C361.974 360.826 361.244 360.616 360.494 360.555C359.745 360.493 358.99 360.582 358.275 360.815C357.56 361.048 356.898 361.421 356.329 361.913C355.759 362.404 355.293 363.004 354.958 363.678C354.623 364.351 354.425 365.084 354.376 365.835C354.281 367.003 352.996 369.043 349.839 370.311C347.415 371.285 345.474 371.167 344.306 370.707L341.905 364.729Z" fill="#111111" fill-opacity="0.22"/>
<path d="M183.707 874.603C183.6 874.574 178.005 876.793 178.005 876.793L171.259 873.259C171.202 873.259 163.628 877.164 163.628 877.164L157.394 874.923L152.349 877.964L145.456 875.75L139.38 879.507L132.891 878.391L127.322 881.694L119.94 881.935L114.328 886.36L108.008 886.18L103.306 890.303L97.2537 891.562L93.8431 896.413L86.9759 898.148L84.4815 903.837C88.5083 903.584 91.4734 906.076 93.5088 908.741L101.031 906.655L110.074 907.815L119.464 903.291L131.033 905.261L141.344 900.303L150.023 900.65L156.962 895.541C159.97 894.854 164.002 894.921 167.704 894.51L171.934 889.062L179.72 888.451C179.77 888.42 179.824 888.39 179.874 888.359L181.997 883.941L188.194 881.576C188.215 881.549 188.235 881.522 188.255 881.495L184.746 878.87L183.707 874.603ZM142.419 907.902L142.244 907.851C141.412 908.064 140.578 908.271 139.744 908.474C137.431 909.031 135.11 909.551 132.781 910.033C135.569 910.769 138.347 911.543 141.114 912.355C156.309 916.81 169.748 921.952 179.069 926.592C183.73 928.912 187.368 931.124 189.59 932.939C190.701 933.846 191.447 934.663 191.786 935.194C191.932 935.423 191.971 935.528 191.997 935.6C191.936 935.647 191.847 935.714 191.6 935.828C191.028 936.092 189.959 936.377 188.534 936.54C185.684 936.868 181.427 936.766 176.252 936.203C165.901 935.076 151.813 932.148 136.617 927.694C121.727 923.329 108.535 918.305 99.2399 913.739C98.9558 913.735 98.6642 913.734 98.3844 913.727C94.3946 913.63 90.8582 913.279 87.8329 912.633C90.2148 914.238 93.1478 915.896 96.5934 917.611C106.28 922.433 119.901 927.629 135.312 932.147C150.722 936.665 164.993 939.645 175.749 940.816C181.128 941.402 185.612 941.547 189.064 941.151C190.79 940.953 192.263 940.633 193.545 940.041C194.827 939.45 196.063 938.448 196.51 936.923C196.957 935.397 196.458 933.888 195.698 932.697C194.938 931.508 193.871 930.443 192.525 929.344C189.833 927.147 185.981 924.848 181.137 922.437C171.451 917.615 157.83 912.419 142.419 907.902ZM191.968 944.169C186.864 945.187 180.364 944.986 172.914 944.23C161.365 943.057 147.604 940.15 134.112 936.297C120.62 932.445 107.416 927.652 97.0022 922.647C91.7956 920.145 87.2871 917.594 83.7528 915.028C82.6907 914.257 81.7128 913.49 80.8278 912.715L72.6689 940.546C84.7682 949.428 104.973 958.179 125.883 964.309C146.793 970.439 168.525 973.982 183.504 973.038L191.968 944.169ZM69.3679 943.883C69.2296 944.139 69.1186 944.409 69.0365 944.689C68.5893 946.214 69.0887 947.724 69.8485 948.914C70.6081 950.104 71.6754 951.169 73.0213 952.268C75.7131 954.465 79.5657 956.764 84.409 959.175C94.0955 963.996 107.716 969.193 123.127 973.71C138.538 978.228 152.808 981.208 163.565 982.38C168.943 982.965 173.427 983.111 176.879 982.714C178.606 982.516 180.078 982.196 181.361 981.604C182.643 981.013 183.878 980.012 184.325 978.487C184.409 978.2 184.46 977.913 184.481 977.629C168.408 978.823 146.15 975.086 124.578 968.762C103.005 962.438 82.2533 953.566 69.3679 943.883Z" fill="#111111" fill-opacity="0.22"/>
<path d="M1183.42 886.075C1183.32 886.117 1180.21 891.274 1180.21 891.274L1172.71 892.555C1172.66 892.59 1169.01 900.288 1169.01 900.288L1162.69 902.287L1160.52 907.765L1153.7 910.184L1151.15 916.856L1145.31 919.904L1142.89 925.908L1137.16 930.576L1135.38 937.499L1130.25 941.188L1129.01 947.318L1124.96 951.989L1125.19 957.915L1120.78 963.459L1122.25 969.495C1125.3 966.852 1129.17 967.035 1132.4 967.919L1137.12 961.699L1145.01 957.137L1149.74 947.846L1160.13 942.396L1165.32 932.2L1172.43 927.213L1174.85 918.942C1176.83 916.572 1180.07 914.18 1182.77 911.608L1182.83 904.711L1188.65 899.503C1188.67 899.449 1188.69 899.392 1188.71 899.337L1187.72 894.537L1191.22 888.898C1191.22 888.864 1191.22 888.83 1191.21 888.797L1186.83 888.837L1183.42 886.075ZM1170.78 937.59L1170.61 937.656C1170.08 938.33 1169.54 939 1169 939.668C1167.5 941.513 1165.97 943.334 1164.41 945.13C1167.08 944.025 1169.75 942.956 1172.45 941.923C1187.23 936.25 1201.03 932.188 1211.26 930.225C1216.37 929.243 1220.61 928.796 1223.47 928.891C1224.91 928.938 1226 929.136 1226.59 929.352C1226.84 929.446 1226.94 929.506 1227 929.547C1226.98 929.621 1226.95 929.729 1226.82 929.969C1226.53 930.526 1225.85 931.401 1224.82 932.395C1222.75 934.384 1219.3 936.885 1214.85 939.575C1205.93 944.956 1192.96 951.173 1178.17 956.846C1163.69 962.405 1150.15 966.411 1139.99 968.418C1139.76 968.587 1139.53 968.763 1139.3 968.928C1136.07 971.27 1133.05 973.135 1130.25 974.456C1133.12 974.288 1136.46 973.828 1140.24 973.102C1150.86 971.061 1164.84 966.932 1179.84 961.179C1194.83 955.425 1207.98 949.14 1217.25 943.548C1221.88 940.752 1225.53 938.148 1228.04 935.74C1229.29 934.535 1230.27 933.388 1230.93 932.139C1231.59 930.892 1231.96 929.346 1231.39 927.863C1230.82 926.378 1229.51 925.481 1228.18 924.995C1226.86 924.51 1225.36 924.31 1223.63 924.253C1220.15 924.138 1215.7 924.647 1210.38 925.667C1199.76 927.708 1185.78 931.837 1170.78 937.59ZM1232.18 936.378C1228.73 940.283 1223.44 944.065 1217.06 947.982C1207.17 954.053 1194.46 960.087 1181.4 965.206C1168.33 970.325 1154.93 974.522 1143.61 976.858C1137.96 978.026 1132.83 978.732 1128.46 978.835C1127.15 978.866 1125.9 978.849 1124.73 978.77L1135.12 1005.85C1150.13 1005.57 1171.5 1000.28 1191.84 992.469C1212.19 984.662 1231.62 974.3 1242.95 964.465L1232.18 936.378ZM1134.52 1010.5C1134.57 1010.79 1134.64 1011.07 1134.75 1011.34C1135.32 1012.83 1136.63 1013.73 1137.95 1014.21C1139.28 1014.7 1140.77 1014.9 1142.51 1014.95C1145.98 1015.07 1150.44 1014.56 1155.75 1013.54C1166.38 1011.5 1180.36 1007.37 1195.35 1001.62C1210.35 995.862 1223.5 989.577 1232.76 983.985C1237.4 981.189 1241.05 978.586 1243.55 976.177C1244.81 974.972 1245.78 973.825 1246.44 972.577C1247.11 971.329 1247.48 969.784 1246.91 968.3C1246.8 968.02 1246.67 967.762 1246.51 967.523C1234.46 978.22 1214.49 988.748 1193.51 996.802C1172.52 1004.86 1150.64 1010.39 1134.52 1010.5Z" fill="#111111" fill-opacity="0.22"/>
<path d="M412.136 37.2664C400.668 37.2664 392.2 27.3727 393.726 15.9691C396.221 -2.68995 405.874 -17.0742 390.221 -17.0742C373.429 -17.0742 358.913 4.8782 355.432 33.9655C351.95 63.0531 369.561 98 407.241 98C440.006 98 472.924 77.7555 486.49 33.9655C500.091 -9.93452 479.707 -24 467.856 -24C458.574 -24 442.674 -21.2563 437.964 3.43668C433.254 28.1297 423.603 37.2664 412.136 37.2664Z" fill="#111111" fill-opacity="0.22"/>
<path d="M1247.54 34.6404C1243.26 66.1841 1214.49 87.4167 1183 82.2762C1141.01 75.4284 1112.35 49.7677 1066.98 48.3316C1037.29 47.3943 991.679 37.9271 992.408 -0.104422C992.863 -23.7364 1012.2 -40.8717 1054.32 -54.9687C1083.6 -64.7681 1093.44 -71.2242 1112.28 -92.9834C1153.13 -140.161 1188.1 -139.075 1207.96 -78.731C1219.49 -43.7022 1252.69 -3.28861 1247.54 34.6404Z" fill="#111111" fill-opacity="0.22"/>
</g>
<defs>
<clipPath id="clip0_290_1125">
<rect width="1920" height="1080" fill="#111111" fill-opacity="0.22"/>
</clipPath>
<clipPath id="clip1_290_1125">
<rect width="142" height="142" fill="#111111" fill-opacity="0.22" transform="translate(1767.38 128) rotate(43.8553)"/>
</clipPath>
<clipPath id="clip2_290_1125">
<rect width="142" height="142" fill="#111111" fill-opacity="0.22" transform="translate(673.383 313) rotate(43.8553)"/>
</clipPath>
</defs>
</svg>
