<svg width="422" height="1080" viewBox="0 0 422 1080" fill="none" xmlns="http://www.w3.org/2000/svg">
<g filter="url(#filter0_d_396_1217)">
<rect width="414" height="1080" fill="white"/>
<rect x="-1" y="-1" width="416" height="1082" stroke="#FAC40C" stroke-width="2"/>
</g>
<path fill-rule="evenodd" clip-rule="evenodd" d="M83.2253 63.397C82.8359 64.3162 82.5123 65.2093 82.2545 66.0765C82.0531 66.7376 81.6762 67.3318 81.1639 67.7957C80.6516 68.2596 80.0232 68.576 79.3454 68.7112L71.3395 70.2634C71.0724 70.3031 70.8175 70.4017 70.5932 70.5521C70.3689 70.7025 70.1809 70.9009 70.0428 71.1329C65.3505 79.5873 64.103 87.3392 66.0098 94.224C67.9122 101.127 73.1966 107.86 82.9502 113.856C92.7037 119.853 101.094 121.522 108.115 120.112C115.119 118.706 121.474 114.094 126.9 106.091C127.045 105.863 127.137 105.605 127.17 105.337C127.203 105.069 127.176 104.797 127.091 104.541L124.859 96.7016C124.674 96.0337 124.673 95.328 124.858 94.66C125.043 93.9921 125.406 93.3869 125.908 92.9093C126.516 92.3234 127.126 91.6779 127.74 90.9728C127.478 90.0657 127.146 89.1805 126.747 88.325C125.836 86.3898 124.799 84.5169 123.641 82.7186C121.522 79.3675 119.142 76.1891 116.522 73.2131C116.232 73.0131 115.972 72.7719 115.751 72.4972C115.798 72.5448 115.793 72.5417 115.736 72.4876C115.463 72.2131 113.915 70.6415 110.726 68.6807C107.542 66.7231 105.432 66.053 105.064 65.9335C104.991 65.9125 104.986 65.9094 105.049 65.9239C104.625 65.8368 104.221 65.6748 103.854 65.4458C100.816 64.6178 96.4362 63.8055 92.1907 63.389C89.8568 63.165 87.6506 63.0692 85.786 63.1479C84.9264 63.172 84.0729 63.2518 83.2253 63.397ZM145.903 74.5462C147.723 70.3231 146.13 65.3836 142.384 63.1233C140.994 62.2472 139.384 61.7811 137.741 61.7784C130.205 61.6749 124.527 63.576 119.409 65.5863C117.925 64.3485 116.351 63.2216 114.701 62.2145C112.582 60.9116 110.771 60.0334 109.398 59.4524C108.871 53.9718 108.012 48.037 104.508 41.3389C103.781 39.914 102.679 38.7144 101.321 37.8691C97.6222 35.602 92.5464 36.4201 89.6174 39.9329C86.5092 43.656 83.0444 48.2139 80.1838 52.9013C79.0143 54.8034 77.9569 56.7317 77.0581 58.6222L77.0144 58.7164C76.5437 59.7138 76.1198 60.7045 75.7428 61.6883L69.8988 62.8176C68.5451 63.0684 67.2631 63.6134 66.1431 64.4141C65.0232 65.2147 64.0927 66.2514 63.4173 67.4511C58.0437 77.1178 56.1194 86.9321 58.6981 96.2458C61.2781 105.546 68.1438 113.656 78.9777 120.317C89.8116 126.978 100.145 129.45 109.608 127.554C119.086 125.646 126.975 119.499 133.173 110.346C133.935 109.2 134.437 107.902 134.646 106.542C134.855 105.182 134.765 103.793 134.382 102.471L132.755 96.7413C138.124 90.847 142.786 81.7824 145.906 74.541M95.3782 78.1769C95.905 77.3201 96.0698 76.2892 95.8365 75.3108C95.6031 74.3325 94.9907 73.4869 94.1339 72.9601C93.2771 72.4334 92.2462 72.2685 91.2678 72.5019C90.2895 72.7352 89.4439 73.3476 88.9172 74.2044L87.3599 76.7372C86.8332 77.594 86.6683 78.6249 86.9017 79.6032C87.135 80.5816 87.7474 81.4271 88.6042 81.9539C89.461 82.4807 90.492 82.6455 91.4703 82.4122C92.4486 82.1788 93.2942 81.5664 93.821 80.7096L95.3782 78.1769ZM114.396 85.4178C116.179 86.5142 116.736 88.8513 115.64 90.6346L114.083 93.1673C113.556 94.0241 112.71 94.6365 111.732 94.8698C110.754 95.1032 109.723 94.9383 108.866 94.4116C108.009 93.8848 107.397 93.0392 107.163 92.0609C106.93 91.0826 107.095 90.0516 107.622 89.1948L109.179 86.6621C110.275 84.8788 112.612 84.3214 114.396 85.4178ZM89.4383 96.121C88.861 94.3804 88.6662 92.5357 88.8673 90.7128C88.9608 90.0625 89.2106 89.4446 89.5951 88.912C89.9797 88.3793 90.4876 87.9478 91.0754 87.6543C91.986 87.2081 93.0263 87.1023 94.0081 87.3562C95.0095 87.6158 96.525 88.163 98.1377 89.1545C99.7504 90.146 100.928 91.2546 101.606 92.0278C102.141 92.6414 102.657 93.5856 102.664 94.7794C102.671 96.0657 102.069 97.334 100.931 98.1302C99.3973 99.1328 97.6651 99.7927 95.8528 100.065C95.7984 100.281 95.7888 100.98 96.3659 101.698C96.6155 102.015 96.9478 102.256 97.3261 102.395C97.852 102.562 98.4154 102.568 98.9452 102.415C99.9236 102.182 100.955 102.346 101.812 102.873C102.669 103.4 103.281 104.246 103.514 105.224C103.748 106.203 103.583 107.234 103.056 108.091C102.529 108.948 101.684 109.56 100.705 109.793C96.3647 110.829 92.6736 109.186 90.4791 106.476C89.8755 105.725 89.3801 104.893 89.0074 104.005C88.0367 104.077 87.0592 104.01 86.1373 103.807C82.7288 103.072 79.597 100.519 78.5618 96.1791C78.4462 95.6946 78.4272 95.1921 78.5059 94.7003C78.5845 94.2084 78.7593 93.7369 79.0201 93.3126C79.281 92.8883 79.6229 92.5196 80.0263 92.2274C80.4297 91.9352 80.8866 91.7254 81.3711 91.6098C81.8556 91.4943 82.3581 91.4753 82.8499 91.5539C83.3418 91.6325 83.8133 91.8073 84.2376 92.0682C84.6619 92.329 85.0306 92.6709 85.3228 93.0743C85.615 93.4777 85.8248 93.9347 85.9404 94.4191C86.0424 94.9612 86.3028 95.4608 86.6887 95.855C86.9771 96.1273 87.3289 96.3081 87.7442 96.3972C88.6475 96.5964 89.2702 96.267 89.4383 96.121Z" fill="#FAC40C" fill-opacity="0.79"/>
<g clip-path="url(#clip0_396_1217)">
<path d="M80.7974 950.861C78.3492 953.717 77.1148 957.417 77.3576 961.171C75.267 961.769 73.3379 962.83 71.7133 964.275C70.0887 965.72 68.8104 967.513 67.973 969.519C67.1357 971.526 66.7609 973.695 66.8764 975.867C66.9919 978.038 67.5948 980.155 68.6404 982.062C69.6859 983.968 71.1473 985.615 72.916 986.88C74.6848 988.144 76.7156 988.995 78.8578 989.367C81 989.74 83.1986 989.626 85.2905 989.033C87.3825 988.44 89.3141 987.383 90.942 985.942C90.9523 985.939 90.963 985.937 90.9738 985.936L123.64 1009.06L123.647 1009.1C122.827 1011.11 122.471 1013.28 122.606 1015.45C122.741 1017.62 123.362 1019.74 124.425 1021.63C125.487 1023.53 126.963 1025.16 128.743 1026.41C130.523 1027.66 132.561 1028.49 134.706 1028.85C136.852 1029.2 139.049 1029.07 141.136 1028.46C143.223 1027.84 145.145 1026.77 146.76 1025.32C148.375 1023.86 149.642 1022.06 150.466 1020.05C151.29 1018.04 151.651 1015.86 151.521 1013.69C153.612 1013.09 155.541 1012.03 157.166 1010.59C158.79 1009.14 160.069 1007.35 160.906 1005.34C161.743 1003.34 162.118 1001.17 162.003 998.997C161.887 996.826 161.284 994.708 160.239 992.802C159.193 990.895 157.732 989.249 155.963 987.984C154.194 986.719 152.163 985.869 150.021 985.497C147.879 985.124 145.68 985.238 143.588 985.831C141.496 986.424 139.565 987.481 137.937 988.922L137.905 988.928L105.236 965.791L105.23 965.751C106.552 962.56 106.691 959.001 105.621 955.717C104.55 952.432 102.341 949.638 99.3923 947.839C96.4432 946.04 92.9482 945.355 89.538 945.906C86.1277 946.457 83.0268 948.209 80.7947 950.845L80.7974 950.861ZM96.0334 953.391C97.6658 954.389 98.8892 955.936 99.4839 957.755C100.079 959.573 100.006 961.544 99.2787 963.314C98.7141 964.663 98.6258 966.165 99.0284 967.571C99.4309 968.977 100.3 970.204 101.493 971.05L134.182 994.204C135.377 995.046 136.824 995.456 138.283 995.366C139.743 995.277 141.128 994.693 142.212 993.711C143.183 992.85 144.347 992.237 145.607 991.923C146.866 991.61 148.182 991.606 149.443 991.911C150.704 992.217 151.873 992.822 152.849 993.677C153.826 994.531 154.581 995.609 155.051 996.819C155.521 998.029 155.691 999.334 155.547 1000.62C155.403 1001.91 154.95 1003.15 154.225 1004.23C153.501 1005.3 152.527 1006.19 151.386 1006.81C150.245 1007.42 148.972 1007.76 147.675 1007.78C147.21 1007.78 146.751 1007.89 146.332 1008.09C145.912 1008.29 145.541 1008.58 145.243 1008.94C144.946 1009.3 144.73 1009.71 144.609 1010.16C144.489 1010.61 144.467 1011.08 144.546 1011.54C144.575 1011.7 144.616 1011.86 144.669 1012.02C145.078 1013.25 145.185 1014.56 144.98 1015.84C144.774 1017.12 144.263 1018.33 143.489 1019.37C142.715 1020.41 141.701 1021.25 140.534 1021.81C139.367 1022.38 138.081 1022.65 136.786 1022.61C135.49 1022.57 134.224 1022.22 133.094 1021.58C131.964 1020.95 131.004 1020.05 130.295 1018.96C129.587 1017.88 129.152 1016.64 129.026 1015.35C128.9 1014.06 129.087 1012.76 129.572 1011.55C130.137 1010.21 130.225 1008.7 129.823 1007.3C129.42 1005.89 128.551 1004.66 127.358 1003.82L94.6696 980.664C93.4758 979.826 92.0326 979.418 90.5766 979.507C89.1206 979.596 87.738 980.178 86.6554 981.155C85.6844 982.016 84.5197 982.629 83.2605 982.943C82.0013 983.256 80.685 983.26 79.4239 982.955C78.1628 982.649 76.9942 982.044 76.0177 981.189C75.0413 980.334 74.286 979.256 73.8163 978.047C73.3466 976.837 73.1763 975.532 73.32 974.242C73.4637 972.953 73.9172 971.717 74.6417 970.641C75.3663 969.564 76.3404 968.679 77.481 968.06C78.6216 967.442 79.8949 967.108 81.1923 967.088C81.6992 967.081 82.1972 966.954 82.6458 966.718C83.0944 966.482 83.4809 966.144 83.7739 965.73C84.0669 965.316 84.2581 964.839 84.3318 964.338C84.4056 963.836 84.3599 963.324 84.1984 962.844C83.6612 961.273 83.6229 959.575 84.0887 957.982C84.5545 956.389 85.5015 954.979 86.8 953.945C88.0986 952.911 89.6851 952.304 91.3421 952.207C92.9992 952.11 94.6456 952.528 96.0559 953.403L96.0334 953.391Z" fill="#B569BE" fill-opacity="0.79"/>
</g>
<path d="M359.927 145.74C366.428 129.769 358.711 111.457 342.74 104.956C326.769 98.4546 308.456 106.172 301.955 122.143C295.454 138.114 303.171 156.427 319.143 162.928L348.129 174.726L350.488 168.929L338.807 164.174C348.039 161.749 356.069 155.219 359.927 145.74ZM351.013 130.286C345.161 144.663 328.684 151.606 314.307 145.754C311.669 144.681 309.255 143.225 307.051 141.416L306.932 140.962C324.847 147.004 344.546 138.702 352.733 121.66L352.975 122.063C352.743 124.874 352.087 127.648 351.013 130.286ZM310.333 119.741C315.91 123.802 319.739 129.753 321.179 136.591C316.516 136.923 311.708 136.283 307.1 134.407C306.694 134.242 306.312 134.019 305.918 133.825C305.931 130.722 306.502 127.575 307.741 124.532C308.437 122.821 309.324 121.223 310.321 119.77L310.333 119.741ZM348.322 115.979C348.157 116.385 348.049 116.814 347.884 117.22C346.468 120.698 344.474 123.772 342.052 126.402C338.951 119.254 333.687 113.258 327 109.26C331.501 108.534 336.114 109.057 340.339 110.77C343.383 112.009 346.063 113.809 348.293 115.967L348.322 115.979ZM318.73 112.144C318.962 112.239 319.205 112.304 319.437 112.398C327.727 115.773 334.056 122.471 337.05 130.887C334.097 132.996 330.792 134.557 327.329 135.512C325.641 127.29 321.14 120.086 314.563 115.077C315.865 113.952 317.249 112.96 318.73 112.144ZM313.884 152.272C330.331 157.852 348.469 150.233 355.933 134.552C355.868 137.533 355.298 140.511 354.106 143.438C348.903 156.221 334.262 162.392 321.479 157.188C318.58 156.008 316.022 154.325 313.843 152.289L313.884 152.272Z" fill="#FFB0C5" fill-opacity="0.79"/>
<path fill-rule="evenodd" clip-rule="evenodd" d="M326.08 913.01C331.478 913.523 337.233 915.19 343.221 918.37C349.21 921.549 353.815 925.382 357.262 929.566L357.28 929.585C361.052 934.143 363.698 939.525 365.002 945.296C367.232 955.129 365.346 964.782 361.942 971.192C359.643 975.522 354.475 982.363 345.952 982.917C345.542 983.753 345.115 984.591 344.67 985.429L344.627 985.51C343.433 987.759 340.53 993.231 334.034 996.002C327.33 998.863 317.876 998.446 304.482 991.335C291.088 984.223 285.446 976.626 284.06 969.469C282.717 962.535 285.623 957.066 286.817 954.817L286.86 954.736C287.304 953.899 287.759 953.075 288.224 952.265C283.909 944.898 286.678 936.783 288.978 932.451C292.381 926.041 299.32 919.072 308.713 915.412C314.224 913.26 320.165 912.437 326.053 913.008L326.08 913.01ZM295.676 953.581C300.586 945.105 308.5 936.624 315.382 930.141C318.836 926.885 321.975 924.183 324.248 922.296C325.291 921.43 326.152 920.736 326.774 920.244C330.864 920.806 335.253 922.185 339.888 924.646C344.522 927.106 348.124 929.968 350.88 933.043C350.821 933.834 350.728 934.933 350.594 936.284C350.303 939.221 349.821 943.336 349.059 948.02C347.54 957.352 344.949 968.662 340.686 977.484C340.608 977.61 340.539 977.741 340.477 977.876C339.836 979.279 339.141 980.686 338.394 982.096C337.261 984.23 335.343 987.718 331.245 989.464C327.273 991.161 320.186 991.629 307.813 985.06C295.441 978.491 291.858 972.357 291.037 968.119C290.19 963.743 292.003 960.204 293.137 958.068C293.885 956.658 294.662 955.295 295.466 953.98C295.544 953.85 295.614 953.717 295.676 953.581ZM319.643 940.824C318.81 940.382 317.836 940.289 316.935 940.565C316.034 940.841 315.28 941.464 314.838 942.296L314.033 943.812C313.591 944.645 313.498 945.618 313.774 946.519C314.05 947.42 314.673 948.175 315.505 948.617C316.338 949.059 317.311 949.152 318.212 948.876C319.113 948.6 319.868 947.977 320.31 947.145L321.115 945.629C321.557 944.797 321.65 943.823 321.374 942.922C321.098 942.021 320.475 941.266 319.643 940.824ZM337.829 950.48C338.661 950.922 339.284 951.676 339.56 952.577C339.836 953.478 339.743 954.452 339.301 955.284L338.496 956.8C338.054 957.633 337.3 958.255 336.399 958.531C335.498 958.807 334.524 958.714 333.692 958.272C332.859 957.83 332.237 957.076 331.961 956.175C331.685 955.274 331.778 954.3 332.22 953.468L333.024 951.952C333.466 951.12 334.221 950.497 335.122 950.221C336.023 949.945 336.997 950.038 337.829 950.48ZM318.942 971.676C318.997 971.572 319.048 971.464 319.093 971.354C319.724 971.294 320.348 971.175 320.957 970.998C322.976 970.416 325.036 969.149 326.156 967.04L326.176 967.003C326.21 966.933 326.238 966.861 326.263 966.787C326.316 966.621 326.351 966.45 326.369 966.276C326.416 965.715 326.322 965.15 326.096 964.635C325.555 963.342 324.168 961.787 321.049 960.131C317.932 958.476 315.869 958.195 314.495 958.472C313.077 958.756 312.553 959.599 312.463 959.768C311.343 961.877 311.449 964.297 312.097 966.296C312.294 966.903 312.548 967.493 312.847 968.04C312.782 968.137 312.721 968.238 312.665 968.344L310.771 971.912C310.012 972.121 308.794 972.066 307.348 971.297C305.463 970.297 304.798 968.94 304.816 968.205C304.823 967.273 304.463 966.376 303.815 965.706C303.166 965.037 302.281 964.649 301.349 964.627C300.417 964.604 299.514 964.948 298.834 965.585C298.154 966.222 297.751 967.101 297.712 968.032C297.601 972.523 300.871 975.904 304.015 977.574C305.964 978.609 308.482 979.314 310.987 979.083C312.198 981.287 314.193 982.977 316.142 984.012C319.286 985.682 323.917 986.495 327.576 983.888C327.965 983.621 328.297 983.279 328.552 982.882C328.807 982.486 328.981 982.042 329.063 981.578C329.145 981.113 329.134 980.637 329.03 980.177C328.926 979.717 328.732 979.282 328.458 978.898C328.184 978.514 327.837 978.188 327.436 977.94C327.035 977.691 326.589 977.525 326.123 977.451C325.657 977.376 325.181 977.396 324.723 977.507C324.265 977.619 323.833 977.821 323.454 978.101C322.855 978.527 321.359 978.736 319.474 977.736C318.027 976.967 317.299 975.99 317.047 975.244L318.942 971.676Z" fill="#FAC40C" fill-opacity="0.79"/>
<defs>
<filter id="filter0_d_396_1217" x="-4" y="-4" width="426" height="1092" filterUnits="userSpaceOnUse" color-interpolation-filters="sRGB">
<feFlood flood-opacity="0" result="BackgroundImageFix"/>
<feColorMatrix in="SourceAlpha" type="matrix" values="0 0 0 0 0 0 0 0 0 0 0 0 0 0 0 0 0 0 127 0" result="hardAlpha"/>
<feOffset dx="2" dy="2"/>
<feGaussianBlur stdDeviation="2"/>
<feComposite in2="hardAlpha" operator="out"/>
<feColorMatrix type="matrix" values="0 0 0 0 0 0 0 0 0 0 0 0 0 0 0 0 0 0 0.25 0"/>
<feBlend mode="normal" in2="BackgroundImageFix" result="effect1_dropShadow_396_1217"/>
<feBlend mode="normal" in="SourceGraphic" in2="effect1_dropShadow_396_1217" result="shape"/>
</filter>
<clipPath id="clip0_396_1217">
<rect width="103" height="103" fill="white" transform="translate(72.3359 1046.87) rotate(-99.6891)"/>
</clipPath>
</defs>
</svg>
