<svg width="256" height="80" viewBox="0 0 256 80" fill="none" xmlns="http://www.w3.org/2000/svg">
<g clip-path="url(#clip0_233_1476)">
<path d="M99.344 45.96C98.736 44.84 97.856 43.992 96.704 43.416C95.584 42.808 94.256 42.504 92.72 42.504C90.064 42.504 87.936 43.384 86.336 45.144C84.736 46.872 83.936 49.192 83.936 52.104C83.936 55.208 84.768 57.64 86.432 59.4C88.128 61.128 90.448 61.992 93.392 61.992C95.408 61.992 97.104 61.48 98.48 60.456C99.888 59.432 100.912 57.96 101.552 56.04H91.136V49.992H108.992V57.624C108.384 59.672 107.344 61.576 105.872 63.336C104.432 65.096 102.592 66.52 100.352 67.608C98.112 68.696 95.584 69.24 92.768 69.24C89.44 69.24 86.464 68.52 83.84 67.08C81.248 65.608 79.216 63.576 77.744 60.984C76.304 58.392 75.584 55.432 75.584 52.104C75.584 48.776 76.304 45.816 77.744 43.224C79.216 40.6 81.248 38.568 83.84 37.128C86.432 35.656 89.392 34.92 92.72 34.92C96.752 34.92 100.144 35.896 102.896 37.848C105.68 39.8 107.52 42.504 108.416 45.96H99.344ZM134.515 63.048H121.939L119.923 69H111.331L123.523 35.304H133.027L145.219 69H136.531L134.515 63.048ZM132.403 56.712L128.227 44.376L124.099 56.712H132.403ZM169.905 63.048H157.329L155.313 69H146.721L158.913 35.304H168.417L180.609 69H171.921L169.905 63.048ZM167.793 56.712L163.617 44.376L159.489 56.712H167.793ZM210 46.152C210 48.104 209.552 49.896 208.656 51.528C207.76 53.128 206.384 54.424 204.528 55.416C202.672 56.408 200.368 56.904 197.616 56.904H192.528V69H184.32V35.304H197.616C200.304 35.304 202.576 35.768 204.432 36.696C206.288 37.624 207.68 38.904 208.608 40.536C209.536 42.168 210 44.04 210 46.152ZM196.992 50.376C198.56 50.376 199.728 50.008 200.496 49.272C201.264 48.536 201.648 47.496 201.648 46.152C201.648 44.808 201.264 43.768 200.496 43.032C199.728 42.296 198.56 41.928 196.992 41.928H192.528V50.376H196.992ZM230.209 69.336C227.041 69.336 224.129 68.6 221.473 67.128C218.849 65.656 216.753 63.608 215.185 60.984C213.649 58.328 212.881 55.352 212.881 52.056C212.881 48.76 213.649 45.8 215.185 43.176C216.753 40.552 218.849 38.504 221.473 37.032C224.129 35.56 227.041 34.824 230.209 34.824C233.377 34.824 236.273 35.56 238.897 37.032C241.553 38.504 243.633 40.552 245.137 43.176C246.673 45.8 247.441 48.76 247.441 52.056C247.441 55.352 246.673 58.328 245.137 60.984C243.601 63.608 241.521 65.656 238.897 67.128C236.273 68.6 233.377 69.336 230.209 69.336ZM230.209 61.848C232.897 61.848 235.041 60.952 236.641 59.16C238.273 57.368 239.089 55 239.089 52.056C239.089 49.08 238.273 46.712 236.641 44.952C235.041 43.16 232.897 42.264 230.209 42.264C227.489 42.264 225.313 43.144 223.681 44.904C222.081 46.664 221.281 49.048 221.281 52.056C221.281 55.032 222.081 57.416 223.681 59.208C225.313 60.968 227.489 61.848 230.209 61.848Z" fill="#C88DCF"/>
<path d="M38.5365 64.9268C38.2535 65.6636 33.4423 78.0046 26.5085 72.663C18.1776 66.2452 25.1524 47.358 30.1876 41.3502C35.2819 35.2719 58.9135 50.5599 49.857 64.1901C48.159 66.5845 43.4043 67.7266 38.5365 64.9268Z" fill="#C88DCF"/>
<ellipse cx="6.03519" cy="11.3448" rx="6.03519" ry="11.3448" transform="matrix(0.911134 0.412111 -0.257924 0.966165 50.002 16.4014)" fill="#FAC40C"/>
<ellipse cx="5.834" cy="11.5889" rx="5.834" ry="11.5889" transform="matrix(0.994718 -0.10265 0.0607946 0.99815 29.0869 8.19775)" fill="#C88DCF"/>
<ellipse cx="6.74164" cy="9.86461" rx="6.74164" ry="9.86461" transform="matrix(0.668855 -0.743393 0.548503 0.836148 9.33984 26.4248)" fill="#FFB0C5"/>
<ellipse cx="7.30932" cy="9.03095" rx="7.30932" ry="9.03095" transform="matrix(0.406868 -0.913487 0.798217 0.60237 0 50.7534)" fill="#59C9DE"/>
</g>
<defs>
<clipPath id="clip0_233_1476">
<rect width="256" height="80" fill="white"/>
</clipPath>
</defs>
</svg>
