<svg width="292" height="84" viewBox="0 0 292 84" fill="none" xmlns="http://www.w3.org/2000/svg">
<path d="M143.399 41.229C142.791 40.109 141.911 39.261 140.759 38.685C139.639 38.077 138.311 37.773 136.775 37.773C134.119 37.773 131.991 38.653 130.391 40.413C128.791 42.141 127.991 44.461 127.991 47.373C127.991 50.477 128.823 52.909 130.487 54.669C132.183 56.397 134.503 57.261 137.447 57.261C139.463 57.261 141.159 56.749 142.535 55.725C143.943 54.701 144.967 53.229 145.607 51.309H135.191V45.261H153.047V52.893C152.439 54.941 151.399 56.845 149.927 58.605C148.487 60.365 146.647 61.789 144.407 62.877C142.167 63.965 139.639 64.509 136.823 64.509C133.495 64.509 130.519 63.789 127.895 62.349C125.303 60.877 123.271 58.845 121.799 56.253C120.359 53.661 119.639 50.701 119.639 47.373C119.639 44.045 120.359 41.085 121.799 38.493C123.271 35.869 125.303 33.837 127.895 32.397C130.487 30.925 133.447 30.189 136.775 30.189C140.807 30.189 144.199 31.165 146.951 33.117C149.735 35.069 151.575 37.773 152.471 41.229H143.399Z" fill="#C88DCF"/>
<path d="M178.57 58.317H165.994L163.978 64.269H155.386L167.578 30.573H177.082L189.274 64.269H180.586L178.57 58.317ZM176.458 51.981L172.282 39.645L168.154 51.981H176.458Z" fill="#C88DCF"/>
<path d="M213.96 58.317H201.384L199.368 64.269H190.776L202.968 30.573H212.472L224.664 64.269H215.976L213.96 58.317ZM211.848 51.981L207.672 39.645L203.544 51.981H211.848Z" fill="#C88DCF"/>
<path d="M254.055 41.421C254.055 43.373 253.607 45.165 252.711 46.797C251.815 48.397 250.439 49.693 248.583 50.685C246.727 51.677 244.423 52.173 241.671 52.173H236.583V64.269H228.375V30.573H241.671C244.359 30.573 246.631 31.037 248.487 31.965C250.343 32.893 251.735 34.173 252.663 35.805C253.591 37.437 254.055 39.309 254.055 41.421ZM241.047 45.645C242.615 45.645 243.783 45.277 244.551 44.541C245.319 43.805 245.703 42.765 245.703 41.421C245.703 40.077 245.319 39.037 244.551 38.301C243.783 37.565 242.615 37.197 241.047 37.197H236.583V45.645H241.047Z" fill="#C88DCF"/>
<path d="M274.264 64.605C271.096 64.605 268.184 63.869 265.528 62.397C262.904 60.925 260.808 58.877 259.24 56.253C257.704 53.597 256.936 50.621 256.936 47.325C256.936 44.029 257.704 41.069 259.24 38.445C260.808 35.821 262.904 33.773 265.528 32.301C268.184 30.829 271.096 30.093 274.264 30.093C277.432 30.093 280.328 30.829 282.952 32.301C285.608 33.773 287.688 35.821 289.192 38.445C290.728 41.069 291.496 44.029 291.496 47.325C291.496 50.621 290.728 53.597 289.192 56.253C287.656 58.877 285.576 60.925 282.952 62.397C280.328 63.869 277.432 64.605 274.264 64.605ZM274.264 57.117C276.952 57.117 279.096 56.221 280.696 54.429C282.328 52.637 283.144 50.269 283.144 47.325C283.144 44.349 282.328 41.981 280.696 40.221C279.096 38.429 276.952 37.533 274.264 37.533C271.544 37.533 269.368 38.413 267.736 40.173C266.136 41.933 265.336 44.317 265.336 47.325C265.336 50.301 266.136 52.685 267.736 54.477C269.368 56.237 271.544 57.117 274.264 57.117Z" fill="#C88DCF"/>
<path d="M59.8622 71.8938C59.3936 72.8175 51.4276 88.2898 39.9469 81.5929C26.1532 73.5467 37.7017 49.8672 46.0387 42.3351C54.4735 34.7145 93.6012 53.8815 78.6061 70.9702C75.7945 73.9721 67.9221 75.404 59.8622 71.8938Z" fill="#C88DCF"/>
<path d="M92.2103 31.0344C89.5346 38.624 83.2892 43.3804 78.2608 41.6582C73.2324 39.9361 71.3252 32.3875 74.0009 24.7979C76.6767 17.2084 82.9221 12.452 87.9505 14.1741C92.9788 15.8963 94.886 23.4449 92.2103 31.0344Z" fill="#FAC40C"/>
<path d="M64.5985 13.7715C65.2427 21.781 61.4631 28.6102 56.1565 29.0249C50.8498 29.4395 46.0256 23.2827 45.3814 15.2731C44.7371 7.2636 48.5167 0.434436 53.8234 0.0197746C59.13 -0.394887 63.9542 5.76198 64.5985 13.7715Z" fill="#C88DCF"/>
<path d="M35.4097 21.3971C40.3575 27.1083 41.0258 34.5513 36.9025 38.0215C32.7791 41.4917 25.4255 39.6749 20.4776 33.9637C15.5298 28.2524 14.8615 20.8094 18.9848 17.3392C23.1082 13.8691 30.4619 15.6858 35.4097 21.3971Z" fill="#FFB0C5"/>
<path d="M17.8389 44.202C24.4308 47.9687 27.57 54.7702 24.8505 59.3934C22.131 64.0166 14.5827 64.711 7.99081 60.9443C1.39893 57.1775 -1.74027 50.3761 0.979202 45.7529C3.69868 41.1296 11.247 40.4353 17.8389 44.202Z" fill="#59C9DE"/>
</svg>
