<svg width="229" height="64" viewBox="0 0 229 64" fill="none" xmlns="http://www.w3.org/2000/svg">
<g clip-path="url(#clip0_255_1135)">
<path d="M80.7683 35.4C80.1983 34.35 79.3733 33.555 78.2933 33.015C77.2433 32.445 75.9983 32.16 74.5583 32.16C72.0683 32.16 70.0733 32.985 68.5733 34.635C67.0733 36.255 66.3233 38.43 66.3233 41.16C66.3233 44.07 67.1033 46.35 68.6633 48C70.2533 49.62 72.4283 50.43 75.1883 50.43C77.0783 50.43 78.6683 49.95 79.9583 48.99C81.2783 48.03 82.2383 46.65 82.8383 44.85H73.0733V39.18H89.8133V46.335C89.2433 48.255 88.2683 50.04 86.8883 51.69C85.5383 53.34 83.8133 54.675 81.7133 55.695C79.6133 56.715 77.2433 57.225 74.6033 57.225C71.4833 57.225 68.6933 56.55 66.2333 55.2C63.8033 53.82 61.8983 51.915 60.5183 49.485C59.1683 47.055 58.4933 44.28 58.4933 41.16C58.4933 38.04 59.1683 35.265 60.5183 32.835C61.8983 30.375 63.8033 28.47 66.2333 27.12C68.6633 25.74 71.4383 25.05 74.5583 25.05C78.3383 25.05 81.5183 25.965 84.0983 27.795C86.7083 29.625 88.4333 32.16 89.2733 35.4H80.7683ZM113.741 51.42H101.951L100.061 57H92.0056L103.436 25.41H112.346L123.776 57H115.631L113.741 51.42ZM111.761 45.48L107.846 33.915L103.976 45.48H111.761ZM146.919 51.42H135.129L133.239 57H125.184L136.614 25.41H145.524L156.954 57H148.809L146.919 51.42ZM144.939 45.48L141.024 33.915L137.154 45.48H144.939ZM184.508 35.58C184.508 37.41 184.088 39.09 183.248 40.62C182.408 42.12 181.118 43.335 179.378 44.265C177.638 45.195 175.478 45.66 172.898 45.66H168.128V57H160.433V25.41H172.898C175.418 25.41 177.548 25.845 179.288 26.715C181.028 27.585 182.333 28.785 183.203 30.315C184.073 31.845 184.508 33.6 184.508 35.58ZM172.313 39.54C173.783 39.54 174.878 39.195 175.598 38.505C176.318 37.815 176.678 36.84 176.678 35.58C176.678 34.32 176.318 33.345 175.598 32.655C174.878 31.965 173.783 31.62 172.313 31.62H168.128V39.54H172.313ZM203.454 57.315C200.484 57.315 197.754 56.625 195.264 55.245C192.804 53.865 190.839 51.945 189.369 49.485C187.929 46.995 187.209 44.205 187.209 41.115C187.209 38.025 187.929 35.25 189.369 32.79C190.839 30.33 192.804 28.41 195.264 27.03C197.754 25.65 200.484 24.96 203.454 24.96C206.424 24.96 209.139 25.65 211.599 27.03C214.089 28.41 216.039 30.33 217.449 32.79C218.889 35.25 219.609 38.025 219.609 41.115C219.609 44.205 218.889 46.995 217.449 49.485C216.009 51.945 214.059 53.865 211.599 55.245C209.139 56.625 206.424 57.315 203.454 57.315ZM203.454 50.295C205.974 50.295 207.984 49.455 209.484 47.775C211.014 46.095 211.779 43.875 211.779 41.115C211.779 38.325 211.014 36.105 209.484 34.455C207.984 32.775 205.974 31.935 203.454 31.935C200.904 31.935 198.864 32.76 197.334 34.41C195.834 36.06 195.084 38.295 195.084 41.115C195.084 43.905 195.834 46.14 197.334 47.82C198.864 49.47 200.904 50.295 203.454 50.295Z" fill="white"/>
<path d="M32.963 47.6353C32.7209 48.1522 28.6056 56.8093 22.6746 53.0622C15.5487 48.5602 21.5147 35.3109 25.8216 31.0965C30.1791 26.8326 50.3928 37.557 42.6462 47.1185C41.1937 48.7982 37.1267 49.5993 32.963 47.6353Z" fill="white"/>
<ellipse cx="5.01671" cy="8.0861" rx="5.01671" ry="8.0861" transform="matrix(0.937575 0.347784 -0.309528 0.95089 42.77 13.5951)" fill="white"/>
<ellipse cx="4.98158" cy="8.13687" rx="4.98158" ry="8.13687" transform="matrix(0.996438 -0.08433 0.0740633 0.997254 24.8794 7.84021)" fill="white"/>
<ellipse cx="5.21884" cy="7.40939" rx="5.21884" ry="7.40939" transform="matrix(0.739052 -0.673649 0.624637 0.780915 7.98877 20.6264)" fill="white"/>
<ellipse cx="5.33003" cy="7.25138" rx="5.33003" ry="7.25138" transform="matrix(0.477256 -0.878764 0.850325 0.526258 0 37.6927)" fill="white"/>
</g>
<defs>
<clipPath id="clip0_255_1135">
<rect width="229" height="64" fill="white"/>
</clipPath>
</defs>
</svg>
