<svg width="141" height="124" viewBox="0 0 141 124" fill="none" xmlns="http://www.w3.org/2000/svg">
<g clip-path="url(#clip0_255_1142)">
<path d="M66.2055 96.7669C65.1314 97.6324 46.9998 112.062 37.0393 97.1228C25.0721 79.1738 52.0544 56.7155 66.2003 52.2876C80.5122 47.8077 116.498 94.2156 89.0802 106.544C84.0521 108.606 73.8625 105.786 66.2055 96.7669Z" fill="white" fill-opacity="0.4"/>
<ellipse cx="12.7953" cy="19.6793" rx="12.7953" ry="19.6793" transform="matrix(0.928528 0.364989 -0.340282 0.942755 87.2051 0)" fill="white" fill-opacity="0.4"/>
<ellipse cx="13.0564" cy="18.3608" rx="13.0564" ry="18.3608" transform="matrix(0.950525 -0.260102 0.267948 0.978271 35.4575 9.12329)" fill="white" fill-opacity="0.4"/>
<ellipse cx="13.0751" cy="18.3345" rx="13.0751" ry="18.3345" transform="matrix(0.806302 -0.569738 0.569113 0.837555 0 37.7092)" fill="white" fill-opacity="0.4"/>
<ellipse cx="12.801" cy="19.6706" rx="12.801" ry="19.6706" transform="matrix(0.712596 0.714402 -0.683425 0.71756 122.78 32.843)" fill="white" fill-opacity="0.4"/>
</g>
<defs>
<clipPath id="clip0_255_1142">
<rect width="141" height="124" fill="white"/>
</clipPath>
</defs>
</svg>
