<svg width="1533" height="1049" viewBox="0 0 1533 1049" fill="none" xmlns="http://www.w3.org/2000/svg">
<path d="M31 0H1471V994C1471 994 1087.22 994 959.373 994C831.528 994 631.136 994 411.25 994C191.364 994 31 994 31 994V0Z" fill="#B569BE"/>
<path d="M31 0H1471V994C1471 994 1087.22 994 959.373 994C831.528 994 631.136 994 411.25 994C191.364 994 31 994 31 994V0Z" fill="#B569BE"/>
<path d="M496.251 886.815C493.612 883.635 489.835 881.613 485.727 881.181C485.466 878.806 484.674 876.519 483.41 874.492C482.146 872.464 480.442 870.748 478.424 869.469C476.407 868.191 474.128 867.383 471.756 867.107C469.385 866.83 466.981 867.092 464.724 867.872C462.467 868.652 460.415 869.931 458.719 871.613C457.023 873.296 455.728 875.339 454.928 877.591C454.129 879.843 453.847 882.246 454.102 884.622C454.357 886.999 455.144 889.287 456.403 891.317C456.405 891.329 456.405 891.341 456.403 891.353L425.339 922.468H425.295C423.266 921.207 420.98 920.42 418.606 920.165C416.232 919.909 413.831 920.192 411.581 920.992C409.331 921.792 407.29 923.089 405.609 924.786C403.928 926.484 402.651 928.538 401.871 930.797C401.092 933.056 400.831 935.462 401.107 937.836C401.383 940.209 402.19 942.491 403.467 944.51C404.744 946.529 406.459 948.235 408.485 949.5C410.51 950.765 412.795 951.558 415.168 951.819C415.429 954.194 416.221 956.481 417.485 958.508C418.749 960.536 420.453 962.252 422.47 963.531C424.488 964.809 426.767 965.617 429.138 965.893C431.51 966.17 433.913 965.908 436.17 965.128C438.427 964.348 440.48 963.069 442.175 961.387C443.871 959.704 445.167 957.661 445.966 955.409C446.765 953.157 447.048 950.754 446.793 948.378C446.537 946.001 445.751 943.713 444.492 941.683V941.647L475.574 910.532H475.618C478.828 912.556 482.654 913.364 486.407 912.812C490.16 912.26 493.593 910.384 496.085 907.521C498.578 904.659 499.966 900.999 499.999 897.202C500.033 893.405 498.71 889.721 496.268 886.815H496.251ZM490.697 902.855C489.315 904.439 487.414 905.478 485.335 905.786C483.257 906.094 481.137 905.651 479.355 904.535C477.999 903.674 476.391 903.301 474.794 903.477C473.197 903.653 471.708 904.368 470.572 905.504L439.468 936.637C438.336 937.777 437.625 939.268 437.452 940.866C437.279 942.464 437.655 944.073 438.518 945.428C439.27 946.64 439.719 948.015 439.825 949.437C439.932 950.86 439.693 952.286 439.13 953.596C438.566 954.906 437.694 956.06 436.589 956.96C435.483 957.86 434.177 958.479 432.781 958.764C431.385 959.049 429.94 958.992 428.571 958.598C427.202 958.204 425.948 957.484 424.916 956.5C423.885 955.516 423.107 954.296 422.648 952.946C422.189 951.596 422.063 950.155 422.281 948.745C422.361 948.24 422.329 947.724 422.19 947.232C422.051 946.74 421.807 946.284 421.475 945.896C421.142 945.508 420.73 945.196 420.266 944.983C419.802 944.769 419.297 944.659 418.787 944.659C418.605 944.661 418.423 944.675 418.243 944.703C416.836 944.92 415.398 944.793 414.051 944.334C412.704 943.874 411.488 943.096 410.505 942.065C409.523 941.034 408.804 939.781 408.41 938.412C408.016 937.044 407.957 935.6 408.24 934.204C408.523 932.808 409.138 931.5 410.034 930.394C410.93 929.287 412.08 928.413 413.386 927.846C414.692 927.28 416.115 927.037 417.534 927.14C418.954 927.242 420.328 927.686 421.539 928.434C422.895 929.295 424.504 929.668 426.101 929.492C427.697 929.316 429.186 928.601 430.322 927.465L461.426 896.332C462.555 895.194 463.263 893.706 463.436 892.112C463.608 890.518 463.235 888.912 462.376 887.558C461.624 886.347 461.176 884.972 461.069 883.549C460.963 882.127 461.201 880.7 461.765 879.39C462.329 878.08 463.2 876.926 464.306 876.027C465.411 875.127 466.718 874.508 468.114 874.223C469.51 873.937 470.954 873.994 472.324 874.389C473.693 874.783 474.947 875.503 475.978 876.487C477.009 877.471 477.788 878.69 478.247 880.041C478.705 881.391 478.831 882.832 478.613 884.242C478.527 884.792 478.572 885.355 478.745 885.885C478.917 886.414 479.212 886.896 479.606 887.29C480 887.684 480.481 887.979 481.01 888.152C481.539 888.324 482.102 888.37 482.651 888.284C484.451 887.992 486.296 888.265 487.935 889.064C489.573 889.863 490.924 891.15 491.804 892.749C492.683 894.347 493.047 896.178 492.845 897.991C492.644 899.804 491.887 901.511 490.679 902.877L490.697 902.855Z" fill="white" fill-opacity="0.4"/>
<path d="M75.3318 620.942C74.2771 621.329 56.5178 627.718 52.2837 613.896C47.1965 597.289 73.8627 587.034 86.0689 587.226C98.4183 587.42 115.543 631.622 90.9797 634.09C86.5231 634.392 79.1819 629.699 75.3318 620.942Z" fill="white" fill-opacity="0.42"/>
<ellipse cx="10.4756" cy="15.7947" rx="10.4756" ry="15.7947" transform="matrix(0.474739 0.880126 -0.88589 0.463895 135.309 586.678)" fill="white" fill-opacity="0.42"/>
<ellipse cx="10.4963" cy="15.7624" rx="10.4963" ry="15.7624" transform="matrix(0.783686 0.621157 -0.618709 0.785621 115.232 552.86)" fill="white" fill-opacity="0.42"/>
<ellipse cx="10.6044" cy="14.8562" rx="10.6044" ry="14.8562" transform="matrix(0.998709 0.0507944 -0.0312528 0.999511 72.2891 546.797)" fill="white" fill-opacity="0.42"/>
<ellipse cx="10.5357" cy="14.9523" rx="10.5357" ry="14.9523" transform="matrix(0.958538 -0.284966 0.301396 0.953499 37.4707 559.571)" fill="white" fill-opacity="0.42"/>
<ellipse cx="10.4756" cy="15.7947" rx="10.4756" ry="15.7947" transform="matrix(0.474739 0.880126 -0.88589 0.463895 973.309 977.678)" fill="white" fill-opacity="0.42"/>
<ellipse cx="10.4963" cy="15.7624" rx="10.4963" ry="15.7624" transform="matrix(0.783686 0.621157 -0.618709 0.785621 953.232 943.86)" fill="white" fill-opacity="0.42"/>
<ellipse cx="10.6044" cy="14.8562" rx="10.6044" ry="14.8562" transform="matrix(0.998709 0.0507944 -0.0312528 0.999511 910.289 937.797)" fill="white" fill-opacity="0.42"/>
<ellipse cx="10.5357" cy="14.9523" rx="10.5357" ry="14.9523" transform="matrix(0.958538 -0.284966 0.301396 0.953499 875.471 950.571)" fill="white" fill-opacity="0.42"/>
<path d="M913.332 1011.94C912.277 1012.33 894.518 1018.72 890.284 1004.9C885.196 988.289 911.863 978.034 924.069 978.226C936.418 978.42 953.543 1022.62 928.98 1025.09C924.523 1025.39 917.182 1020.7 913.332 1011.94Z" fill="white" fill-opacity="0.42"/>
<path fill-rule="evenodd" clip-rule="evenodd" d="M410.074 258.559C415.153 253.581 421.691 249.223 429.941 245.909C438.193 242.594 445.929 241.219 453.038 241.301L453.073 241.3C460.831 241.372 468.464 243.271 475.351 246.843C487.094 252.923 495.175 262.977 498.723 271.809C501.119 277.776 503.606 288.742 496.954 297.754C497.446 298.872 497.925 300.008 498.388 301.163L498.434 301.275C499.678 304.373 502.709 311.911 499.993 320.766C497.191 329.906 488.779 339.03 470.324 346.443C451.869 353.856 439.483 353.087 431.137 348.424C423.05 343.906 420.025 336.369 418.78 333.271L418.735 333.158C418.272 332.005 417.831 330.853 417.412 329.702C406.378 327.797 400.585 318.16 398.188 312.19C394.64 303.358 393.521 290.51 397.796 277.999C400.299 270.655 404.497 264.004 410.049 258.584L410.074 258.559ZM425.032 323.345C420.688 311.255 418.879 296.15 418.2 283.769C417.857 277.554 417.802 272.122 417.833 268.248C417.847 266.47 417.88 265.02 417.912 263.981C421.934 260.356 427.028 257.122 433.415 254.557C439.799 251.992 445.714 250.802 451.127 250.638C451.869 251.367 452.892 252.39 454.133 253.667C456.832 256.442 460.549 260.405 464.601 265.13C472.671 274.543 481.817 286.705 487.055 298.439C487.116 298.623 487.188 298.804 487.272 298.979C488.136 300.808 488.958 302.694 489.74 304.636C490.921 307.577 492.795 312.448 491.082 318.033C489.423 323.45 483.899 330.949 466.851 337.797C449.804 344.645 440.625 343.049 435.683 340.288C430.58 337.437 428.565 332.627 427.383 329.684C426.603 327.741 425.893 325.811 425.255 323.893C425.191 323.704 425.117 323.522 425.032 323.345ZM432.512 288.533C431.365 288.993 430.448 289.891 429.963 291.027C429.478 292.164 429.464 293.447 429.925 294.593L430.764 296.682C431.224 297.829 432.122 298.746 433.258 299.231C434.395 299.716 435.678 299.73 436.825 299.269C437.971 298.808 438.888 297.911 439.373 296.774C439.859 295.638 439.872 294.355 439.412 293.208L438.573 291.12C438.112 289.973 437.215 289.056 436.078 288.571C434.941 288.086 433.659 288.072 432.512 288.533ZM457.57 278.467C458.716 278.006 459.999 278.02 461.136 278.505C462.273 278.991 463.17 279.907 463.631 281.054L464.47 283.143C464.93 284.29 464.916 285.572 464.431 286.709C463.946 287.846 463.029 288.743 461.882 289.204C460.736 289.664 459.453 289.651 458.316 289.165C457.179 288.68 456.282 287.763 455.821 286.617L454.983 284.528C454.522 283.381 454.536 282.098 455.021 280.962C455.506 279.825 456.423 278.928 457.57 278.467ZM462.846 315.324C462.788 315.18 462.723 315.039 462.651 314.9C463.124 314.217 463.533 313.49 463.87 312.73C464.994 310.215 465.467 307.078 464.299 304.172L464.279 304.12C464.237 304.027 464.189 303.937 464.135 303.851C464.014 303.657 463.872 303.477 463.713 303.313C463.191 302.79 462.545 302.407 461.837 302.198C460.084 301.647 457.352 301.722 453.054 303.449C448.76 305.174 446.734 307.004 445.849 308.615C444.935 310.278 445.337 311.515 445.431 311.749C446.598 314.654 449.112 316.595 451.665 317.636C452.439 317.952 453.245 318.196 454.047 318.359C454.089 318.506 454.139 318.652 454.198 318.798L456.173 323.714C455.74 324.651 454.655 325.825 452.662 326.626C450.065 327.669 448.142 327.188 447.421 326.549C446.493 325.754 445.289 325.356 444.07 325.44C442.85 325.524 441.713 326.083 440.902 326.998C440.092 327.913 439.673 329.11 439.736 330.33C439.8 331.551 440.34 332.698 441.241 333.524C445.649 337.433 451.803 337.014 456.136 335.274C458.821 334.195 461.657 332.268 463.543 329.562C466.777 330.211 470.159 329.641 472.844 328.563C477.177 326.822 481.908 322.868 482.389 316.995C482.45 316.38 482.387 315.758 482.206 315.167C482.024 314.575 481.726 314.026 481.33 313.551C480.934 313.076 480.447 312.685 479.898 312.4C479.349 312.115 478.749 311.942 478.132 311.892C477.516 311.841 476.895 311.914 476.307 312.106C475.719 312.297 475.175 312.604 474.707 313.008C474.239 313.413 473.856 313.906 473.58 314.46C473.304 315.013 473.142 315.616 473.102 316.234C473.023 317.194 471.967 318.871 469.37 319.915C467.377 320.715 465.781 320.618 464.821 320.24L462.846 315.324Z" fill="white" fill-opacity="0.4"/>
<path d="M686.251 68.8153C683.612 65.6345 679.835 63.6126 675.727 63.1813C675.466 60.8057 674.674 58.5193 673.41 56.4918C672.146 54.4643 670.442 52.7476 668.424 51.4692C666.407 50.1908 664.128 49.3834 661.756 49.1069C659.385 48.8304 656.981 49.0919 654.724 49.872C652.467 50.6522 650.415 51.9309 648.719 53.6133C647.023 55.2958 645.728 57.3388 644.928 59.5908C644.129 61.8428 643.847 64.2461 644.102 66.6223C644.357 68.9985 645.144 71.2867 646.403 73.3172C646.405 73.329 646.405 73.3409 646.403 73.3526L615.339 104.468H615.295C613.266 103.207 610.98 102.42 608.606 102.165C606.232 101.909 603.831 102.192 601.581 102.992C599.331 103.792 597.29 105.089 595.609 106.786C593.928 108.484 592.651 110.538 591.871 112.797C591.092 115.056 590.831 117.462 591.107 119.836C591.383 122.209 592.19 124.491 593.467 126.51C594.744 128.529 596.459 130.235 598.485 131.5C600.51 132.765 602.795 133.558 605.168 133.819C605.429 136.194 606.221 138.481 607.485 140.508C608.749 142.536 610.453 144.252 612.47 145.531C614.488 146.809 616.767 147.617 619.138 147.893C621.51 148.17 623.913 147.908 626.17 147.128C628.427 146.348 630.48 145.069 632.175 143.387C633.871 141.704 635.167 139.661 635.966 137.409C636.765 135.157 637.048 132.754 636.793 130.378C636.537 128.001 635.751 125.713 634.492 123.683V123.647L665.574 92.5321H665.618C668.828 94.5557 672.654 95.3644 676.407 94.8123C680.16 94.2602 683.593 92.3836 686.085 89.5212C688.578 86.6587 689.966 82.9989 689.999 79.2021C690.033 75.4053 688.71 71.7215 686.268 68.8153H686.251ZM680.697 84.855C679.315 86.439 677.414 87.4783 675.335 87.7862C673.257 88.0942 671.137 87.6508 669.355 86.5355C667.999 85.6741 666.391 85.3007 664.794 85.4768C663.197 85.6528 661.708 86.3678 660.572 87.504L629.468 118.637C628.336 119.777 627.625 121.268 627.452 122.866C627.279 124.464 627.655 126.073 628.518 127.428C629.27 128.64 629.719 130.015 629.825 131.437C629.932 132.86 629.693 134.286 629.13 135.596C628.566 136.906 627.694 138.06 626.589 138.96C625.483 139.86 624.177 140.479 622.781 140.764C621.385 141.049 619.94 140.992 618.571 140.598C617.202 140.204 615.948 139.484 614.916 138.5C613.885 137.516 613.107 136.296 612.648 134.946C612.189 133.596 612.063 132.155 612.281 130.745C612.361 130.24 612.329 129.724 612.19 129.232C612.051 128.74 611.807 128.284 611.475 127.896C611.142 127.508 610.73 127.196 610.266 126.983C609.802 126.769 609.297 126.659 608.787 126.659C608.605 126.661 608.423 126.675 608.243 126.703C606.836 126.92 605.398 126.793 604.051 126.334C602.704 125.874 601.488 125.096 600.505 124.065C599.523 123.034 598.804 121.781 598.41 120.412C598.016 119.044 597.957 117.6 598.24 116.204C598.523 114.808 599.138 113.5 600.034 112.394C600.93 111.287 602.08 110.413 603.386 109.846C604.692 109.28 606.115 109.037 607.534 109.14C608.954 109.242 610.328 109.686 611.539 110.434C612.895 111.295 614.504 111.668 616.101 111.492C617.697 111.316 619.186 110.601 620.322 109.465L651.426 78.3321C652.555 77.1937 653.263 75.7056 653.436 74.1116C653.608 72.5175 653.235 70.9121 652.376 69.5583C651.624 68.347 651.176 66.9717 651.069 65.5494C650.963 64.1272 651.201 62.7003 651.765 61.3904C652.329 60.0805 653.2 58.9264 654.306 58.0266C655.411 57.1267 656.718 56.5079 658.114 56.2227C659.51 55.9375 660.954 55.9945 662.324 56.3887C663.693 56.783 664.947 57.5029 665.978 58.487C667.009 59.4712 667.788 60.6903 668.247 62.0406C668.705 63.3908 668.831 64.8321 668.613 66.2415C668.527 66.792 668.572 67.355 668.745 67.8847C668.917 68.4144 669.212 68.8958 669.606 69.2898C670 69.6837 670.481 69.9791 671.01 70.1518C671.539 70.3245 672.102 70.3696 672.651 70.2835C674.451 69.9921 676.296 70.2647 677.935 71.0641C679.573 71.8634 680.924 73.1504 681.804 74.7486C682.683 76.3467 683.047 78.1779 682.845 79.9912C682.644 81.8045 681.887 83.5111 680.679 84.8771L680.697 84.855Z" fill="white" fill-opacity="0.4"/>
<path d="M1529.25 467.815C1526.61 464.635 1522.83 462.613 1518.73 462.181C1518.47 459.806 1517.67 457.519 1516.41 455.492C1515.15 453.464 1513.44 451.748 1511.42 450.469C1509.41 449.191 1507.13 448.383 1504.76 448.107C1502.38 447.83 1499.98 448.092 1497.72 448.872C1495.47 449.652 1493.41 450.931 1491.72 452.613C1490.02 454.296 1488.73 456.339 1487.93 458.591C1487.13 460.843 1486.85 463.246 1487.1 465.622C1487.36 467.999 1488.14 470.287 1489.4 472.317C1489.4 472.329 1489.4 472.341 1489.4 472.353L1458.34 503.468H1458.29C1456.27 502.207 1453.98 501.42 1451.61 501.165C1449.23 500.909 1446.83 501.192 1444.58 501.992C1442.33 502.792 1440.29 504.089 1438.61 505.786C1436.93 507.484 1435.65 509.538 1434.87 511.797C1434.09 514.056 1433.83 516.462 1434.11 518.836C1434.38 521.209 1435.19 523.491 1436.47 525.51C1437.74 527.529 1439.46 529.235 1441.48 530.5C1443.51 531.765 1445.79 532.558 1448.17 532.819C1448.43 535.194 1449.22 537.481 1450.48 539.508C1451.75 541.536 1453.45 543.252 1455.47 544.531C1457.49 545.809 1459.77 546.617 1462.14 546.893C1464.51 547.17 1466.91 546.908 1469.17 546.128C1471.43 545.348 1473.48 544.069 1475.18 542.387C1476.87 540.704 1478.17 538.661 1478.97 536.409C1479.77 534.157 1480.05 531.754 1479.79 529.378C1479.54 527.001 1478.75 524.713 1477.49 522.683V522.647L1508.57 491.532H1508.62C1511.83 493.556 1515.65 494.364 1519.41 493.812C1523.16 493.26 1526.59 491.384 1529.09 488.521C1531.58 485.659 1532.97 481.999 1533 478.202C1533.03 474.405 1531.71 470.721 1529.27 467.815H1529.25ZM1523.7 483.855C1522.31 485.439 1520.41 486.478 1518.34 486.786C1516.26 487.094 1514.14 486.651 1512.36 485.535C1511 484.674 1509.39 484.301 1507.79 484.477C1506.2 484.653 1504.71 485.368 1503.57 486.504L1472.47 517.637C1471.34 518.777 1470.62 520.268 1470.45 521.866C1470.28 523.464 1470.66 525.073 1471.52 526.428C1472.27 527.64 1472.72 529.015 1472.83 530.437C1472.93 531.86 1472.69 533.286 1472.13 534.596C1471.57 535.906 1470.69 537.06 1469.59 537.96C1468.48 538.86 1467.18 539.479 1465.78 539.764C1464.38 540.049 1462.94 539.992 1461.57 539.598C1460.2 539.204 1458.95 538.484 1457.92 537.5C1456.89 536.516 1456.11 535.296 1455.65 533.946C1455.19 532.596 1455.06 531.155 1455.28 529.745C1455.36 529.24 1455.33 528.724 1455.19 528.232C1455.05 527.74 1454.81 527.284 1454.47 526.896C1454.14 526.508 1453.73 526.196 1453.27 525.983C1452.8 525.769 1452.3 525.659 1451.79 525.659C1451.6 525.661 1451.42 525.675 1451.24 525.703C1449.84 525.92 1448.4 525.793 1447.05 525.334C1445.7 524.874 1444.49 524.096 1443.51 523.065C1442.52 522.034 1441.8 520.781 1441.41 519.412C1441.02 518.044 1440.96 516.6 1441.24 515.204C1441.52 513.808 1442.14 512.5 1443.03 511.394C1443.93 510.287 1445.08 509.413 1446.39 508.846C1447.69 508.28 1449.11 508.037 1450.53 508.14C1451.95 508.242 1453.33 508.686 1454.54 509.434C1455.9 510.295 1457.5 510.668 1459.1 510.492C1460.7 510.316 1462.19 509.601 1463.32 508.465L1494.43 477.332C1495.55 476.194 1496.26 474.706 1496.44 473.112C1496.61 471.518 1496.23 469.912 1495.38 468.558C1494.62 467.347 1494.18 465.972 1494.07 464.549C1493.96 463.127 1494.2 461.7 1494.77 460.39C1495.33 459.08 1496.2 457.926 1497.31 457.027C1498.41 456.127 1499.72 455.508 1501.11 455.223C1502.51 454.937 1503.95 454.994 1505.32 455.389C1506.69 455.783 1507.95 456.503 1508.98 457.487C1510.01 458.471 1510.79 459.69 1511.25 461.041C1511.71 462.391 1511.83 463.832 1511.61 465.242C1511.53 465.792 1511.57 466.355 1511.74 466.885C1511.92 467.414 1512.21 467.896 1512.61 468.29C1513 468.684 1513.48 468.979 1514.01 469.152C1514.54 469.324 1515.1 469.37 1515.65 469.284C1517.45 468.992 1519.3 469.265 1520.93 470.064C1522.57 470.863 1523.92 472.15 1524.8 473.749C1525.68 475.347 1526.05 477.178 1525.85 478.991C1525.64 480.804 1524.89 482.511 1523.68 483.877L1523.7 483.855Z" fill="white" fill-opacity="0.4"/>
<path d="M1399.63 992.877C1420.34 1005.36 1447.39 998.657 1459.88 977.947C1472.36 957.238 1465.66 930.189 1444.95 917.705C1424.24 905.221 1397.19 911.925 1384.7 932.635L1362.05 970.221L1369.57 974.752L1378.7 959.605C1380.05 972.922 1387.34 985.469 1399.63 992.877ZM1422.99 983.893C1404.34 972.656 1398.31 948.318 1409.55 929.675C1411.61 926.255 1414.15 923.227 1417.14 920.568L1417.79 920.502C1405.52 944.005 1412.73 973.102 1434.56 988.154L1433.95 988.401C1430.11 987.468 1426.41 985.955 1422.99 983.893ZM1446.45 929.833C1439.61 936.676 1430.53 940.684 1420.75 941.191C1421.3 934.659 1423.23 928.137 1426.84 922.161C1427.15 921.635 1427.55 921.154 1427.9 920.651C1432.2 921.344 1436.43 922.821 1440.38 925.199C1442.6 926.536 1444.62 928.113 1446.41 929.811L1446.45 929.833ZM1443.39 983.28C1442.86 982.963 1442.29 982.721 1441.77 982.404C1437.26 979.685 1433.43 976.253 1430.32 972.325C1440.89 969.586 1450.35 963.598 1457.34 955.205C1457.37 961.598 1455.64 967.876 1452.35 973.356C1449.97 977.303 1446.89 980.623 1443.41 983.243L1443.39 983.28ZM1455.15 943.12C1454.97 943.421 1454.82 943.744 1454.64 944.045C1448.16 954.795 1437.5 962.104 1425.19 964.419C1422.91 959.868 1421.47 954.951 1420.9 949.944C1432.66 949.396 1443.62 944.73 1451.99 936.709C1453.27 938.758 1454.34 940.891 1455.15 943.12ZM1400.61 927.67C1389.3 949.24 1395.91 976.025 1416 989.78C1411.89 989.041 1407.89 987.603 1404.09 985.315C1387.52 975.323 1382.16 953.696 1392.15 937.121C1394.41 933.362 1397.3 930.184 1400.6 927.609L1400.61 927.67Z" fill="white" fill-opacity="0.4"/>
<path fill-rule="evenodd" clip-rule="evenodd" d="M72.5841 116.676C72.6164 117.672 72.6974 118.616 72.8272 119.51C72.9217 120.193 72.8292 120.889 72.5596 121.524C72.29 122.158 71.8533 122.708 71.2961 123.115L64.6952 127.874C64.4699 128.022 64.2803 128.218 64.1402 128.448C64 128.678 63.9129 128.937 63.885 129.205C63.1766 138.828 65.294 146.371 69.905 151.808C74.52 157.264 82.1261 161.148 93.4722 162.493C104.818 163.839 113.117 161.836 118.885 157.617C124.64 153.41 128.463 146.571 130.025 137.049C130.061 136.782 130.037 136.51 129.954 136.254C129.872 135.997 129.733 135.762 129.549 135.566L124.244 129.4C123.796 128.873 123.5 128.234 123.388 127.552C123.276 126.869 123.351 126.169 123.606 125.526C123.91 124.741 124.193 123.901 124.453 123.005C123.836 122.293 123.165 121.63 122.445 121.023C120.809 119.651 119.085 118.39 117.283 117.246C113.96 115.098 110.473 113.217 106.853 111.619C106.507 111.559 106.171 111.45 105.855 111.293C105.918 111.317 105.912 111.316 105.837 111.291C105.475 111.157 103.415 110.382 99.705 109.942C96.0011 109.503 93.8098 109.779 93.4263 109.825C93.3518 109.837 93.3458 109.836 93.4083 109.823C92.9883 109.922 92.554 109.944 92.126 109.89C89.0275 110.413 84.7205 111.512 80.7008 112.913C78.4931 113.688 76.4548 114.526 74.7989 115.378C74.0305 115.76 73.2908 116.19 72.5841 116.676ZM134.023 100.519C133.902 95.9313 130.39 92.1247 126.051 91.6466C124.424 91.4356 122.771 91.6876 121.282 92.3736C114.413 95.4368 110.067 99.5371 106.273 103.502C104.41 103.002 102.513 102.641 100.597 102.42C98.1319 102.127 96.1241 102.091 94.6366 102.14C91.8639 97.3965 88.5991 92.3814 82.6205 87.7822C81.3649 86.7963 79.8643 86.1714 78.2801 85.9748C73.9803 85.4709 69.7257 88.3381 68.5443 92.7466C67.2888 97.4207 66.06 103 65.4326 108.444C65.1702 110.657 65.0203 112.846 64.9982 114.935L64.9981 115.039C64.9895 116.139 65.0205 117.214 65.0912 118.263L60.2712 121.734C59.1503 122.528 58.2174 123.559 57.5384 124.753C56.8595 125.947 56.451 127.276 56.3418 128.646C55.5242 139.652 57.8925 149.347 64.1297 156.702C70.3622 164.045 79.9781 168.515 92.5808 170.009C105.184 171.504 115.577 169.414 123.355 163.733C131.14 158.034 135.71 149.162 137.489 138.276C137.699 136.919 137.611 135.533 137.23 134.213C136.85 132.894 136.186 131.673 135.286 130.637L131.412 126.129C133.806 118.541 134.231 108.378 134.023 100.513M89.7824 124.972C89.9006 123.975 89.6181 122.972 88.9969 122.184C88.3757 121.396 87.4668 120.886 86.4702 120.768C85.4735 120.65 84.4707 120.932 83.6823 121.554C82.894 122.175 82.3847 123.084 82.2665 124.08L81.917 127.027C81.7988 128.023 82.0814 129.026 82.7026 129.814C83.3237 130.603 84.2326 131.112 85.2293 131.23C86.226 131.348 87.2288 131.066 88.0172 130.445C88.8055 129.824 89.3148 128.915 89.433 127.918L89.7824 124.972ZM110.04 123.564C112.115 123.81 113.598 125.693 113.352 127.767L113.003 130.713C112.885 131.71 112.376 132.619 111.587 133.24C110.799 133.861 109.796 134.144 108.799 134.026C107.803 133.908 106.894 133.398 106.273 132.61C105.651 131.822 105.369 130.819 105.487 129.822L105.837 126.876C106.083 124.801 107.966 123.317 110.04 123.564ZM91.9194 143.712C90.6673 142.378 89.7182 140.788 89.1367 139.053C88.949 138.425 88.9163 137.761 89.0415 137.117C89.1667 136.474 89.446 135.87 89.8554 135.358C90.4932 134.572 91.3911 134.041 92.3867 133.86C93.4025 133.675 95.0043 133.536 96.8803 133.758C98.7562 133.981 100.287 134.492 101.225 134.908C101.967 135.24 102.83 135.879 103.336 136.957C103.881 138.119 103.867 139.52 103.17 140.718C102.201 142.268 100.909 143.592 99.3812 144.597C99.4224 144.816 99.7065 145.453 100.53 145.862C100.889 146.044 101.291 146.123 101.692 146.091C102.238 146.021 102.751 145.791 103.166 145.43C103.955 144.809 104.958 144.527 105.955 144.645C106.951 144.763 107.86 145.272 108.482 146.061C109.103 146.849 109.386 147.852 109.267 148.849C109.149 149.846 108.64 150.755 107.851 151.376C104.354 154.132 100.323 154.19 97.1999 152.655C96.3385 152.228 95.5413 151.682 94.8314 151.033C93.9828 151.506 93.0694 151.855 92.1492 152.056C88.7541 152.818 84.8484 151.818 82.0926 148.321C81.785 147.931 81.5573 147.483 81.4225 147.005C81.2877 146.527 81.2484 146.026 81.307 145.533C81.3655 145.039 81.5207 144.562 81.7637 144.128C82.0066 143.695 82.3326 143.313 82.723 143.006C83.1134 142.698 83.5606 142.47 84.039 142.336C84.5174 142.201 85.0176 142.162 85.5112 142.22C86.0048 142.279 86.482 142.434 86.9156 142.677C87.3492 142.92 87.7307 143.246 88.0383 143.636C88.3578 144.084 88.8029 144.428 89.3175 144.623C89.6928 144.749 90.0872 144.765 90.5007 144.672C91.4022 144.474 91.8283 143.915 91.9194 143.712Z" fill="white" fill-opacity="0.4"/>
<path fill-rule="evenodd" clip-rule="evenodd" d="M1319.5 69.3277C1323.31 65.5953 1328.21 62.3273 1334.39 59.8424C1340.58 57.3568 1346.38 56.3259 1351.71 56.3875L1351.74 56.3865C1357.56 56.4409 1363.28 57.8649 1368.44 60.5432C1377.25 65.102 1383.31 72.6406 1385.97 79.2628C1387.76 83.737 1389.63 91.959 1384.64 98.7162C1385.01 99.5544 1385.37 100.406 1385.72 101.272L1385.75 101.356C1386.68 103.679 1388.96 109.331 1386.92 115.971C1384.82 122.824 1378.51 129.665 1364.67 135.223C1350.84 140.782 1341.55 140.205 1335.29 136.709C1329.23 133.322 1326.96 127.67 1326.03 125.347L1325.99 125.263C1325.64 124.398 1325.31 123.534 1325 122.671C1316.73 121.243 1312.38 114.017 1310.59 109.541C1307.93 102.919 1307.09 93.2848 1310.29 83.9038C1312.17 78.3971 1315.32 73.41 1319.48 69.3465L1319.5 69.3277ZM1330.71 117.904C1327.46 108.839 1326.1 97.5138 1325.59 88.2299C1325.33 83.5698 1325.29 79.4973 1325.32 76.5925C1325.33 75.2591 1325.35 74.1723 1325.37 73.3927C1328.39 70.675 1332.21 68.2503 1337 66.3268C1341.79 64.4038 1346.22 63.5111 1350.28 63.3887C1350.84 63.9352 1351.6 64.702 1352.53 65.6593C1354.56 67.74 1357.34 70.7117 1360.38 74.2544C1366.43 81.3125 1373.29 90.4318 1377.22 99.2295C1377.26 99.3679 1377.32 99.5033 1377.38 99.6348C1378.03 101.006 1378.65 102.42 1379.23 103.877C1380.12 106.081 1381.52 109.734 1380.24 113.922C1378.99 117.983 1374.85 123.606 1362.07 128.741C1349.29 133.875 1342.41 132.678 1338.7 130.609C1334.87 128.471 1333.36 124.864 1332.48 122.658C1331.89 121.201 1331.36 119.754 1330.88 118.315C1330.83 118.174 1330.78 118.037 1330.71 117.904ZM1336.32 91.802C1335.46 92.1474 1334.77 92.8202 1334.41 93.6725C1334.05 94.5247 1334.04 95.4866 1334.38 96.3465L1335.01 97.9125C1335.36 98.7724 1336.03 99.4598 1336.88 99.8236C1337.73 100.187 1338.7 100.198 1339.56 99.8523C1340.42 99.5069 1341.1 98.8341 1341.47 97.9818C1341.83 97.1296 1341.84 96.1677 1341.5 95.3078L1340.87 93.7418C1340.52 92.8819 1339.85 92.1945 1339 91.8307C1338.14 91.4669 1337.18 91.4566 1336.32 91.802ZM1355.11 84.2548C1355.97 83.9094 1356.93 83.9198 1357.78 84.2836C1358.64 84.6474 1359.31 85.3348 1359.65 86.1947L1360.28 87.7607C1360.63 88.6206 1360.62 89.5824 1360.26 90.4347C1359.89 91.287 1359.2 91.9598 1358.34 92.3052C1357.48 92.6506 1356.52 92.6403 1355.67 92.2765C1354.82 91.9127 1354.14 91.2253 1353.8 90.3654L1353.17 88.7994C1352.83 87.9395 1352.84 86.9776 1353.2 86.1254C1353.56 85.2731 1354.25 84.6003 1355.11 84.2548ZM1359.07 111.89C1359.02 111.782 1358.97 111.676 1358.92 111.573C1359.28 111.06 1359.58 110.515 1359.83 109.946C1360.68 108.06 1361.03 105.707 1360.16 103.528L1360.14 103.49C1360.11 103.42 1360.07 103.353 1360.03 103.288C1359.94 103.143 1359.84 103.007 1359.72 102.884C1359.32 102.493 1358.84 102.205 1358.31 102.049C1357 101.635 1354.95 101.692 1351.72 102.986C1348.51 104.28 1346.99 105.652 1346.32 106.86C1345.64 108.107 1345.94 109.035 1346.01 109.21C1346.88 111.388 1348.77 112.843 1350.68 113.624C1351.26 113.861 1351.87 114.044 1352.47 114.166C1352.5 114.276 1352.54 114.386 1352.58 114.495L1354.06 118.181C1353.74 118.884 1352.93 119.764 1351.43 120.365C1349.48 121.147 1348.04 120.786 1347.5 120.307C1346.8 119.711 1345.9 119.412 1344.99 119.475C1344.07 119.538 1343.22 119.958 1342.61 120.644C1342.01 121.33 1341.69 122.227 1341.74 123.142C1341.79 124.057 1342.19 124.917 1342.87 125.536C1346.17 128.468 1350.79 128.154 1354.04 126.849C1356.05 126.04 1358.18 124.595 1359.59 122.566C1362.01 123.053 1364.55 122.626 1366.56 121.817C1369.81 120.512 1373.36 117.547 1373.72 113.143C1373.77 112.682 1373.72 112.216 1373.58 111.772C1373.45 111.329 1373.22 110.917 1372.93 110.561C1372.63 110.205 1372.26 109.912 1371.85 109.698C1371.44 109.484 1370.99 109.355 1370.53 109.317C1370.07 109.279 1369.6 109.333 1369.16 109.477C1368.72 109.621 1368.31 109.851 1367.96 110.154C1367.61 110.457 1367.32 110.827 1367.12 111.242C1366.91 111.657 1366.79 112.11 1366.76 112.572C1366.7 113.293 1365.91 114.55 1363.96 115.332C1362.46 115.933 1361.27 115.86 1360.55 115.577L1359.07 111.89Z" fill="white" fill-opacity="0.33"/>
<path fill-rule="evenodd" clip-rule="evenodd" d="M24.4981 933.328C28.3061 929.595 33.208 926.327 39.3941 923.842C45.5819 921.357 51.3824 920.326 56.7126 920.388L56.7385 920.387C62.5559 920.441 68.2787 921.865 73.4432 924.543C82.2478 929.102 88.307 936.641 90.9671 943.263C92.7643 947.737 94.6286 955.959 89.6409 962.716C90.0103 963.554 90.3688 964.406 90.7165 965.272L90.7504 965.356C91.6835 967.679 93.9558 973.331 91.9197 979.971C89.8191 986.824 83.5115 993.665 69.6738 999.223C55.8361 1004.78 46.5487 1004.2 40.291 1000.71C34.2274 997.322 31.959 991.67 31.0259 989.347L30.992 989.263C30.6447 988.398 30.3141 987.534 30.0001 986.671C21.7262 985.243 17.3832 978.017 15.5854 973.541C12.9253 966.919 12.0867 957.285 15.2918 947.904C17.1685 942.397 20.316 937.41 24.4793 933.347L24.4981 933.328ZM35.7138 981.904C32.4565 972.839 31.1002 961.514 30.5904 952.23C30.3338 947.57 30.2926 943.497 30.3156 940.592C30.326 939.259 30.3507 938.172 30.3745 937.393C33.3908 934.675 37.2101 932.25 41.9988 930.327C46.7859 928.404 51.2206 927.511 55.2794 927.389C55.836 927.935 56.6033 928.702 57.5338 929.659C59.5576 931.74 62.344 934.712 65.3824 938.254C71.4332 945.313 78.2911 954.432 82.2186 963.23C82.2643 963.368 82.3187 963.503 82.3814 963.635C83.0289 965.006 83.6458 966.42 84.2321 967.877C85.1177 970.081 86.5228 973.734 85.2378 977.922C83.9944 981.983 79.8521 987.606 67.0697 992.741C54.2874 997.875 47.4055 996.678 43.6994 994.609C39.8735 992.471 38.3626 988.864 37.4764 986.658C36.8912 985.201 36.3593 983.754 35.8808 982.315C35.8328 982.174 35.7771 982.037 35.7138 981.904ZM41.3219 955.802C40.462 956.147 39.7745 956.82 39.4107 957.672C39.0469 958.525 39.0366 959.487 39.382 960.347L40.011 961.912C40.3564 962.772 41.0293 963.46 41.8816 963.824C42.7338 964.187 43.6957 964.198 44.5556 963.852C45.4155 963.507 46.1029 962.834 46.4667 961.982C46.8305 961.13 46.8408 960.168 46.4954 959.308L45.8664 957.742C45.521 956.882 44.8481 956.194 43.9959 955.831C43.1436 955.467 42.1817 955.457 41.3219 955.802ZM60.1104 948.255C60.9703 947.909 61.9321 947.92 62.7844 948.284C63.6367 948.647 64.3095 949.335 64.6549 950.195L65.284 951.761C65.6294 952.621 65.619 953.582 65.2552 954.435C64.8915 955.287 64.204 955.96 63.3441 956.305C62.4842 956.651 61.5224 956.64 60.6701 956.277C59.8178 955.913 59.145 955.225 58.7996 954.365L58.1705 952.799C57.8251 951.94 57.8355 950.978 58.1993 950.125C58.563 949.273 59.2505 948.6 60.1104 948.255ZM64.0665 975.89C64.0231 975.782 63.9743 975.676 63.9201 975.573C64.2752 975.06 64.5815 974.515 64.8348 973.946C65.6775 972.06 66.0315 969.707 65.1564 967.528L65.1407 967.49C65.1094 967.42 65.0735 967.353 65.0334 967.288C64.9423 967.143 64.8362 967.007 64.7168 966.884C64.3249 966.493 63.8413 966.205 63.3099 966.049C61.9955 965.635 59.9472 965.692 56.7245 966.986C53.505 968.28 51.9855 969.652 51.3222 970.86C50.637 972.107 50.9381 973.035 51.0084 973.21C51.8836 975.388 53.7689 976.843 55.6827 977.624C56.2638 977.861 56.8681 978.044 57.4687 978.166C57.5005 978.276 57.5383 978.386 57.5821 978.495L59.0629 982.181C58.7388 982.884 57.9252 983.764 56.4305 984.365C54.4836 985.147 53.0417 984.786 52.5009 984.307C51.8048 983.711 50.9024 983.412 49.9881 983.475C49.0738 983.538 48.2209 983.958 47.6131 984.644C47.0053 985.33 46.6913 986.227 46.7389 987.142C46.7864 988.057 47.1916 988.917 47.8672 989.536C51.172 992.468 55.7866 992.154 59.0352 990.849C61.0487 990.04 63.1753 988.595 64.5894 986.566C67.0141 987.053 69.5497 986.626 71.5631 985.817C74.8118 984.512 78.3594 981.547 78.7199 977.143C78.7656 976.682 78.719 976.216 78.5827 975.772C78.4464 975.329 78.2232 974.917 77.9261 974.561C77.6291 974.205 77.2641 973.912 76.8524 973.698C76.4407 973.484 75.9907 973.355 75.5284 973.317C75.0662 973.279 74.601 973.333 74.16 973.477C73.7191 973.621 73.3112 973.851 72.9601 974.154C72.6089 974.457 72.3217 974.827 72.115 975.242C71.9083 975.657 71.7864 976.11 71.7563 976.572C71.6973 977.293 70.9053 978.55 68.9584 979.332C67.4637 979.933 66.2672 979.86 65.5473 979.577L64.0665 975.89Z" fill="white" fill-opacity="0.33"/>
</svg>
